SplineFontDB: 3.2
FontName: LiberationSerif-Italic
FullName: Liberation Serif Italic
FamilyName: Liberation Serif
Weight: Book
Copyright: Digitized data copyright (c) 2010 Google Corporation.\nCopyright (c) 2012 Red Hat, Inc.
Version: 2.1.5
ItalicAngle: -16.333
UnderlinePosition: -173
UnderlineWidth: 100
Ascent: 1638
Descent: 410
InvalidEm: 0
LayerCount: 2
Layer: 0 1 "Back" 1
Layer: 1 1 "Fore" 0
XUID: [1021 445 290132255 15991547]
FSType: 0
OS2Version: 3
OS2_WeightWidthSlopeOnly: 0
OS2_UseTypoMetrics: 0
CreationTime: 1123398000
ModificationTime: 1633009498
PfmFamily: 17
TTFWeight: 400
TTFWidth: 5
LineGap: 87
VLineGap: 0
Panose: 2 2 5 3 5 4 5 9 3 4
OS2TypoAscent: 1422
OS2TypoAOffset: 0
OS2TypoDescent: -442
OS2TypoDOffset: 0
OS2TypoLinegap: 307
OS2WinAscent: 1825
OS2WinAOffset: 0
OS2WinDescent: 443
OS2WinDOffset: 0
HheadAscent: 1825
HheadAOffset: 0
HheadDescent: -443
HheadDOffset: 0
OS2SubXSize: 1434
OS2SubYSize: 1331
OS2SubXOff: 44
OS2SubYOff: 293
OS2SupXSize: 1434
OS2SupYSize: 1331
OS2SupXOff: 76
OS2SupYOff: 928
OS2StrikeYSize: 102
OS2StrikeYPos: 530
OS2FamilyClass: 261
OS2Vendor: '1ASC'
OS2CodePages: 600001bf.dff70000
OS2UnicodeRanges: e0000aff.500078ff.00000021.00000000
Lookup: 1 0 0 "'locl' Localized Forms lookup 5" { "'locl' Localized Forms lookup 5-1"  } ['locl' ('cyrl' <'SRB ' > 'cyrl' <'MKD ' > ) ]
Lookup: 4 1 0 "'dlig' Discretionary Ligatures in Hebrew lookup 0" { "'dlig' Discretionary Ligatures in Hebrew lookup 0 subtable"  } ['dlig' ('hebr' <'dflt' > ) ]
Lookup: 4 1 0 "'ccmp' Glyph Composition/Decomposition in Hebrew lookup 1" { "'ccmp' Glyph Composition/Decomposition in Hebrew lookup 1 subtable"  } ['ccmp' ('hebr' <'dflt' > ) ]
Lookup: 6 1 0 "'ccmp' Glyph Composition/Decomposition in Hebrew lookup 2" { "'ccmp' Glyph Composition/Decomposition in Hebrew lookup 2 subtable"  } ['ccmp' ('hebr' <'dflt' > ) ]

StartChar: exclam
Encoding: 33 33 4
Width: 682
GlyphClass: 2
Flags: W
LayerCount: 2
Fore
SplineSet
400 92 m 0,0,1
 400 43 400 43 365.5 7 c 128,-1,2
 331 -29 331 -29 279 -29 c 256,3,4
 227 -29 227 -29 192.5 7 c 128,-1,5
 158 43 158 43 158 92 c 0,6,7
 158 143 158 143 193 178 c 128,-1,8
 228 213 228 213 279 213 c 256,9,10
 330 213 330 213 365 178 c 128,-1,11
 400 143 400 143 400 92 c 0,0,1
374 1341 m 1,12,-1
 592 1341 l 1,13,-1
 363 389 l 1,14,-1
 269 389 l 1,15,-1
 374 1341 l 1,12,-1
EndSplineSet
Validated: 1
EndChar

StartChar: quotedbl
Encoding: 34 34 5
Width: 860
GlyphClass: 2
Flags: W
LayerCount: 2
Fore
SplineSet
670 1341 m 1,0,-1
 867 1341 l 1,1,-1
 720 860 l 1,2,-1
 646 860 l 1,3,-1
 670 1341 l 1,0,-1
285 1341 m 1,4,-1
 482 1341 l 1,5,-1
 335 860 l 1,6,-1
 261 860 l 1,7,-1
 285 1341 l 1,4,-1
EndSplineSet
Validated: 1
EndChar

StartChar: numbersign
Encoding: 35 35 6
Width: 1024
GlyphClass: 2
Flags: W
LayerCount: 2
Fore
SplineSet
984 524 m 1,0,-1
 966 421 l 1,1,-1
 706 421 l 1,2,-1
 553 0 l 1,3,-1
 449 0 l 1,4,-1
 602 421 l 1,5,-1
 292 421 l 1,6,-1
 140 0 l 1,7,-1
 35 0 l 1,8,-1
 188 421 l 1,9,-1
 17 421 l 1,10,-1
 34 524 l 1,11,-1
 226 524 l 1,12,-1
 338 831 l 1,13,-1
 88 831 l 1,14,-1
 106 934 l 1,15,-1
 374 934 l 1,16,-1
 522 1341 l 1,17,-1
 626 1341 l 1,18,-1
 479 934 l 1,19,-1
 788 934 l 1,20,-1
 936 1341 l 1,21,-1
 1040 1341 l 1,22,-1
 892 934 l 1,23,-1
 1056 934 l 1,24,-1
 1038 831 l 1,25,-1
 856 831 l 1,26,-1
 745 524 l 1,27,-1
 984 524 l 1,0,-1
331 524 m 1,28,-1
 640 524 l 1,29,-1
 751 831 l 1,30,-1
 442 831 l 1,31,-1
 331 524 l 1,28,-1
EndSplineSet
Validated: 1
EndChar

StartChar: dollar
Encoding: 36 36 7
Width: 1024
GlyphClass: 2
Flags: W
LayerCount: 2
Fore
SplineSet
76 371 m 1,0,-1
 141 371 l 1,1,-1
 142 180 l 1,2,3
 179 127 179 127 250 95 c 128,-1,4
 321 63 321 63 404 61 c 1,5,-1
 506 638 l 1,6,7
 372 705 372 705 317.5 751 c 128,-1,8
 263 797 263 797 231.5 854.5 c 128,-1,9
 200 912 200 912 200 990 c 0,10,11
 200 1163 200 1163 310 1256 c 128,-1,12
 420 1349 420 1349 632 1355 c 1,13,-1
 655 1483 l 1,14,-1
 737 1483 l 1,15,-1
 714 1355 l 1,16,17
 857 1352 857 1352 991 1318 c 1,18,-1
 942 1039 l 1,19,-1
 877 1039 l 1,20,-1
 872 1210 l 1,21,22
 810 1260 810 1260 699 1270 c 1,23,-1
 614 787 l 1,24,25
 759 709 759 709 815.5 660 c 128,-1,26
 872 611 872 611 906 551 c 128,-1,27
 940 491 940 491 940 414 c 0,28,29
 940 219 940 219 822.5 107.5 c 128,-1,30
 705 -4 705 -4 472 -18 c 1,31,-1
 448 -156 l 1,32,-1
 366 -156 l 1,33,-1
 390 -20 l 1,34,35
 165 -16 165 -16 24 73 c 1,36,-1
 76 371 l 1,0,-1
762 379 m 0,37,38
 762 428 762 428 744 465.5 c 128,-1,39
 726 503 726 503 690.5 533.5 c 128,-1,40
 655 564 655 564 582 601 c 1,41,-1
 487 66 l 1,42,43
 622 83 622 83 692 163.5 c 128,-1,44
 762 244 762 244 762 379 c 0,37,38
375 1025 m 0,45,46
 375 964 375 964 412.5 916.5 c 128,-1,47
 450 869 450 869 538 823 c 1,48,-1
 617 1270 l 1,49,50
 501 1261 501 1261 438 1197.5 c 128,-1,51
 375 1134 375 1134 375 1025 c 0,45,46
EndSplineSet
Validated: 1
EndChar

StartChar: percent
Encoding: 37 37 8
Width: 1706
GlyphClass: 2
Flags: W
LayerCount: 2
Fore
SplineSet
318 -20 m 1,0,-1
 208 -20 l 1,1,-1
 1400 1362 l 1,2,-1
 1511 1362 l 1,3,-1
 318 -20 l 1,0,-1
383 623 m 0,4,5
 117 623 117 623 117 885 c 0,6,7
 117 1013 117 1013 164.5 1129.5 c 128,-1,8
 212 1246 212 1246 299.5 1304 c 128,-1,9
 387 1362 387 1362 519 1362 c 0,10,11
 789 1362 789 1362 789 1103 c 0,12,13
 789 1056 789 1056 778 995 c 0,14,15
 711 623 711 623 383 623 c 0,4,5
635 1124 m 0,16,17
 635 1204 635 1204 604 1246 c 128,-1,18
 573 1288 573 1288 500 1288 c 0,19,20
 422 1288 422 1288 373 1234.5 c 128,-1,21
 324 1181 324 1181 295.5 1061 c 128,-1,22
 267 941 267 941 267 854 c 0,23,24
 267 778 267 778 296 737 c 128,-1,25
 325 696 325 696 395 696 c 0,26,27
 472 696 472 696 524 749.5 c 128,-1,28
 576 803 576 803 605.5 916.5 c 128,-1,29
 635 1030 635 1030 635 1124 c 0,16,17
1184 -27 m 0,30,31
 917 -27 917 -27 917 234 c 0,32,33
 917 280 917 280 928 346 c 0,34,35
 993 713 993 713 1320 713 c 0,36,37
 1589 713 1589 713 1589 453 c 0,38,39
 1589 327 1589 327 1540.5 209 c 128,-1,40
 1492 91 1492 91 1404.5 32 c 128,-1,41
 1317 -27 1317 -27 1184 -27 c 0,30,31
1437 473 m 0,42,43
 1437 554 1437 554 1405.5 596.5 c 128,-1,44
 1374 639 1374 639 1301 639 c 0,45,46
 1223 639 1223 639 1174 586 c 128,-1,47
 1125 533 1125 533 1097 411.5 c 128,-1,48
 1069 290 1069 290 1069 205 c 0,49,50
 1069 129 1069 129 1098 88 c 128,-1,51
 1127 47 1127 47 1197 47 c 0,52,53
 1274 47 1274 47 1326 100.5 c 128,-1,54
 1378 154 1378 154 1407.5 267.5 c 128,-1,55
 1437 381 1437 381 1437 473 c 0,42,43
EndSplineSet
Validated: 1
EndChar

StartChar: ampersand
Encoding: 38 38 9
Width: 1593
GlyphClass: 2
Flags: W
LayerCount: 2
Fore
SplineSet
1120 1102 m 0,0,1
 1120 1022 1120 1022 1081.5 965 c 128,-1,2
 1043 908 1043 908 975.5 865.5 c 128,-1,3
 908 823 908 823 727 758 c 1,4,-1
 1071 356 l 1,5,6
 1218 554 1218 554 1256 727 c 1,7,-1
 1119 754 l 1,8,-1
 1128 807 l 1,9,-1
 1585 807 l 1,10,-1
 1576 754 l 1,11,-1
 1432 727 l 1,12,13
 1311 454 1311 454 1142 272 c 1,14,-1
 1310 78 l 1,15,-1
 1472 54 l 1,16,-1
 1462 0 l 1,17,-1
 1118 0 l 1,18,-1
 1005 137 l 1,19,20
 888 50 888 50 782 15 c 128,-1,21
 676 -20 676 -20 548 -20 c 0,22,23
 327 -20 327 -20 207 73 c 128,-1,24
 87 166 87 166 87 340 c 0,25,26
 87 432 87 432 126.5 507.5 c 128,-1,27
 166 583 166 583 249 641.5 c 128,-1,28
 332 700 332 700 489 756 c 1,29,30
 427 845 427 845 404 908 c 128,-1,31
 381 971 381 971 381 1037 c 0,32,33
 381 1184 381 1184 484 1273 c 128,-1,34
 587 1362 587 1362 768 1362 c 0,35,36
 878 1362 878 1362 956.5 1329.5 c 128,-1,37
 1035 1297 1035 1297 1077.5 1237.5 c 128,-1,38
 1120 1178 1120 1178 1120 1102 c 0,0,1
538 687 m 1,39,40
 404 630 404 630 344.5 545.5 c 128,-1,41
 285 461 285 461 285 343 c 0,42,43
 285 214 285 214 359.5 140 c 128,-1,44
 434 66 434 66 568 66 c 0,45,46
 668 66 668 66 762.5 105.5 c 128,-1,47
 857 145 857 145 936 219 c 1,48,-1
 538 687 l 1,39,40
561 1071 m 0,49,50
 561 1008 561 1008 591.5 948.5 c 128,-1,51
 622 889 622 889 673 823 c 1,52,53
 803 872 803 872 852 905 c 128,-1,54
 901 938 901 938 927 982.5 c 128,-1,55
 953 1027 953 1027 953 1090 c 0,56,57
 953 1182 953 1182 903 1232 c 128,-1,58
 853 1282 853 1282 768 1282 c 0,59,60
 663 1282 663 1282 612 1225 c 128,-1,61
 561 1168 561 1168 561 1071 c 0,49,50
EndSplineSet
Validated: 1
EndChar

StartChar: quotesingle
Encoding: 39 39 10
Width: 438
GlyphClass: 2
Flags: W
LayerCount: 2
Fore
SplineSet
269 1341 m 1,0,-1
 466 1341 l 1,1,-1
 319 860 l 1,2,-1
 245 860 l 1,3,-1
 269 1341 l 1,0,-1
EndSplineSet
Validated: 1
EndChar

StartChar: parenleft
Encoding: 40 40 11
Width: 682
GlyphClass: 2
Flags: W
LayerCount: 2
Fore
SplineSet
251 131 m 0,0,1
 251 -208 251 -208 475 -352 c 1,2,-1
 460 -436 l 1,3,4
 253 -315 253 -315 162.5 -161 c 128,-1,5
 72 -7 72 -7 72 213 c 0,6,7
 72 389 72 389 117.5 592.5 c 128,-1,8
 163 796 163 796 245.5 946 c 128,-1,9
 328 1096 328 1096 455 1208.5 c 128,-1,10
 582 1321 582 1321 787 1421 c 1,11,-1
 772 1337 l 1,12,13
 639 1267 639 1267 549 1160.5 c 128,-1,14
 459 1054 459 1054 400 911 c 128,-1,15
 341 768 341 768 296 522 c 128,-1,16
 251 276 251 276 251 131 c 0,0,1
EndSplineSet
Validated: 1
EndChar

StartChar: parenright
Encoding: 41 41 12
Width: 682
GlyphClass: 2
Flags: W
LayerCount: 2
Fore
SplineSet
-97 -436 m 1,0,-1
 -82 -352 l 1,1,2
 49 -283 49 -283 137.5 -178 c 128,-1,3
 226 -73 226 -73 284 64 c 128,-1,4
 342 201 342 201 390 446 c 128,-1,5
 438 691 438 691 438 854 c 0,6,7
 438 1028 438 1028 382.5 1146.5 c 128,-1,8
 327 1265 327 1265 214 1337 c 1,9,-1
 229 1421 l 1,10,11
 441 1295 441 1295 530 1143 c 128,-1,12
 619 991 619 991 619 772 c 0,13,14
 619 605 619 605 573.5 400 c 128,-1,15
 528 195 528 195 445 42.5 c 128,-1,16
 362 -110 362 -110 234 -223.5 c 128,-1,17
 106 -337 106 -337 -97 -436 c 1,0,-1
EndSplineSet
Validated: 1
EndChar

StartChar: asterisk
Encoding: 42 42 13
Width: 1024
GlyphClass: 2
Flags: W
LayerCount: 2
Fore
SplineSet
197 1065 m 1,0,-1
 261 1208 l 1,1,-1
 576 1014 l 1,2,-1
 533 1341 l 1,3,-1
 689 1341 l 1,4,-1
 642 1014 l 1,5,-1
 959 1204 l 1,6,-1
 1023 1063 l 1,7,-1
 691 965 l 1,8,-1
 1023 868 l 1,9,-1
 959 727 l 1,10,-1
 642 915 l 1,11,-1
 689 590 l 1,12,-1
 533 590 l 1,13,-1
 576 918 l 1,14,-1
 261 723 l 1,15,-1
 197 866 l 1,16,-1
 525 965 l 1,17,-1
 197 1065 l 1,0,-1
EndSplineSet
Validated: 1
EndChar

StartChar: plus
Encoding: 43 43 14
Width: 1382
GlyphClass: 2
Flags: W
LayerCount: 2
Fore
SplineSet
760 629 m 1,0,-1
 760 203 l 1,1,-1
 657 203 l 1,2,-1
 657 629 l 1,3,-1
 233 629 l 1,4,-1
 233 731 l 1,5,-1
 657 731 l 1,6,-1
 657 1157 l 1,7,-1
 760 1157 l 1,8,-1
 760 731 l 1,9,-1
 1186 731 l 1,10,-1
 1186 629 l 1,11,-1
 760 629 l 1,0,-1
EndSplineSet
Validated: 1
EndChar

StartChar: comma
Encoding: 44 44 15
Width: 512
GlyphClass: 2
Flags: W
LayerCount: 2
Fore
SplineSet
383 42 m 0,0,1
 383 -89 383 -89 300 -180.5 c 128,-1,2
 217 -272 217 -272 68 -315 c 1,3,-1
 68 -238 l 1,4,5
 254 -179 254 -179 254 -70 c 0,6,7
 254 -42 254 -42 234.5 -28 c 128,-1,8
 215 -14 215 -14 191.5 0.5 c 128,-1,9
 168 15 168 15 148.5 36.5 c 128,-1,10
 129 58 129 58 129 100 c 0,11,12
 129 154 129 154 163 182.5 c 128,-1,13
 197 211 197 211 250 211 c 0,14,15
 311 211 311 211 347 166 c 128,-1,16
 383 121 383 121 383 42 c 0,0,1
EndSplineSet
Validated: 1
EndChar

StartChar: hyphen
Encoding: 45 45 16
Width: 682
GlyphClass: 2
Flags: W
LayerCount: 2
Fore
SplineSet
76 406 m 1,0,-1
 76 559 l 1,1,-1
 608 559 l 1,2,-1
 608 406 l 1,3,-1
 76 406 l 1,0,-1
EndSplineSet
Validated: 1
EndChar

StartChar: period
Encoding: 46 46 17
Width: 512
GlyphClass: 2
Flags: W
LayerCount: 2
Fore
SplineSet
327 92 m 0,0,1
 327 43 327 43 292.5 7 c 128,-1,2
 258 -29 258 -29 206 -29 c 256,3,4
 154 -29 154 -29 119.5 7 c 128,-1,5
 85 43 85 43 85 92 c 0,6,7
 85 143 85 143 120 178 c 128,-1,8
 155 213 155 213 206 213 c 256,9,10
 257 213 257 213 292 178 c 128,-1,11
 327 143 327 143 327 92 c 0,0,1
EndSplineSet
Validated: 1
EndChar

StartChar: slash
Encoding: 47 47 18
Width: 569
GlyphClass: 2
Flags: W
LayerCount: 2
Fore
SplineSet
16 -20 m 1,0,-1
 -94 -20 l 1,1,-1
 617 1350 l 1,2,-1
 725 1350 l 1,3,-1
 16 -20 l 1,0,-1
EndSplineSet
Validated: 1
EndChar

StartChar: zero
Encoding: 48 48 19
Width: 1024
GlyphClass: 2
Flags: W
LayerCount: 2
Fore
SplineSet
419 -20 m 0,0,1
 79 -20 79 -20 79 399 c 0,2,3
 79 634 79 634 151 877.5 c 128,-1,4
 223 1121 223 1121 348.5 1241.5 c 128,-1,5
 474 1362 474 1362 652 1362 c 0,6,7
 998 1362 998 1362 998 951 c 0,8,9
 998 724 998 724 925.5 473.5 c 128,-1,10
 853 223 853 223 727.5 101.5 c 128,-1,11
 602 -20 602 -20 419 -20 c 0,0,1
823 992 m 0,12,13
 823 1282 823 1282 634 1282 c 0,14,15
 548 1282 548 1282 484 1224 c 128,-1,16
 420 1166 420 1166 373 1049.5 c 128,-1,17
 326 933 326 933 287.5 731 c 128,-1,18
 249 529 249 529 249 345 c 0,19,20
 249 204 249 204 296.5 131.5 c 128,-1,21
 344 59 344 59 431 59 c 0,22,23
 550 59 550 59 630 168 c 128,-1,24
 710 277 710 277 766.5 535.5 c 128,-1,25
 823 794 823 794 823 992 c 0,12,13
EndSplineSet
Validated: 1
Substitution2: "'subs' Subscript lookup 7 subtable" zero.subs
EndChar

StartChar: one
Encoding: 49 49 20
Width: 1024
GlyphClass: 2
Flags: W
LayerCount: 2
Fore
SplineSet
534 80 m 1,0,-1
 804 53 l 1,1,-1
 794 0 l 1,2,-1
 73 0 l 1,3,-1
 83 53 l 1,4,-1
 362 80 l 1,5,-1
 555 1174 l 1,6,-1
 267 1077 l 1,7,-1
 277 1130 l 1,8,-1
 707 1352 l 1,9,-1
 759 1352 l 1,10,-1
 534 80 l 1,0,-1
EndSplineSet
Validated: 1
Substitution2: "'subs' Subscript lookup 7 subtable" one.subs
EndChar

StartChar: two
Encoding: 50 50 21
Width: 1024
GlyphClass: 2
Flags: W
LayerCount: 2
Fore
SplineSet
821 0 m 1,0,-1
 1 0 l 1,1,-1
 27 147 l 1,2,-1
 239 302 l 1,3,4
 459 457 459 457 576 568.5 c 128,-1,5
 693 680 693 680 749.5 802.5 c 128,-1,6
 806 925 806 925 806 1067 c 0,7,8
 806 1174 806 1174 748 1223 c 128,-1,9
 690 1272 690 1272 578 1272 c 0,10,11
 523 1272 523 1272 462.5 1256.5 c 128,-1,12
 402 1241 402 1241 361 1219 c 1,13,-1
 297 1055 l 1,14,-1
 231 1055 l 1,15,-1
 276 1313 l 1,16,17
 467 1356 467 1356 593 1356 c 0,18,19
 779 1356 779 1356 879 1280 c 128,-1,20
 979 1204 979 1204 979 1067 c 0,21,22
 979 936 979 936 917 815 c 128,-1,23
 855 694 855 694 728.5 578.5 c 128,-1,24
 602 463 602 463 378 306 c 1,25,-1
 166 154 l 1,26,-1
 848 154 l 1,27,-1
 821 0 l 1,0,-1
EndSplineSet
Validated: 1
Substitution2: "'subs' Subscript lookup 7 subtable" two.subs
EndChar

StartChar: three
Encoding: 51 51 22
Width: 1024
GlyphClass: 2
Flags: W
LayerCount: 2
Fore
SplineSet
357 -20 m 0,0,1
 268 -20 268 -20 169 -3 c 128,-1,2
 70 14 70 14 -3 41 c 1,3,-1
 34 323 l 1,4,-1
 100 323 l 1,5,-1
 112 135 l 1,6,7
 145 110 145 110 220 86.5 c 128,-1,8
 295 63 295 63 357 63 c 0,9,10
 542 63 542 63 629 140.5 c 128,-1,11
 716 218 716 218 716 389 c 0,12,13
 716 631 716 631 447 651 c 1,14,-1
 332 659 l 1,15,-1
 346 741 l 1,16,-1
 491 750 l 2,17,18
 632 759 632 759 699.5 832.5 c 128,-1,19
 767 906 767 906 767 1051 c 0,20,21
 767 1161 767 1161 715 1216.5 c 128,-1,22
 663 1272 663 1272 552 1272 c 0,23,24
 498 1272 498 1272 439.5 1257 c 128,-1,25
 381 1242 381 1242 337 1219 c 1,26,-1
 273 1055 l 1,27,-1
 207 1055 l 1,28,-1
 252 1313 l 1,29,30
 354 1340 354 1340 417 1348 c 128,-1,31
 480 1356 480 1356 559 1356 c 0,32,33
 744 1356 744 1356 848.5 1279.5 c 128,-1,34
 953 1203 953 1203 953 1065 c 0,35,36
 953 916 953 916 865.5 822 c 128,-1,37
 778 728 778 728 595 702 c 1,38,39
 739 681 739 681 818 604 c 128,-1,40
 897 527 897 527 897 408 c 0,41,42
 897 210 897 210 750 95 c 128,-1,43
 603 -20 603 -20 357 -20 c 0,0,1
EndSplineSet
Validated: 1
Substitution2: "'subs' Subscript lookup 7 subtable" three.subs
EndChar

StartChar: four
Encoding: 52 52 23
Width: 1024
GlyphClass: 2
Flags: W
LayerCount: 2
Fore
SplineSet
754 308 m 1,0,-1
 699 0 l 1,1,-1
 537 0 l 1,2,-1
 592 308 l 1,3,-1
 5 308 l 1,4,-1
 25 428 l 1,5,-1
 776 1348 l 1,6,-1
 936 1348 l 1,7,-1
 776 438 l 1,8,-1
 978 438 l 1,9,-1
 956 308 l 1,10,-1
 754 308 l 1,0,-1
752 1180 m 1,11,-1
 149 438 l 1,12,-1
 614 438 l 1,13,-1
 709 979 l 1,14,-1
 752 1180 l 1,11,-1
EndSplineSet
Validated: 1
Substitution2: "'subs' Subscript lookup 7 subtable" four.subs
Substitution2: "'sups' Superscript lookup 6 subtable" four.sups
EndChar

StartChar: five
Encoding: 53 53 24
Width: 1024
GlyphClass: 2
Flags: W
LayerCount: 2
Fore
SplineSet
490 784 m 0,0,1
 695 784 695 784 800.5 698.5 c 128,-1,2
 906 613 906 613 906 454 c 0,3,4
 906 226 906 226 764.5 103 c 128,-1,5
 623 -20 623 -20 356 -20 c 0,6,7
 183 -20 183 -20 32 23 c 1,8,-1
 70 305 l 1,9,-1
 136 305 l 1,10,-1
 148 117 l 1,11,12
 184 94 184 94 248 78.5 c 128,-1,13
 312 63 312 63 370 63 c 0,14,15
 545 63 545 63 634 156 c 128,-1,16
 723 249 723 249 723 445 c 0,17,18
 723 700 723 700 463 700 c 0,19,20
 355 700 355 700 262 676 c 1,21,-1
 166 676 l 1,22,-1
 283 1341 l 1,23,-1
 963 1341 l 1,24,-1
 936 1188 l 1,25,-1
 346 1188 l 1,26,-1
 271 760 l 1,27,28
 385 784 385 784 490 784 c 0,0,1
EndSplineSet
Validated: 1
Substitution2: "'subs' Subscript lookup 7 subtable" five.subs
Substitution2: "'sups' Superscript lookup 6 subtable" five.sups
EndChar

StartChar: six
Encoding: 54 54 25
Width: 1024
GlyphClass: 2
Flags: W
LayerCount: 2
Fore
SplineSet
477 -20 m 0,0,1
 291 -20 291 -20 187 103 c 128,-1,2
 83 226 83 226 83 446 c 0,3,4
 83 695 83 695 164.5 904.5 c 128,-1,5
 246 1114 246 1114 394.5 1235 c 128,-1,6
 543 1356 543 1356 723 1356 c 0,7,8
 860 1356 860 1356 1014 1303 c 1,9,-1
 973 1072 l 1,10,-1
 907 1072 l 1,11,-1
 896 1212 l 1,12,13
 807 1272 807 1272 716 1272 c 0,14,15
 560 1272 560 1272 446.5 1122 c 128,-1,16
 333 972 333 972 285 706 c 1,17,18
 361 751 361 751 446.5 777 c 128,-1,19
 532 803 532 803 604 803 c 0,20,21
 767 803 767 803 857.5 722 c 128,-1,22
 948 641 948 641 948 499 c 0,23,24
 948 347 948 347 892 229.5 c 128,-1,25
 836 112 836 112 729 46 c 128,-1,26
 622 -20 622 -20 477 -20 c 0,0,1
260 411 m 0,27,28
 260 243 260 243 316 151 c 128,-1,29
 372 59 372 59 479 59 c 0,30,31
 614 59 614 59 688 174 c 128,-1,32
 762 289 762 289 762 489 c 0,33,34
 762 598 762 598 713.5 652.5 c 128,-1,35
 665 707 665 707 562 707 c 0,36,37
 447 707 447 707 276 645 c 1,38,39
 260 531 260 531 260 411 c 0,27,28
EndSplineSet
Validated: 1
Substitution2: "'subs' Subscript lookup 7 subtable" six.subs
Substitution2: "'sups' Superscript lookup 6 subtable" six.sups
EndChar

StartChar: seven
Encoding: 55 55 26
Width: 1024
GlyphClass: 2
Flags: W
LayerCount: 2
Fore
SplineSet
274 1024 m 1,0,-1
 208 1024 l 1,1,-1
 264 1341 l 1,2,-1
 1094 1341 l 1,3,-1
 1080 1264 l 1,4,-1
 259 0 l 1,5,-1
 120 0 l 1,6,-1
 917 1188 l 1,7,-1
 338 1188 l 1,8,-1
 274 1024 l 1,0,-1
EndSplineSet
Validated: 1
Substitution2: "'subs' Subscript lookup 7 subtable" seven.subs
Substitution2: "'sups' Superscript lookup 6 subtable" seven.sups
EndChar

StartChar: eight
Encoding: 56 56 27
Width: 1024
GlyphClass: 2
Flags: W
LayerCount: 2
Fore
SplineSet
1001 1092 m 0,0,1
 1001 950 1001 950 931 847.5 c 128,-1,2
 861 745 861 745 743 711 c 1,3,4
 829 681 829 681 878 611.5 c 128,-1,5
 927 542 927 542 927 440 c 0,6,7
 927 -20 927 -20 426 -20 c 0,8,9
 231 -20 231 -20 137 61.5 c 128,-1,10
 43 143 43 143 43 293 c 0,11,12
 43 619 43 619 351 711 c 1,13,14
 287 739 287 739 244.5 798.5 c 128,-1,15
 202 858 202 858 202 949 c 0,16,17
 202 1154 202 1154 318.5 1258 c 128,-1,18
 435 1362 435 1362 655 1362 c 0,19,20
 1001 1362 1001 1362 1001 1092 c 0,0,1
438 59 m 0,21,22
 596 59 596 59 673 149 c 128,-1,23
 750 239 750 239 750 447 c 0,24,25
 750 666 750 666 534 666 c 0,26,27
 220 666 220 666 220 289 c 0,28,29
 220 59 220 59 438 59 c 0,21,22
551 754 m 0,30,31
 682 754 682 754 752.5 840.5 c 128,-1,32
 823 927 823 927 823 1092 c 0,33,34
 823 1189 823 1189 779.5 1235.5 c 128,-1,35
 736 1282 736 1282 644 1282 c 0,36,37
 511 1282 511 1282 444.5 1200.5 c 128,-1,38
 378 1119 378 1119 378 945 c 0,39,40
 378 852 378 852 421.5 803 c 128,-1,41
 465 754 465 754 551 754 c 0,30,31
EndSplineSet
Validated: 1
Substitution2: "'subs' Subscript lookup 7 subtable" eight.subs
Substitution2: "'sups' Superscript lookup 6 subtable" eight.sups
EndChar

StartChar: nine
Encoding: 57 57 28
Width: 1024
GlyphClass: 2
Flags: W
LayerCount: 2
Fore
SplineSet
597 1356 m 0,0,1
 786 1356 786 1356 888.5 1235 c 128,-1,2
 991 1114 991 1114 991 890 c 0,3,4
 991 635 991 635 908 424 c 128,-1,5
 825 213 825 213 684.5 96.5 c 128,-1,6
 544 -20 544 -20 376 -20 c 0,7,8
 195 -20 195 -20 60 34 c 1,9,-1
 99 255 l 1,10,-1
 165 255 l 1,11,-1
 176 115 l 1,12,13
 210 95 210 95 262.5 79.5 c 128,-1,14
 315 64 315 64 372 64 c 0,15,16
 533 64 533 64 642 216 c 128,-1,17
 751 368 751 368 791 631 c 1,18,19
 709 583 709 583 624 558 c 128,-1,20
 539 533 539 533 470 533 c 0,21,22
 310 533 310 533 218 623 c 128,-1,23
 126 713 126 713 126 871 c 0,24,25
 126 1016 126 1016 183 1127 c 128,-1,26
 240 1238 240 1238 347 1297 c 128,-1,27
 454 1356 454 1356 597 1356 c 0,0,1
814 925 m 0,28,29
 814 1093 814 1093 758 1185 c 128,-1,30
 702 1277 702 1277 595 1277 c 0,31,32
 459 1277 459 1277 385.5 1171 c 128,-1,33
 312 1065 312 1065 312 876 c 0,34,35
 312 750 312 750 367.5 689.5 c 128,-1,36
 423 629 423 629 521 629 c 0,37,38
 658 629 658 629 800 690 c 1,39,40
 814 804 814 804 814 925 c 0,28,29
EndSplineSet
Validated: 1
Substitution2: "'subs' Subscript lookup 7 subtable" nine.subs
Substitution2: "'sups' Superscript lookup 6 subtable" nine.sups
EndChar

StartChar: colon
Encoding: 58 58 29
Width: 682
GlyphClass: 2
Flags: W
LayerCount: 2
Fore
SplineSet
379 92 m 0,0,1
 379 43 379 43 344.5 7 c 128,-1,2
 310 -29 310 -29 258 -29 c 256,3,4
 206 -29 206 -29 171.5 7 c 128,-1,5
 137 43 137 43 137 92 c 0,6,7
 137 143 137 143 172 178 c 128,-1,8
 207 213 207 213 258 213 c 256,9,10
 309 213 309 213 344 178 c 128,-1,11
 379 143 379 143 379 92 c 0,0,1
520 839 m 0,12,13
 520 790 520 790 485.5 754 c 128,-1,14
 451 718 451 718 399 718 c 256,15,16
 347 718 347 718 312.5 754 c 128,-1,17
 278 790 278 790 278 839 c 0,18,19
 278 890 278 890 313 925 c 128,-1,20
 348 960 348 960 399 960 c 256,21,22
 450 960 450 960 485 925 c 128,-1,23
 520 890 520 890 520 839 c 0,12,13
EndSplineSet
Validated: 1
EndChar

StartChar: semicolon
Encoding: 59 59 30
Width: 682
GlyphClass: 2
Flags: W
LayerCount: 2
Fore
SplineSet
546 839 m 0,0,1
 546 790 546 790 511.5 754 c 128,-1,2
 477 718 477 718 425 718 c 256,3,4
 373 718 373 718 338.5 754 c 128,-1,5
 304 790 304 790 304 839 c 0,6,7
 304 890 304 890 339 925 c 128,-1,8
 374 960 374 960 425 960 c 256,9,10
 476 960 476 960 511 925 c 128,-1,11
 546 890 546 890 546 839 c 0,0,1
410 42 m 0,12,13
 410 -89 410 -89 327 -180.5 c 128,-1,14
 244 -272 244 -272 95 -315 c 1,15,-1
 95 -238 l 1,16,17
 281 -179 281 -179 281 -70 c 0,18,19
 281 -42 281 -42 261.5 -28 c 128,-1,20
 242 -14 242 -14 218.5 0.5 c 128,-1,21
 195 15 195 15 175.5 36.5 c 128,-1,22
 156 58 156 58 156 100 c 0,23,24
 156 154 156 154 190 182.5 c 128,-1,25
 224 211 224 211 277 211 c 0,26,27
 338 211 338 211 374 166 c 128,-1,28
 410 121 410 121 410 42 c 0,12,13
EndSplineSet
Validated: 1
EndChar

StartChar: less
Encoding: 60 60 31
Width: 1382
GlyphClass: 2
Flags: W
LayerCount: 2
Fore
SplineSet
232 655 m 1,0,-1
 232 705 l 1,1,-1
 1185 1174 l 1,2,-1
 1185 1071 l 1,3,-1
 376 680 l 1,4,-1
 1185 289 l 1,5,-1
 1185 186 l 1,6,-1
 232 655 l 1,0,-1
EndSplineSet
Validated: 1
EndChar

StartChar: equal
Encoding: 61 61 32
Width: 1382
GlyphClass: 2
Flags: W
LayerCount: 2
Fore
SplineSet
1186 526 m 1,0,-1
 1186 424 l 1,1,-1
 233 424 l 1,2,-1
 233 526 l 1,3,-1
 1186 526 l 1,0,-1
1186 936 m 1,4,-1
 1186 834 l 1,5,-1
 233 834 l 1,6,-1
 233 936 l 1,7,-1
 1186 936 l 1,4,-1
EndSplineSet
Validated: 1
EndChar

StartChar: greater
Encoding: 62 62 33
Width: 1382
GlyphClass: 2
Flags: W
LayerCount: 2
Fore
SplineSet
232 186 m 1,0,-1
 232 289 l 1,1,-1
 1041 680 l 1,2,-1
 232 1071 l 1,3,-1
 232 1174 l 1,4,-1
 1185 705 l 1,5,-1
 1185 655 l 1,6,-1
 232 186 l 1,0,-1
EndSplineSet
Validated: 1
EndChar

StartChar: question
Encoding: 63 63 34
Width: 1024
GlyphClass: 2
Flags: W
LayerCount: 2
Fore
SplineSet
502 350 m 1,0,-1
 422 350 l 1,1,-1
 455 684 l 1,2,-1
 603 713 l 2,3,4
 718 735 718 735 773.5 816 c 128,-1,5
 829 897 829 897 829 1051 c 0,6,7
 829 1272 829 1272 630 1272 c 0,8,9
 570 1272 570 1272 506.5 1250 c 128,-1,10
 443 1228 443 1228 407 1200 c 1,11,-1
 357 1036 l 1,12,-1
 291 1036 l 1,13,-1
 322 1290 l 1,14,15
 481 1356 481 1356 641 1356 c 0,16,17
 1007 1356 1007 1356 1007 1063 c 0,18,19
 1007 706 1007 706 620 623 c 1,20,-1
 561 610 l 1,21,-1
 502 350 l 1,0,-1
545 92 m 0,22,23
 545 43 545 43 510.5 7 c 128,-1,24
 476 -29 476 -29 425 -29 c 0,25,26
 373 -29 373 -29 338.5 7 c 128,-1,27
 304 43 304 43 304 92 c 0,28,29
 304 143 304 143 339 178 c 128,-1,30
 374 213 374 213 425 213 c 0,31,32
 475 213 475 213 510 178.5 c 128,-1,33
 545 144 545 144 545 92 c 0,22,23
EndSplineSet
Validated: 1
EndChar

StartChar: at
Encoding: 64 64 35
Width: 1884
GlyphClass: 2
Flags: W
LayerCount: 2
Fore
SplineSet
1469 -184 m 1,0,1
 1328 -294 1328 -294 1184.5 -341.5 c 128,-1,2
 1041 -389 1041 -389 875 -389 c 0,3,4
 650 -389 650 -389 478.5 -294.5 c 128,-1,5
 307 -200 307 -200 213.5 -28 c 128,-1,6
 120 144 120 144 120 362 c 0,7,8
 120 646 120 646 245.5 876 c 128,-1,9
 371 1106 371 1106 592.5 1235 c 128,-1,10
 814 1364 814 1364 1084 1364 c 0,11,12
 1420 1364 1420 1364 1604.5 1203 c 128,-1,13
 1789 1042 1789 1042 1789 752 c 0,14,15
 1789 562 1789 562 1692 394.5 c 128,-1,16
 1595 227 1595 227 1430 126 c 128,-1,17
 1265 25 1265 25 1086 25 c 0,18,19
 1021 25 1021 25 1021 76 c 0,20,21
 1021 126 1021 126 1029 201 c 1,22,23
 942 114 942 114 858 69.5 c 128,-1,24
 774 25 774 25 707 25 c 0,25,26
 635 25 635 25 595.5 79.5 c 128,-1,27
 556 134 556 134 556 225 c 0,28,29
 556 344 556 344 586.5 457.5 c 128,-1,30
 617 571 617 571 672.5 659 c 128,-1,31
 728 747 728 747 811.5 808.5 c 128,-1,32
 895 870 895 870 975 892.5 c 128,-1,33
 1055 915 1055 915 1185 915 c 2,34,-1
 1221 915 l 2,35,36
 1259 915 1259 915 1307 909 c 1,37,-1
 1193 379 l 2,38,39
 1170 269 1170 269 1170 205 c 0,40,41
 1170 168 1170 168 1188.5 155.5 c 128,-1,42
 1207 143 1207 143 1244 143 c 0,43,44
 1360 143 1360 143 1456 224.5 c 128,-1,45
 1552 306 1552 306 1608 451 c 128,-1,46
 1664 596 1664 596 1664 750 c 0,47,48
 1664 1002 1664 1002 1508 1142 c 128,-1,49
 1352 1282 1352 1282 1078 1282 c 0,50,51
 845 1282 845 1282 658.5 1168.5 c 128,-1,52
 472 1055 472 1055 364.5 840.5 c 128,-1,53
 257 626 257 626 257 365 c 0,54,55
 257 170 257 170 334.5 18 c 128,-1,56
 412 -134 412 -134 559 -219.5 c 128,-1,57
 706 -305 706 -305 906 -305 c 0,58,59
 1054 -305 1054 -305 1178.5 -266.5 c 128,-1,60
 1303 -228 1303 -228 1436 -133 c 1,61,-1
 1469 -184 l 1,0,1
1150 807 m 1,62,-1
 1101 811 l 1,63,64
 971 811 971 811 883.5 766.5 c 128,-1,65
 796 722 796 722 743.5 590 c 128,-1,66
 691 458 691 458 691 309 c 256,67,68
 691 160 691 160 771 160 c 0,69,70
 827 160 827 160 900.5 191 c 128,-1,71
 974 222 974 222 1035 274 c 1,72,-1
 1150 807 l 1,62,-1
EndSplineSet
Validated: 1
EndChar

StartChar: A
Encoding: 65 65 36
Width: 1251
GlyphClass: 2
Flags: W
AnchorPoint: "bottom" 523 -5 basechar 0
AnchorPoint: "top" 788 1348 basechar 0
LayerCount: 2
Fore
SplineSet
264 53 m 1,0,-1
 254 0 l 1,1,-1
 -112 0 l 1,2,-1
 -102 53 l 1,3,-1
 10 80 l 1,4,-1
 692 1352 l 1,5,-1
 883 1352 l 1,6,-1
 1133 80 l 1,7,-1
 1258 53 l 1,8,-1
 1247 0 l 1,9,-1
 772 0 l 1,10,-1
 783 53 l 1,11,-1
 926 80 l 1,12,-1
 862 467 l 1,13,-1
 334 467 l 1,14,-1
 129 80 l 1,15,-1
 264 53 l 1,0,-1
723 1208 m 1,16,-1
 379 557 l 1,17,-1
 846 557 l 1,18,-1
 723 1208 l 1,16,-1
EndSplineSet
EndChar

StartChar: B
Encoding: 66 66 37
Width: 1251
GlyphClass: 2
Flags: W
AnchorPoint: "bottom" 556 -6 basechar 0
AnchorPoint: "top" 734 1346 basechar 0
LayerCount: 2
Fore
SplineSet
639 754 m 2,0,1
 833 754 833 754 915.5 819 c 128,-1,2
 998 884 998 884 998 1047 c 0,3,4
 998 1151 998 1151 933 1201 c 128,-1,5
 868 1251 868 1251 719 1251 c 2,6,-1
 561 1251 l 1,7,-1
 473 754 l 1,8,-1
 639 754 l 2,0,1
615 84 m 0,9,10
 807 84 807 84 897 158.5 c 128,-1,11
 987 233 987 233 987 406 c 0,12,13
 987 542 987 542 898.5 603 c 128,-1,14
 810 664 810 664 643 664 c 2,15,-1
 457 664 l 1,16,-1
 357 90 l 1,17,18
 510 84 510 84 615 84 c 0,9,10
19 0 m 1,19,-1
 29 53 l 1,20,-1
 162 80 l 1,21,-1
 371 1262 l 1,22,-1
 203 1288 l 1,23,-1
 213 1341 l 1,24,-1
 764 1341 l 2,25,26
 1206 1341 1206 1341 1206 1059 c 0,27,28
 1206 918 1206 918 1117.5 826 c 128,-1,29
 1029 734 1029 734 871 713 c 1,30,31
 1026 700 1026 700 1111 620.5 c 128,-1,32
 1196 541 1196 541 1196 410 c 0,33,34
 1196 195 1196 195 1050.5 94.5 c 128,-1,35
 905 -6 905 -6 615 -6 c 1,36,-1
 232 0 l 1,37,-1
 19 0 l 1,19,-1
EndSplineSet
EndChar

StartChar: C
Encoding: 67 67 38
Width: 1366
GlyphClass: 2
Flags: W
AnchorPoint: "bottom" 720 -24 basechar 0
AnchorPoint: "top" 924 1354 basechar 0
LayerCount: 2
Fore
SplineSet
699 -19 m 0,0,1
 424 -19 424 -19 269 125 c 128,-1,2
 114 269 114 269 114 523 c 0,3,4
 114 771 114 771 217.5 961 c 128,-1,5
 321 1151 321 1151 511.5 1253.5 c 128,-1,6
 702 1356 702 1356 947 1356 c 0,7,8
 1158 1356 1158 1356 1385 1305 c 1,9,-1
 1340 1012 l 1,10,-1
 1275 1012 l 1,11,-1
 1275 1186 l 1,12,13
 1213 1229 1213 1229 1125 1252.5 c 128,-1,14
 1037 1276 1037 1276 941 1276 c 0,15,16
 760 1276 760 1276 616.5 1179.5 c 128,-1,17
 473 1083 473 1083 393.5 906 c 128,-1,18
 314 729 314 729 314 503 c 0,19,20
 314 288 314 288 418.5 175.5 c 128,-1,21
 523 63 523 63 716 63 c 0,22,23
 830 63 830 63 939 97 c 128,-1,24
 1048 131 1048 131 1116 184 c 1,25,-1
 1188 385 l 1,26,-1
 1253 385 l 1,27,-1
 1192 70 l 1,28,29
 1077 28 1077 28 944.5 4.5 c 128,-1,30
 812 -19 812 -19 699 -19 c 0,0,1
EndSplineSet
EndChar

StartChar: D
Encoding: 68 68 39
Width: 1479
GlyphClass: 2
Flags: W
AnchorPoint: "bottom" 562 -5 basechar 0
AnchorPoint: "top" 778 1342 basechar 0
LayerCount: 2
Fore
SplineSet
1238 785 m 0,0,1
 1238 1251 1238 1251 723 1251 c 2,2,-1
 561 1251 l 1,3,-1
 357 94 l 1,4,5
 517 86 517 86 621 86 c 0,6,7
 915 86 915 86 1076.5 267.5 c 128,-1,8
 1238 449 1238 449 1238 785 c 0,0,1
784 1341 m 2,9,10
 1107 1341 1107 1341 1277.5 1199.5 c 128,-1,11
 1448 1058 1448 1058 1448 792 c 0,12,13
 1448 553 1448 553 1347.5 371 c 128,-1,14
 1247 189 1247 189 1061 92.5 c 128,-1,15
 875 -4 875 -4 629 -4 c 1,16,-1
 148 0 l 1,17,-1
 -23 0 l 1,18,-1
 -14 53 l 1,19,-1
 162 80 l 1,20,-1
 370 1262 l 1,21,-1
 203 1288 l 1,22,-1
 212 1341 l 1,23,-1
 784 1341 l 2,9,10
EndSplineSet
EndChar

StartChar: E
Encoding: 69 69 40
Width: 1251
GlyphClass: 2
Flags: W
AnchorPoint: "bottom" 563 -2 basechar 0
AnchorPoint: "top" 743 1340 basechar 0
LayerCount: 2
Fore
SplineSet
370 1262 m 1,0,-1
 202 1288 l 1,1,-1
 212 1341 l 1,2,-1
 1218 1341 l 1,3,-1
 1161 1020 l 1,4,-1
 1095 1020 l 1,5,-1
 1101 1237 l 1,6,7
 992 1251 992 1251 780 1251 c 2,8,-1
 561 1251 l 1,9,-1
 468 727 l 1,10,-1
 830 727 l 1,11,-1
 890 887 l 1,12,-1
 954 887 l 1,13,-1
 881 475 l 1,14,-1
 817 475 l 1,15,-1
 815 637 l 1,16,-1
 453 637 l 1,17,-1
 356 90 l 1,18,-1
 620 90 l 2,19,20
 876 90 876 90 961 106 c 1,21,-1
 1062 354 l 1,22,-1
 1128 354 l 1,23,-1
 1046 0 l 1,24,-1
 -24 0 l 1,25,-1
 -14 53 l 1,26,-1
 161 80 l 1,27,-1
 370 1262 l 1,0,-1
EndSplineSet
EndChar

StartChar: F
Encoding: 70 70 41
Width: 1251
GlyphClass: 2
Flags: W
AnchorPoint: "bottom" 488 -2 basechar 0
AnchorPoint: "top" 768 1340 basechar 0
LayerCount: 2
Fore
SplineSet
446 602 m 1,0,-1
 354 80 l 1,1,-1
 573 53 l 1,2,-1
 563 0 l 1,3,-1
 -11 0 l 1,4,-1
 -1 53 l 1,5,-1
 161 80 l 1,6,-1
 370 1262 l 1,7,-1
 202 1288 l 1,8,-1
 212 1341 l 1,9,-1
 1268 1341 l 1,10,-1
 1211 1020 l 1,11,-1
 1145 1020 l 1,12,-1
 1151 1237 l 1,13,14
 1043 1251 1043 1251 830 1251 c 2,15,-1
 561 1251 l 1,16,-1
 462 692 l 1,17,-1
 907 692 l 1,18,-1
 966 852 l 1,19,-1
 1027 852 l 1,20,-1
 955 440 l 1,21,-1
 894 440 l 1,22,-1
 891 602 l 1,23,-1
 446 602 l 1,0,-1
EndSplineSet
EndChar

StartChar: G
Encoding: 71 71 42
Width: 1479
GlyphClass: 2
Flags: W
AnchorPoint: "bottom" 714 -16 basechar 0
AnchorPoint: "top" 960 1356 basechar 0
LayerCount: 2
Fore
SplineSet
690 -18 m 0,0,1
 417 -18 417 -18 265 125.5 c 128,-1,2
 113 269 113 269 113 523 c 0,3,4
 113 774 113 774 217 963 c 128,-1,5
 321 1152 321 1152 511 1254 c 128,-1,6
 701 1356 701 1356 947 1356 c 0,7,8
 1178 1356 1178 1356 1394 1296 c 1,9,-1
 1343 1008 l 1,10,-1
 1276 1008 l 1,11,-1
 1279 1174 l 1,12,13
 1152 1276 1152 1276 941 1276 c 0,14,15
 764 1276 764 1276 620 1180.5 c 128,-1,16
 476 1085 476 1085 395 909 c 128,-1,17
 314 733 314 733 314 503 c 0,18,19
 314 295 314 295 416.5 178.5 c 128,-1,20
 519 62 519 62 703 62 c 0,21,22
 792 62 792 62 882 87.5 c 128,-1,23
 972 113 972 113 1035 153 c 1,24,-1
 1098 506 l 1,25,-1
 931 532 l 1,26,-1
 940 586 l 1,27,-1
 1435 586 l 1,28,-1
 1426 532 l 1,29,-1
 1290 506 l 1,30,-1
 1215 86 l 1,31,32
 1064 28 1064 28 942 5 c 128,-1,33
 820 -18 820 -18 690 -18 c 0,0,1
EndSplineSet
EndChar

StartChar: H
Encoding: 72 72 43
Width: 1479
GlyphClass: 2
Flags: W
AnchorPoint: "bottom" 655 -2 basechar 0
AnchorPoint: "top" 890 1338 basechar 0
LayerCount: 2
Fore
SplineSet
-22 0 m 1,0,-1
 -14 53 l 1,1,-1
 162 80 l 1,2,-1
 369 1262 l 1,3,-1
 203 1288 l 1,4,-1
 211 1341 l 1,5,-1
 748 1341 l 1,6,-1
 740 1288 l 1,7,-1
 561 1262 l 1,8,-1
 469 735 l 1,9,-1
 1100 735 l 1,10,-1
 1192 1262 l 1,11,-1
 1026 1288 l 1,12,-1
 1034 1341 l 1,13,-1
 1571 1341 l 1,14,-1
 1563 1288 l 1,15,-1
 1385 1262 l 1,16,-1
 1178 80 l 1,17,-1
 1344 53 l 1,18,-1
 1335 0 l 1,19,-1
 799 0 l 1,20,-1
 807 53 l 1,21,-1
 985 80 l 1,22,-1
 1084 645 l 1,23,-1
 453 645 l 1,24,-1
 354 80 l 1,25,-1
 520 53 l 1,26,-1
 512 0 l 1,27,-1
 -22 0 l 1,0,-1
EndSplineSet
EndChar

StartChar: I
Encoding: 73 73 44
Width: 682
GlyphClass: 2
Flags: W
AnchorPoint: "bottom" 261 0 basechar 0
AnchorPoint: "top" 485 1346 basechar 0
LayerCount: 2
Fore
SplineSet
369 80 m 1,0,-1
 535 53 l 1,1,-1
 527 0 l 1,2,-1
 -8 0 l 1,3,-1
 0 53 l 1,4,-1
 176 80 l 1,5,-1
 383 1262 l 1,6,-1
 217 1288 l 1,7,-1
 225 1341 l 1,8,-1
 762 1341 l 1,9,-1
 754 1288 l 1,10,-1
 576 1262 l 1,11,-1
 369 80 l 1,0,-1
EndSplineSet
EndChar

StartChar: J
Encoding: 74 74 45
Width: 909
GlyphClass: 2
Flags: W
AnchorPoint: "bottom" 354 -26 basechar 0
AnchorPoint: "top" 726 1340 basechar 0
LayerCount: 2
Fore
SplineSet
631 1262 m 1,0,-1
 464 1288 l 1,1,-1
 473 1341 l 1,2,-1
 989 1341 l 1,3,-1
 980 1288 l 1,4,-1
 823 1262 l 1,5,-1
 677 432 l 2,6,7
 597 -20 597 -20 267 -20 c 0,8,9
 198 -20 198 -20 135 -6.5 c 128,-1,10
 72 7 72 7 31 26 c 1,11,-1
 73 258 l 1,12,-1
 138 258 l 1,13,-1
 143 119 l 1,14,15
 156 97 156 97 197.5 81.5 c 128,-1,16
 239 66 239 66 281 66 c 0,17,18
 421 66 421 66 454 256 c 2,19,-1
 631 1262 l 1,0,-1
EndSplineSet
EndChar

StartChar: K
Encoding: 75 75 46
Width: 1366
GlyphClass: 2
Flags: W
AnchorPoint: "bottom" 608 2 basechar 0
AnchorPoint: "top" 788 1339 basechar 0
LayerCount: 2
Fore
SplineSet
1454 1341 m 1,0,-1
 1444 1288 l 1,1,-1
 1288 1262 l 1,2,-1
 732 807 l 1,3,-1
 1179 80 l 1,4,-1
 1313 53 l 1,5,-1
 1303 0 l 1,6,-1
 996 0 l 1,7,-1
 585 686 l 1,8,-1
 442 569 l 1,9,-1
 354 80 l 1,10,-1
 542 53 l 1,11,-1
 532 0 l 1,12,-1
 -24 0 l 1,13,-1
 -14 53 l 1,14,-1
 161 80 l 1,15,-1
 370 1262 l 1,16,-1
 202 1288 l 1,17,-1
 212 1341 l 1,18,-1
 749 1341 l 1,19,-1
 739 1288 l 1,20,-1
 563 1262 l 1,21,-1
 465 704 l 1,22,-1
 1143 1262 l 1,23,-1
 1024 1288 l 1,24,-1
 1034 1341 l 1,25,-1
 1454 1341 l 1,0,-1
EndSplineSet
EndChar

StartChar: L
Encoding: 76 76 47
Width: 1139
GlyphClass: 2
Flags: W
AnchorPoint: "bottom" 497 -1 basechar 0
AnchorPoint: "top" 496 1340 basechar 0
LayerCount: 2
Fore
SplineSet
355 86 m 1,0,-1
 569 86 l 2,1,2
 759 86 759 86 866 106 c 1,3,-1
 977 385 l 1,4,-1
 1042 385 l 1,5,-1
 956 0 l 1,6,-1
 -24 0 l 1,7,-1
 -14 53 l 1,8,-1
 161 80 l 1,9,-1
 370 1262 l 1,10,-1
 202 1288 l 1,11,-1
 212 1341 l 1,12,-1
 784 1341 l 1,13,-1
 774 1288 l 1,14,-1
 563 1262 l 1,15,-1
 355 86 l 1,0,-1
EndSplineSet
EndChar

StartChar: M
Encoding: 77 77 48
Width: 1706
GlyphClass: 2
Flags: W
AnchorPoint: "bottom" 703 1 basechar 0
AnchorPoint: "top" 974 1344 basechar 0
LayerCount: 2
Fore
SplineSet
721 0 m 1,0,-1
 686 0 l 1,1,-1
 455 1153 l 1,2,-1
 266 80 l 1,3,-1
 442 53 l 1,4,-1
 432 0 l 1,5,-1
 -24 0 l 1,6,-1
 -14 53 l 1,7,-1
 161 80 l 1,8,-1
 370 1262 l 1,9,-1
 202 1288 l 1,10,-1
 212 1341 l 1,11,-1
 594 1341 l 1,12,-1
 800 318 l 1,13,-1
 1398 1341 l 1,14,-1
 1800 1341 l 1,15,-1
 1790 1288 l 1,16,-1
 1614 1262 l 1,17,-1
 1405 80 l 1,18,-1
 1573 53 l 1,19,-1
 1563 0 l 1,20,-1
 1019 0 l 1,21,-1
 1029 53 l 1,22,-1
 1213 80 l 1,23,-1
 1402 1153 l 1,24,-1
 721 0 l 1,0,-1
EndSplineSet
EndChar

StartChar: N
Encoding: 78 78 49
Width: 1366
GlyphClass: 2
Flags: W
AnchorPoint: "bottom" 578 2 basechar 0
AnchorPoint: "top" 785 1342 basechar 0
LayerCount: 2
Fore
SplineSet
1170 1262 m 1,0,-1
 994 1288 l 1,1,-1
 1004 1341 l 1,2,-1
 1461 1341 l 1,3,-1
 1451 1288 l 1,4,-1
 1275 1262 l 1,5,-1
 1052 0 l 1,6,-1
 955 0 l 1,7,-1
 474 1206 l 1,8,-1
 275 80 l 1,9,-1
 451 53 l 1,10,-1
 441 0 l 1,11,-1
 -15 0 l 1,12,-1
 -5 53 l 1,13,-1
 170 80 l 1,14,-1
 379 1262 l 1,15,-1
 211 1288 l 1,16,-1
 221 1341 l 1,17,-1
 609 1341 l 1,18,-1
 1008 336 l 1,19,-1
 1170 1262 l 1,0,-1
EndSplineSet
EndChar

StartChar: O
Encoding: 79 79 50
Width: 1479
GlyphClass: 2
Flags: W
AnchorPoint: "bottom" 639 -22 basechar 0
AnchorPoint: "top" 889 1356 basechar 0
LayerCount: 2
Fore
SplineSet
1231 832 m 0,0,1
 1231 1032 1231 1032 1128.5 1154 c 128,-1,2
 1026 1276 1026 1276 858 1276 c 0,3,4
 709 1276 709 1276 584.5 1174.5 c 128,-1,5
 460 1073 460 1073 381.5 884 c 128,-1,6
 303 695 303 695 303 503 c 0,7,8
 303 305 303 305 403.5 185 c 128,-1,9
 504 65 504 65 670 65 c 0,10,11
 819 65 819 65 945.5 165.5 c 128,-1,12
 1072 266 1072 266 1151.5 455 c 128,-1,13
 1231 644 1231 644 1231 832 c 0,0,1
663 -20 m 0,14,15
 502 -20 502 -20 373.5 47.5 c 128,-1,16
 245 115 245 115 174 238 c 128,-1,17
 103 361 103 361 103 514 c 0,18,19
 103 755 103 755 203 950.5 c 128,-1,20
 303 1146 303 1146 476 1251 c 128,-1,21
 649 1356 649 1356 871 1356 c 0,22,23
 1032 1356 1032 1356 1160.5 1288.5 c 128,-1,24
 1289 1221 1289 1221 1360 1098.5 c 128,-1,25
 1431 976 1431 976 1431 822 c 0,26,27
 1431 585 1431 585 1330.5 386 c 128,-1,28
 1230 187 1230 187 1057.5 83.5 c 128,-1,29
 885 -20 885 -20 663 -20 c 0,14,15
EndSplineSet
EndChar

StartChar: P
Encoding: 80 80 51
Width: 1251
GlyphClass: 2
Flags: W
AnchorPoint: "bottom" 505 2 basechar 0
AnchorPoint: "top" 744 1344 basechar 0
LayerCount: 2
Fore
SplineSet
612 616 m 2,0,1
 1000 616 1000 616 1000 973 c 0,2,3
 1000 1116 1000 1116 927.5 1183.5 c 128,-1,4
 855 1251 855 1251 709 1251 c 2,5,-1
 561 1251 l 1,6,-1
 449 616 l 1,7,-1
 612 616 l 2,0,1
433 526 m 1,8,-1
 354 80 l 1,9,-1
 573 53 l 1,10,-1
 563 0 l 1,11,-1
 -11 0 l 1,12,-1
 -1 53 l 1,13,-1
 161 80 l 1,14,-1
 370 1262 l 1,15,-1
 202 1288 l 1,16,-1
 212 1341 l 1,17,-1
 749 1341 l 2,18,19
 965 1341 965 1341 1082 1251.5 c 128,-1,20
 1199 1162 1199 1162 1199 986 c 0,21,22
 1199 762 1199 762 1052.5 644 c 128,-1,23
 906 526 906 526 634 526 c 2,24,-1
 433 526 l 1,8,-1
EndSplineSet
EndChar

StartChar: Q
Encoding: 81 81 52
Width: 1479
GlyphClass: 2
Flags: W
AnchorPoint: "bottom" 862 -324 basechar 0
AnchorPoint: "top" 884 1359 basechar 0
LayerCount: 2
Fore
SplineSet
113 514 m 0,0,1
 113 755 113 755 213 950.5 c 128,-1,2
 313 1146 313 1146 486 1251 c 128,-1,3
 659 1356 659 1356 881 1356 c 0,4,5
 1042 1356 1042 1356 1170.5 1288.5 c 128,-1,6
 1299 1221 1299 1221 1370 1098.5 c 128,-1,7
 1441 976 1441 976 1441 822 c 0,8,9
 1441 624 1441 624 1370 449 c 128,-1,10
 1299 274 1299 274 1171 159 c 128,-1,11
 1043 44 1043 44 872 3 c 1,12,13
 957 -122 957 -122 995 -160 c 128,-1,14
 1033 -198 1033 -198 1073.5 -215.5 c 128,-1,15
 1114 -233 1114 -233 1164 -233 c 1,16,-1
 1247 -229 l 1,17,-1
 1235 -295 l 1,18,19
 1210 -305 1210 -305 1144.5 -318.5 c 128,-1,20
 1079 -332 1079 -332 1032 -332 c 0,21,22
 930 -332 930 -332 861 -279.5 c 128,-1,23
 792 -227 792 -227 695 -68 c 1,24,-1
 665 -20 l 1,25,26
 505 -19 505 -19 378.5 49.5 c 128,-1,27
 252 118 252 118 182.5 239.5 c 128,-1,28
 113 361 113 361 113 514 c 0,0,1
1241 832 m 0,29,30
 1241 1032 1241 1032 1138.5 1154 c 128,-1,31
 1036 1276 1036 1276 868 1276 c 0,32,33
 719 1276 719 1276 594.5 1174.5 c 128,-1,34
 470 1073 470 1073 391.5 884 c 128,-1,35
 313 695 313 695 313 503 c 0,36,37
 313 305 313 305 413.5 185 c 128,-1,38
 514 65 514 65 680 65 c 0,39,40
 829 65 829 65 955.5 165.5 c 128,-1,41
 1082 266 1082 266 1161.5 455 c 128,-1,42
 1241 644 1241 644 1241 832 c 0,29,30
EndSplineSet
EndChar

StartChar: R
Encoding: 82 82 53
Width: 1251
GlyphClass: 2
Flags: W
AnchorPoint: "bottom" 587 2 basechar 0
AnchorPoint: "top" 718 1341 basechar 0
LayerCount: 2
Fore
SplineSet
444 588 m 1,0,-1
 354 80 l 1,1,-1
 533 53 l 1,2,-1
 523 0 l 1,3,-1
 -11 0 l 1,4,-1
 -1 53 l 1,5,-1
 161 80 l 1,6,-1
 370 1262 l 1,7,-1
 202 1288 l 1,8,-1
 212 1341 l 1,9,-1
 744 1341 l 2,10,11
 963 1341 963 1341 1078 1258 c 128,-1,12
 1193 1175 1193 1175 1193 1016 c 0,13,14
 1193 700 1193 700 843 616 c 1,15,-1
 1070 80 l 1,16,-1
 1217 53 l 1,17,-1
 1207 0 l 1,18,-1
 899 0 l 1,19,-1
 653 588 l 1,20,-1
 444 588 l 1,0,-1
616 678 m 2,21,22
 798 678 798 678 896.5 764.5 c 128,-1,23
 995 851 995 851 995 1010 c 0,24,25
 995 1251 995 1251 709 1251 c 2,26,-1
 561 1251 l 1,27,-1
 460 678 l 1,28,-1
 616 678 l 2,21,22
EndSplineSet
EndChar

StartChar: S
Encoding: 83 83 54
Width: 1024
GlyphClass: 2
Flags: W
AnchorPoint: "bottom" 422 -18 basechar 0
AnchorPoint: "top" 668 1357 basechar 0
LayerCount: 2
Fore
SplineSet
76 371 m 1,0,-1
 141 371 l 1,1,-1
 142 180 l 1,2,3
 175 130 175 130 254.5 95.5 c 128,-1,4
 334 61 334 61 423 61 c 0,5,6
 587 61 587 61 675.5 138.5 c 128,-1,7
 764 216 764 216 764 355 c 0,8,9
 764 409 764 409 740 449 c 128,-1,10
 716 489 716 489 676 521 c 128,-1,11
 636 553 636 553 585.5 580 c 128,-1,12
 535 607 535 607 482 634.5 c 128,-1,13
 429 662 429 662 378.5 693.5 c 128,-1,14
 328 725 328 725 288 766.5 c 128,-1,15
 248 808 248 808 224 862 c 128,-1,16
 200 916 200 916 200 989 c 0,17,18
 200 1167 200 1167 321 1261.5 c 128,-1,19
 442 1356 442 1356 667 1356 c 0,20,21
 839 1356 839 1356 991 1318 c 1,22,-1
 942 1039 l 1,23,-1
 877 1039 l 1,24,-1
 872 1210 l 1,25,26
 840 1236 840 1236 783 1254 c 128,-1,27
 726 1272 726 1272 652 1272 c 0,28,29
 519 1272 519 1272 447 1207 c 128,-1,30
 375 1142 375 1142 375 1025 c 0,31,32
 375 962 375 962 420 910 c 128,-1,33
 465 858 465 858 554 813 c 1,34,35
 690 742 690 742 750 705 c 128,-1,36
 810 668 810 668 850.5 626 c 128,-1,37
 891 584 891 584 915.5 530 c 128,-1,38
 940 476 940 476 940 406 c 0,39,40
 940 200 940 200 805.5 90 c 128,-1,41
 671 -20 671 -20 417 -20 c 0,42,43
 291 -20 291 -20 190.5 5.5 c 128,-1,44
 90 31 90 31 24 73 c 1,45,-1
 76 371 l 1,0,-1
EndSplineSet
EndChar

StartChar: T
Encoding: 84 84 55
Width: 1139
GlyphClass: 2
Flags: W
AnchorPoint: "bottom" 500 -5 basechar 0
AnchorPoint: "top" 715 1341 basechar 0
LayerCount: 2
Fore
SplineSet
176 0 m 1,0,-1
 186 53 l 1,1,-1
 403 80 l 1,2,-1
 610 1255 l 1,3,-1
 559 1255 l 2,4,5
 360 1255 360 1255 265 1235 c 1,6,-1
 201 1026 l 1,7,-1
 134 1026 l 1,8,-1
 190 1341 l 1,9,-1
 1260 1341 l 1,10,-1
 1204 1026 l 1,11,-1
 1136 1026 l 1,12,-1
 1146 1235 l 1,13,14
 1056 1253 1056 1253 852 1253 c 2,15,-1
 803 1253 l 1,16,-1
 596 80 l 1,17,-1
 805 53 l 1,18,-1
 795 0 l 1,19,-1
 176 0 l 1,0,-1
EndSplineSet
EndChar

StartChar: U
Encoding: 85 85 56
Width: 1479
GlyphClass: 2
Flags: W
AnchorPoint: "bottom" 651 -25 basechar 0
AnchorPoint: "top" 881 1344 basechar 0
LayerCount: 2
Fore
SplineSet
1299 1262 m 1,0,-1
 1124 1288 l 1,1,-1
 1133 1341 l 1,2,-1
 1590 1341 l 1,3,-1
 1581 1288 l 1,4,-1
 1404 1262 l 1,5,-1
 1263 461 l 2,6,7
 1223 232 1223 232 1069 106 c 128,-1,8
 915 -20 915 -20 679 -20 c 0,9,10
 446 -20 446 -20 324 74.5 c 128,-1,11
 202 169 202 169 202 348 c 0,12,13
 202 403 202 403 212 453 c 1,14,-1
 355 1262 l 1,15,-1
 188 1288 l 1,16,-1
 197 1341 l 1,17,-1
 733 1341 l 1,18,-1
 724 1288 l 1,19,-1
 547 1262 l 1,20,-1
 406 457 l 2,21,22
 396 403 396 403 396 355 c 0,23,24
 396 92 396 92 696 92 c 0,25,26
 887 92 887 92 1007.5 187 c 128,-1,27
 1128 282 1128 282 1157 453 c 2,28,-1
 1299 1262 l 1,0,-1
EndSplineSet
EndChar

StartChar: V
Encoding: 86 86 57
Width: 1251
GlyphClass: 2
Flags: W
AnchorPoint: "bottom" 558 -30 basechar 0
AnchorPoint: "top" 794 1341 basechar 0
LayerCount: 2
Fore
SplineSet
1448 1341 m 1,0,-1
 1438 1288 l 1,1,-1
 1307 1262 l 1,2,-1
 580 -31 l 1,3,-1
 529 -31 l 1,4,-1
 234 1262 l 1,5,-1
 107 1288 l 1,6,-1
 117 1341 l 1,7,-1
 610 1341 l 1,8,-1
 600 1288 l 1,9,-1
 431 1262 l 1,10,-1
 649 283 l 1,11,-1
 1186 1262 l 1,12,-1
 1034 1288 l 1,13,-1
 1045 1341 l 1,14,-1
 1448 1341 l 1,0,-1
EndSplineSet
EndChar

StartChar: W
Encoding: 87 87 58
Width: 1706
GlyphClass: 2
Flags: W
AnchorPoint: "bottom" 776 -42 basechar 0
AnchorPoint: "top" 1037 1341 basechar 0
LayerCount: 2
Fore
SplineSet
1135 -31 m 1,0,-1
 1072 -31 l 1,1,-1
 926 867 l 1,2,-1
 508 -31 l 1,3,-1
 443 -31 l 1,4,-1
 248 1262 l 1,5,-1
 135 1288 l 1,6,-1
 144 1341 l 1,7,-1
 611 1341 l 1,8,-1
 602 1288 l 1,9,-1
 441 1262 l 1,10,-1
 581 326 l 1,11,-1
 1007 1247 l 1,12,-1
 1053 1247 l 1,13,-1
 1204 324 l 1,14,-1
 1623 1262 l 1,15,-1
 1458 1288 l 1,16,-1
 1467 1341 l 1,17,-1
 1861 1341 l 1,18,-1
 1852 1288 l 1,19,-1
 1731 1262 l 1,20,-1
 1135 -31 l 1,0,-1
EndSplineSet
EndChar

StartChar: X
Encoding: 88 88 59
Width: 1251
GlyphClass: 2
Flags: W
AnchorPoint: "bottom" 508 -3 basechar 0
AnchorPoint: "top" 804 1335 basechar 0
LayerCount: 2
Fore
SplineSet
751 753 m 1,0,-1
 990 80 l 1,1,-1
 1138 53 l 1,2,-1
 1128 0 l 1,3,-1
 615 0 l 1,4,-1
 625 53 l 1,5,-1
 789 80 l 1,6,-1
 614 587 l 1,7,-1
 217 80 l 1,8,-1
 379 53 l 1,9,-1
 369 0 l 1,10,-1
 -68 0 l 1,11,-1
 -58 53 l 1,12,-1
 93 80 l 1,13,-1
 573 686 l 1,14,-1
 369 1262 l 1,15,-1
 222 1288 l 1,16,-1
 232 1341 l 1,17,-1
 725 1341 l 1,18,-1
 715 1288 l 1,19,-1
 571 1262 l 1,20,-1
 711 853 l 1,21,-1
 1030 1262 l 1,22,-1
 898 1288 l 1,23,-1
 908 1341 l 1,24,-1
 1317 1341 l 1,25,-1
 1307 1288 l 1,26,-1
 1155 1262 l 1,27,-1
 751 753 l 1,0,-1
EndSplineSet
EndChar

StartChar: Y
Encoding: 89 89 60
Width: 1139
GlyphClass: 2
Flags: W
AnchorPoint: "bottom" 505 4 basechar 0
AnchorPoint: "top" 749 1338 basechar 0
LayerCount: 2
Fore
SplineSet
609 80 m 1,0,-1
 818 53 l 1,1,-1
 808 0 l 1,2,-1
 189 0 l 1,3,-1
 199 53 l 1,4,-1
 416 80 l 1,5,-1
 494 522 l 1,6,-1
 264 1262 l 1,7,-1
 117 1288 l 1,8,-1
 127 1341 l 1,9,-1
 674 1341 l 1,10,-1
 664 1288 l 1,11,-1
 470 1262 l 1,12,-1
 658 635 l 1,13,-1
 1051 1262 l 1,14,-1
 875 1288 l 1,15,-1
 885 1341 l 1,16,-1
 1321 1341 l 1,17,-1
 1311 1288 l 1,18,-1
 1160 1262 l 1,19,-1
 688 528 l 1,20,-1
 609 80 l 1,0,-1
EndSplineSet
EndChar

StartChar: Z
Encoding: 90 90 61
Width: 1139
GlyphClass: 2
Flags: W
AnchorPoint: "bottom" 509 3 basechar 0
AnchorPoint: "top" 721 1337 basechar 0
LayerCount: 2
Fore
SplineSet
907 1255 m 1,0,-1
 707 1255 l 2,1,2
 459 1255 459 1255 364 1235 c 1,3,-1
 296 1024 l 1,4,-1
 227 1024 l 1,5,-1
 283 1341 l 1,6,-1
 1156 1341 l 1,7,-1
 1140 1255 l 1,8,-1
 267 84 l 1,9,-1
 507 84 l 2,10,11
 626 84 626 84 749.5 95.5 c 128,-1,12
 873 107 873 107 917 117 c 1,13,-1
 1021 373 l 1,14,-1
 1091 373 l 1,15,-1
 998 0 l 1,16,-1
 25 0 l 1,17,-1
 42 94 l 1,18,-1
 907 1255 l 1,0,-1
EndSplineSet
EndChar

StartChar: bracketleft
Encoding: 91 91 62
Width: 797
GlyphClass: 2
Flags: W
LayerCount: 2
Fore
SplineSet
118 -274 m 1,0,-1
 417 1421 l 1,1,-1
 873 1421 l 1,2,-1
 865 1374 l 1,3,-1
 560 1333 l 1,4,-1
 292 -186 l 1,5,-1
 582 -227 l 1,6,-1
 574 -274 l 1,7,-1
 118 -274 l 1,0,-1
EndSplineSet
Validated: 1
EndChar

StartChar: backslash
Encoding: 92 92 63
Width: 569
GlyphClass: 2
Flags: W
LayerCount: 2
Fore
SplineSet
158 1350 m 1,0,-1
 256 1350 l 1,1,-1
 470 -20 l 1,2,-1
 369 -20 l 1,3,-1
 158 1350 l 1,0,-1
EndSplineSet
Validated: 1
EndChar

StartChar: bracketright
Encoding: 93 93 64
Width: 797
GlyphClass: 2
Flags: W
LayerCount: 2
Fore
SplineSet
-49 -274 m 1,0,-1
 -41 -227 l 1,1,-1
 262 -186 l 1,2,-1
 530 1333 l 1,3,-1
 241 1374 l 1,4,-1
 249 1421 l 1,5,-1
 705 1421 l 1,6,-1
 406 -274 l 1,7,-1
 -49 -274 l 1,0,-1
EndSplineSet
Validated: 1
EndChar

StartChar: asciicircum
Encoding: 94 94 65
Width: 864
GlyphClass: 2
Flags: W
LayerCount: 2
Fore
SplineSet
500 1341 m 1,0,-1
 549 1341 l 1,1,-1
 977 389 l 1,2,-1
 874 389 l 1,3,-1
 524 1198 l 1,4,-1
 174 389 l 1,5,-1
 72 389 l 1,6,-1
 500 1341 l 1,0,-1
EndSplineSet
Validated: 1
EndChar

StartChar: underscore
Encoding: 95 95 66
Width: 1024
GlyphClass: 2
Flags: W
LayerCount: 2
Fore
SplineSet
-16 -264 m 1,0,-1
 -16 -162 l 1,1,-1
 1040 -162 l 1,2,-1
 1040 -264 l 1,3,-1
 -16 -264 l 1,0,-1
EndSplineSet
Validated: 1
EndChar

StartChar: grave
Encoding: 96 96 67
Width: 682
GlyphClass: 2
Flags: W
LayerCount: 2
Fore
SplineSet
610 1118 m 1,0,-1
 303 1386 l 1,1,-1
 309 1423 l 1,2,-1
 512 1423 l 1,3,-1
 670 1151 l 1,4,-1
 665 1118 l 1,5,-1
 610 1118 l 1,0,-1
EndSplineSet
Validated: 1
EndChar

StartChar: a
Encoding: 97 97 68
Width: 1024
GlyphClass: 2
Flags: W
AnchorPoint: "top" 680 962 basechar 0
AnchorPoint: "bottom" 420 -32 basechar 0
LayerCount: 2
Fore
SplineSet
789 70 m 1,0,-1
 902 45 l 1,1,-1
 894 0 l 1,2,-1
 609 0 l 1,3,-1
 638 156 l 1,4,5
 469 -21 469 -21 329 -21 c 0,6,7
 208 -21 208 -21 134.5 68 c 128,-1,8
 61 157 61 157 61 313 c 0,9,10
 61 488 61 488 137.5 640.5 c 128,-1,11
 214 793 214 793 342 878.5 c 128,-1,12
 470 964 470 964 620 964 c 0,13,14
 741 964 741 964 848 922 c 1,15,-1
 893 956 l 1,16,-1
 947 956 l 1,17,-1
 789 70 l 1,0,-1
760 837 m 1,18,19
 721 864 721 864 687 874.5 c 128,-1,20
 653 885 653 885 603 885 c 0,21,22
 503 885 503 885 419.5 809.5 c 128,-1,23
 336 734 336 734 288 606 c 128,-1,24
 240 478 240 478 240 339 c 0,25,26
 240 232 240 232 284 168 c 128,-1,27
 328 104 328 104 404 104 c 0,28,29
 517 104 517 104 651 243 c 1,30,-1
 760 837 l 1,18,19
EndSplineSet
EndChar

StartChar: b
Encoding: 98 98 69
Width: 1024
GlyphClass: 2
Flags: W
AnchorPoint: "bottom" 413 -25 basechar 0
AnchorPoint: "top" 616 1414 basechar 0
LayerCount: 2
Fore
SplineSet
305 1352 m 1,0,-1
 172 1376 l 1,1,-1
 180 1421 l 1,2,-1
 480 1421 l 1,3,-1
 406 980 l 1,4,5
 389 866 389 866 367 787 c 1,6,7
 447 869 447 869 531.5 917 c 128,-1,8
 616 965 616 965 687 965 c 0,9,10
 812 965 812 965 887 875.5 c 128,-1,11
 962 786 962 786 962 631 c 0,12,13
 962 459 962 459 887.5 306.5 c 128,-1,14
 813 154 813 154 682 67 c 128,-1,15
 551 -20 551 -20 396 -20 c 0,16,17
 308 -20 308 -20 223.5 2.5 c 128,-1,18
 139 25 139 25 76 64 c 1,19,-1
 305 1352 l 1,0,-1
248 107 m 1,20,21
 306 59 306 59 409 59 c 0,22,23
 511 59 511 59 597.5 134.5 c 128,-1,24
 684 210 684 210 733.5 337.5 c 128,-1,25
 783 465 783 465 783 605 c 0,26,27
 783 717 783 717 736.5 778.5 c 128,-1,28
 690 840 690 840 612 840 c 0,29,30
 553 840 553 840 484.5 801 c 128,-1,31
 416 762 416 762 354 701 c 1,32,-1
 248 107 l 1,20,21
EndSplineSet
EndChar

StartChar: c
Encoding: 99 99 70
Width: 909
GlyphClass: 2
Flags: W
AnchorPoint: "bottom" 379 -20 basechar 0
AnchorPoint: "top" 600 968 basechar 0
LayerCount: 2
Fore
SplineSet
774 142 m 1,0,1
 693 67 693 67 592 23.5 c 128,-1,2
 491 -20 491 -20 400 -20 c 0,3,4
 239 -20 239 -20 151 73 c 128,-1,5
 63 166 63 166 63 330 c 0,6,7
 63 504 63 504 133 647.5 c 128,-1,8
 203 791 203 791 332.5 878 c 128,-1,9
 462 965 462 965 604 965 c 0,10,11
 675 965 675 965 755 950 c 128,-1,12
 835 935 835 935 887 913 c 1,13,-1
 842 651 l 1,14,-1
 787 651 l 1,15,-1
 771 825 l 1,16,17
 708 888 708 888 603 888 c 0,18,19
 507 888 507 888 423.5 817 c 128,-1,20
 340 746 340 746 290 619 c 128,-1,21
 240 492 240 492 240 340 c 0,22,23
 240 84 240 84 446 84 c 0,24,25
 589 84 589 84 744 184 c 1,26,-1
 774 142 l 1,0,1
EndSplineSet
EndChar

StartChar: d
Encoding: 100 100 71
Width: 1024
GlyphClass: 2
Flags: W
AnchorPoint: "bottom" 407 -31 basechar 0
AnchorPoint: "top" 676 1425 basechar 0
LayerCount: 2
Fore
SplineSet
783 941 m 1,0,1
 787 989 787 989 851 1352 c 1,2,-1
 697 1376 l 1,3,-1
 705 1421 l 1,4,-1
 1029 1421 l 1,5,-1
 789 70 l 1,6,-1
 902 45 l 1,7,-1
 894 0 l 1,8,-1
 609 0 l 1,9,-1
 638 156 l 1,10,11
 469 -21 469 -21 329 -21 c 0,12,13
 206 -21 206 -21 134 71.5 c 128,-1,14
 62 164 62 164 62 317 c 0,15,16
 62 488 62 488 135.5 638.5 c 128,-1,17
 209 789 209 789 337 876.5 c 128,-1,18
 465 964 465 964 618 964 c 0,19,20
 712 964 712 964 783 941 c 1,0,1
760 837 m 1,21,22
 725 860 725 860 688 873 c 128,-1,23
 651 886 651 886 598 886 c 0,24,25
 504 886 504 886 422 812 c 128,-1,26
 340 738 340 738 290 608 c 128,-1,27
 240 478 240 478 240 339 c 0,28,29
 240 232 240 232 284 168 c 128,-1,30
 328 104 328 104 403 104 c 0,31,32
 459 104 459 104 524.5 140.5 c 128,-1,33
 590 177 590 177 651 243 c 1,34,-1
 760 837 l 1,21,22
EndSplineSet
EndChar

StartChar: e
Encoding: 101 101 72
Width: 909
GlyphClass: 2
Flags: W
AnchorPoint: "bottom" 409 -22 basechar 0
AnchorPoint: "top" 609 966 basechar 0
LayerCount: 2
Fore
SplineSet
863 760 m 0,0,1
 863 624 863 624 695 528 c 128,-1,2
 527 432 527 432 244 413 c 1,3,-1
 240 340 l 1,4,5
 240 213 240 213 293.5 148.5 c 128,-1,6
 347 84 347 84 452 84 c 0,7,8
 542 84 542 84 618 114.5 c 128,-1,9
 694 145 694 145 760 184 c 1,10,-1
 789 142 l 1,11,12
 697 64 697 64 594.5 22 c 128,-1,13
 492 -20 492 -20 400 -20 c 0,14,15
 238 -20 238 -20 150.5 70.5 c 128,-1,16
 63 161 63 161 63 330 c 0,17,18
 63 497 63 497 133.5 641.5 c 128,-1,19
 204 786 204 786 329 875.5 c 128,-1,20
 454 965 454 965 591 965 c 0,21,22
 714 965 714 965 788.5 908.5 c 128,-1,23
 863 852 863 852 863 760 c 0,0,1
252 476 m 1,24,25
 450 491 450 491 569 569 c 128,-1,26
 688 647 688 647 688 760 c 0,27,28
 688 816 688 816 657.5 852 c 128,-1,29
 627 888 627 888 569 888 c 0,30,31
 499 888 499 888 433 831 c 128,-1,32
 367 774 367 774 319 678 c 128,-1,33
 271 582 271 582 252 476 c 1,24,25
EndSplineSet
EndChar

StartChar: f
Encoding: 102 102 73
Width: 569
GlyphClass: 2
Flags: W
AnchorPoint: "bottom" 106 -439 basechar 0
AnchorPoint: "top" 587 1436 basechar 0
LayerCount: 2
Fore
SplineSet
189 -436 m 1,0,-1
 23 -436 l 1,1,-1
 248 856 l 1,2,-1
 86 856 l 1,3,-1
 94 905 l 1,4,-1
 264 944 l 1,5,-1
 276 1010 l 2,6,7
 316 1233 316 1233 410.5 1337.5 c 128,-1,8
 505 1442 505 1442 666 1442 c 0,9,10
 743 1442 743 1442 805 1423 c 1,11,-1
 770 1227 l 1,12,-1
 721 1227 l 1,13,-1
 702 1341 l 1,14,15
 673 1362 673 1362 618 1362 c 0,16,17
 557 1362 557 1362 522 1309.5 c 128,-1,18
 487 1257 487 1257 457 1096 c 2,19,-1
 428 940 l 1,20,-1
 637 940 l 1,21,-1
 623 856 l 1,22,-1
 414 856 l 1,23,-1
 189 -436 l 1,0,-1
EndSplineSet
EndChar

StartChar: g
Encoding: 103 103 74
Width: 1024
GlyphClass: 2
Flags: W
AnchorPoint: "bottom" 344 -436 basechar 0
AnchorPoint: "top" 609 965 basechar 0
LayerCount: 2
Fore
SplineSet
418 104 m 0,0,1
 474 104 474 104 542.5 141 c 128,-1,2
 611 178 611 178 676 243 c 1,3,-1
 786 861 l 1,4,5
 762 867 762 867 743 872 c 128,-1,6
 724 877 724 877 705.5 880 c 128,-1,7
 687 883 687 883 666 884.5 c 128,-1,8
 645 886 645 886 618 886 c 0,9,10
 518 886 518 886 432 811 c 128,-1,11
 346 736 346 736 297 609 c 128,-1,12
 248 482 248 482 248 339 c 0,13,14
 248 231 248 231 292.5 167.5 c 128,-1,15
 337 104 337 104 418 104 c 0,0,1
662 160 m 1,16,17
 590 81 590 81 501.5 30 c 128,-1,18
 413 -21 413 -21 342 -21 c 0,19,20
 215 -21 215 -21 142 68.5 c 128,-1,21
 69 158 69 158 69 313 c 0,22,23
 69 488 69 488 145.5 638.5 c 128,-1,24
 222 789 222 789 352.5 876.5 c 128,-1,25
 483 964 483 964 636 964 c 0,26,27
 696 964 696 964 792.5 952.5 c 128,-1,28
 889 941 889 941 964 923 c 1,29,-1
 796 -35 l 2,30,31
 759 -246 759 -246 651.5 -341 c 128,-1,32
 544 -436 544 -436 334 -436 c 0,33,34
 246 -436 246 -436 152 -415.5 c 128,-1,35
 58 -395 58 -395 1 -365 c 1,36,-1
 19 -137 l 1,37,-1
 64 -137 l 1,38,-1
 100 -263 l 1,39,40
 181 -342 181 -342 333 -342 c 0,41,42
 455 -342 455 -342 527 -278.5 c 128,-1,43
 599 -215 599 -215 623 -75 c 2,44,-1
 662 160 l 1,16,17
EndSplineSet
EndChar

StartChar: h
Encoding: 104 104 75
Width: 1024
GlyphClass: 2
Flags: W
AnchorPoint: "bottom" 439 -4 basechar 0
AnchorPoint: "top" 600 1414 basechar 0
LayerCount: 2
Fore
SplineSet
311 1352 m 1,0,-1
 193 1376 l 1,1,-1
 201 1421 l 1,2,-1
 489 1421 l 1,3,-1
 383 825 l 1,4,-1
 367 749 l 1,5,6
 447 854 447 854 538.5 909.5 c 128,-1,7
 630 965 630 965 718 965 c 0,8,9
 819 965 819 965 870 910.5 c 128,-1,10
 921 856 921 856 921 754 c 0,11,12
 921 740 921 740 917 711 c 128,-1,13
 913 682 913 682 808 69 c 1,14,-1
 939 45 l 1,15,-1
 931 0 l 1,16,-1
 630 0 l 1,17,-1
 732 582 l 2,18,19
 755 709 755 709 755 748 c 0,20,21
 755 793 755 793 731 821 c 128,-1,22
 707 849 707 849 655 849 c 0,23,24
 580 849 580 849 493 786.5 c 128,-1,25
 406 724 406 724 350 633 c 1,26,-1
 239 0 l 1,27,-1
 74 0 l 1,28,-1
 311 1352 l 1,0,-1
EndSplineSet
EndChar

StartChar: i
Encoding: 105 105 76
Width: 569
GlyphClass: 2
Flags: W
AnchorPoint: "bottom" 268 -3 basechar 0
AnchorPoint: "top" 406 1360 basechar 0
LayerCount: 2
Fore
SplineSet
292 70 m 1,0,-1
 449 45 l 1,1,-1
 441 0 l 1,2,-1
 114 0 l 1,3,-1
 267 870 l 1,4,-1
 138 895 l 1,5,-1
 146 940 l 1,6,-1
 445 940 l 1,7,-1
 292 70 l 1,0,-1
507 1247 m 0,8,9
 507 1203 507 1203 475 1171 c 128,-1,10
 443 1139 443 1139 398 1139 c 0,11,12
 354 1139 354 1139 322 1171 c 128,-1,13
 290 1203 290 1203 290 1247 c 0,14,15
 290 1292 290 1292 322 1324 c 128,-1,16
 354 1356 354 1356 398 1356 c 0,17,18
 443 1356 443 1356 475 1324 c 128,-1,19
 507 1292 507 1292 507 1247 c 0,8,9
EndSplineSet
EndChar

StartChar: j
Encoding: 106 106 77
Width: 569
GlyphClass: 2
Flags: W
AnchorPoint: "bottom" 23 -440 basechar 0
AnchorPoint: "top" 423 1351 basechar 0
LayerCount: 2
Fore
SplineSet
-59 -436 m 0,0,1
 -140 -436 -140 -436 -219 -406 c 1,2,-1
 -186 -219 l 1,3,-1
 -139 -219 l 1,4,-1
 -124 -329 l 1,5,6
 -97 -356 -97 -356 -53 -356 c 0,7,8
 12 -356 12 -356 49.5 -292 c 128,-1,9
 87 -228 87 -228 111 -90 c 2,10,-1
 281 870 l 1,11,-1
 144 895 l 1,12,-1
 152 940 l 1,13,-1
 459 940 l 1,14,-1
 285 -39 l 2,15,16
 249 -241 249 -241 164.5 -338.5 c 128,-1,17
 80 -436 80 -436 -59 -436 c 0,0,1
519 1247 m 0,18,19
 519 1203 519 1203 487 1171 c 128,-1,20
 455 1139 455 1139 410 1139 c 0,21,22
 366 1139 366 1139 334 1171 c 128,-1,23
 302 1203 302 1203 302 1247 c 0,24,25
 302 1292 302 1292 334 1324 c 128,-1,26
 366 1356 366 1356 410 1356 c 0,27,28
 455 1356 455 1356 487 1324 c 128,-1,29
 519 1292 519 1292 519 1247 c 0,18,19
EndSplineSet
EndChar

StartChar: k
Encoding: 107 107 78
Width: 909
GlyphClass: 2
Flags: W
AnchorPoint: "bottom" 426 -2 basechar 0
AnchorPoint: "top" 538 1410 basechar 0
LayerCount: 2
Fore
SplineSet
299 1352 m 1,0,-1
 164 1376 l 1,1,-1
 172 1421 l 1,2,-1
 477 1421 l 1,3,-1
 305 453 l 1,4,-1
 733 868 l 1,5,-1
 639 895 l 1,6,-1
 647 940 l 1,7,-1
 939 940 l 1,8,-1
 931 895 l 1,9,-1
 850 872 l 1,10,-1
 556 591 l 1,11,-1
 799 68 l 1,12,-1
 897 45 l 1,13,-1
 889 0 l 1,14,-1
 653 0 l 1,15,-1
 435 479 l 1,16,-1
 287 340 l 1,17,-1
 225 0 l 1,18,-1
 59 0 l 1,19,-1
 299 1352 l 1,0,-1
EndSplineSet
EndChar

StartChar: l
Encoding: 108 108 79
Width: 569
GlyphClass: 2
Flags: W
AnchorPoint: "bottom" 268 2 basechar 0
AnchorPoint: "top" 406 1425 basechar 0
LayerCount: 2
Fore
SplineSet
287 70 m 1,0,-1
 444 45 l 1,1,-1
 436 0 l 1,2,-1
 109 0 l 1,3,-1
 346 1352 l 1,4,-1
 217 1376 l 1,5,-1
 225 1421 l 1,6,-1
 524 1421 l 1,7,-1
 287 70 l 1,0,-1
EndSplineSet
EndChar

StartChar: m
Encoding: 109 109 80
Width: 1479
GlyphClass: 2
Flags: W
AnchorPoint: "bottom" 665 -4 basechar 0
AnchorPoint: "top" 805 964 basechar 0
LayerCount: 2
Fore
SplineSet
873 746 m 1,0,1
 941 843 941 843 1027 904 c 128,-1,2
 1113 965 1113 965 1192 965 c 0,3,4
 1276 965 1276 965 1324.5 911.5 c 128,-1,5
 1373 858 1373 858 1373 757 c 0,6,7
 1373 735 1373 735 1368.5 699.5 c 128,-1,8
 1364 664 1364 664 1262 70 c 1,9,-1
 1393 45 l 1,10,-1
 1384 0 l 1,11,-1
 1083 0 l 1,12,-1
 1186 582 l 1,13,14
 1209 703 1209 703 1209 748 c 256,15,16
 1209 793 1209 793 1188 820.5 c 128,-1,17
 1167 848 1167 848 1122 848 c 0,18,19
 1078 848 1078 848 1017 806 c 128,-1,20
 956 764 956 764 906.5 698.5 c 128,-1,21
 857 633 857 633 847 576 c 2,22,-1
 748 0 l 1,23,-1
 582 0 l 1,24,-1
 684 582 l 1,25,26
 709 713 709 713 709 748 c 0,27,28
 709 793 709 793 687 820.5 c 128,-1,29
 665 848 665 848 618 848 c 0,30,31
 574 848 574 848 510 803.5 c 128,-1,32
 446 759 446 759 397 695.5 c 128,-1,33
 348 632 348 632 339 576 c 2,34,-1
 240 0 l 1,35,-1
 74 0 l 1,36,-1
 227 870 l 1,37,-1
 109 895 l 1,38,-1
 117 940 l 1,39,-1
 395 940 l 1,40,-1
 367 746 l 1,41,42
 437 845 437 845 524 905 c 128,-1,43
 611 965 611 965 688 965 c 0,44,45
 776 965 776 965 824.5 909.5 c 128,-1,46
 873 854 873 854 873 746 c 1,0,1
EndSplineSet
EndChar

StartChar: n
Encoding: 110 110 81
Width: 1024
GlyphClass: 2
Flags: W
AnchorPoint: "bottom" 443 1 basechar 0
AnchorPoint: "top" 580 953 basechar 0
LayerCount: 2
Fore
SplineSet
755 748 m 0,0,1
 755 793 755 793 731 821 c 128,-1,2
 707 849 707 849 655 849 c 0,3,4
 581 849 581 849 493.5 786 c 128,-1,5
 406 723 406 723 349 630 c 1,6,-1
 239 0 l 1,7,-1
 73 0 l 1,8,-1
 226 871 l 1,9,-1
 108 896 l 1,10,-1
 116 941 l 1,11,-1
 394 941 l 1,12,-1
 367 749 l 1,13,14
 451 857 451 857 541 911 c 128,-1,15
 631 965 631 965 718 965 c 0,16,17
 819 965 819 965 870 910.5 c 128,-1,18
 921 856 921 856 921 754 c 0,19,20
 921 740 921 740 917 711 c 128,-1,21
 913 682 913 682 808 69 c 1,22,-1
 939 45 l 1,23,-1
 931 0 l 1,24,-1
 630 0 l 1,25,-1
 732 582 l 2,26,27
 755 709 755 709 755 748 c 0,0,1
EndSplineSet
EndChar

StartChar: o
Encoding: 111 111 82
Width: 1024
GlyphClass: 2
Flags: W
AnchorPoint: "bottom" 429 -25 basechar 0
AnchorPoint: "top" 596 968 basechar 0
LayerCount: 2
Fore
SplineSet
237 340 m 0,0,1
 237 205 237 205 289.5 133.5 c 128,-1,2
 342 62 342 62 436 62 c 0,3,4
 527 62 527 62 609.5 135 c 128,-1,5
 692 208 692 208 740 334.5 c 128,-1,6
 788 461 788 461 788 606 c 0,7,8
 788 744 788 744 735.5 815.5 c 128,-1,9
 683 887 683 887 585 887 c 0,10,11
 494 887 494 887 412.5 814 c 128,-1,12
 331 741 331 741 284 614.5 c 128,-1,13
 237 488 237 488 237 340 c 0,0,1
427 -20 m 0,14,15
 261 -20 261 -20 161 86.5 c 128,-1,16
 61 193 61 193 61 374 c 0,17,18
 61 535 61 535 130 672 c 128,-1,19
 199 809 199 809 321.5 887 c 128,-1,20
 444 965 444 965 597 965 c 0,21,22
 763 965 763 965 863 858.5 c 128,-1,23
 963 752 963 752 963 571 c 0,24,25
 963 410 963 410 894 273 c 128,-1,26
 825 136 825 136 702.5 58 c 128,-1,27
 580 -20 580 -20 427 -20 c 0,14,15
EndSplineSet
EndChar

StartChar: p
Encoding: 112 112 83
Width: 1024
GlyphClass: 2
Flags: W
AnchorPoint: "bottom" 295 -439 basechar 0
AnchorPoint: "top" 523 961 basechar 0
LayerCount: 2
Fore
SplineSet
233 2 m 1,0,-1
 222 -88 l 1,1,-1
 174 -365 l 1,2,-1
 334 -389 l 1,3,-1
 326 -436 l 1,4,-1
 -120 -436 l 1,5,-1
 -112 -389 l 1,6,-1
 9 -365 l 1,7,-1
 228 870 l 1,8,-1
 125 895 l 1,9,-1
 133 940 l 1,10,-1
 398 940 l 1,11,-1
 379 788 l 1,12,13
 554 965 554 965 694 965 c 0,14,15
 815 965 815 965 888.5 876 c 128,-1,16
 962 787 962 787 962 631 c 0,17,18
 962 455 962 455 887 303.5 c 128,-1,19
 812 152 812 152 683 66 c 128,-1,20
 554 -20 554 -20 403 -20 c 0,21,22
 357 -20 357 -20 307.5 -13.5 c 128,-1,23
 258 -7 258 -7 233 2 c 1,0,-1
257 107 m 1,24,25
 319 59 319 59 425 59 c 0,26,27
 524 59 524 59 604.5 132 c 128,-1,28
 685 205 685 205 734 336.5 c 128,-1,29
 783 468 783 468 783 605 c 0,30,31
 783 716 783 716 738.5 778 c 128,-1,32
 694 840 694 840 619 840 c 0,33,34
 566 840 566 840 494 801 c 128,-1,35
 422 762 422 762 366 701 c 1,36,-1
 257 107 l 1,24,25
EndSplineSet
EndChar

StartChar: q
Encoding: 113 113 84
Width: 1024
GlyphClass: 2
Flags: W
AnchorPoint: "bottom" 451 -431 basechar 0
AnchorPoint: "top" 608 970 basechar 0
LayerCount: 2
Fore
SplineSet
419 107 m 0,0,1
 491 107 491 107 560.5 127 c 128,-1,2
 630 147 630 147 677 178 c 1,3,-1
 798 861 l 1,4,5
 696 888 696 888 594 888 c 0,6,7
 495 888 495 888 414.5 815.5 c 128,-1,8
 334 743 334 743 288.5 615.5 c 128,-1,9
 243 488 243 488 243 343 c 0,10,11
 243 227 243 227 288.5 167 c 128,-1,12
 334 107 334 107 419 107 c 0,0,1
671 107 m 1,13,14
 594 49 594 49 509 14.5 c 128,-1,15
 424 -20 424 -20 350 -20 c 0,16,17
 213 -20 213 -20 140.5 65 c 128,-1,18
 68 150 68 150 68 318 c 0,19,20
 68 501 68 501 140 650.5 c 128,-1,21
 212 800 212 800 342.5 882.5 c 128,-1,22
 473 965 473 965 638 965 c 0,23,24
 708 965 708 965 810.5 951.5 c 128,-1,25
 913 938 913 938 976 923 c 1,26,-1
 743 -365 l 1,27,-1
 864 -389 l 1,28,-1
 856 -436 l 1,29,-1
 565 -436 l 1,30,-1
 634 -55 l 2,31,32
 650 32 650 32 671 107 c 1,13,14
EndSplineSet
EndChar

StartChar: r
Encoding: 114 114 85
Width: 797
GlyphClass: 2
Flags: W
AnchorPoint: "bottom" 176 1 basechar 0
AnchorPoint: "top" 511 963 basechar 0
LayerCount: 2
Fore
SplineSet
724 965 m 0,0,1
 774 965 774 965 803 957 c 1,2,-1
 759 711 l 1,3,-1
 716 711 l 1,4,-1
 678 838 l 1,5,6
 598 838 598 838 512.5 777 c 128,-1,7
 427 716 427 716 356 616 c 1,8,-1
 249 0 l 1,9,-1
 83 0 l 1,10,-1
 236 870 l 1,11,-1
 118 895 l 1,12,-1
 126 940 l 1,13,-1
 403 940 l 1,14,-1
 372 728 l 1,15,16
 447 841 447 841 539.5 903 c 128,-1,17
 632 965 632 965 724 965 c 0,0,1
EndSplineSet
EndChar

StartChar: s
Encoding: 115 115 86
Width: 797
GlyphClass: 2
Flags: W
AnchorPoint: "bottom" 328 -23 basechar 0
AnchorPoint: "top" 468 969 basechar 0
LayerCount: 2
Fore
SplineSet
692 276 m 0,0,1
 692 125 692 125 596 52.5 c 128,-1,2
 500 -20 500 -20 305 -20 c 0,3,4
 167 -20 167 -20 25 42 c 1,5,-1
 66 268 l 1,6,-1
 111 268 l 1,7,-1
 128 131 l 1,8,9
 154 103 154 103 201.5 81 c 128,-1,10
 249 59 249 59 309 59 c 0,11,12
 528 59 528 59 528 238 c 0,13,14
 528 297 528 297 481.5 343 c 128,-1,15
 435 389 435 389 330 440 c 0,16,17
 229 489 229 489 180 548.5 c 128,-1,18
 131 608 131 608 131 688 c 0,19,20
 131 820 131 820 220 892.5 c 128,-1,21
 309 965 309 965 467 965 c 0,22,23
 580 965 580 965 735 930 c 1,24,-1
 698 721 l 1,25,-1
 651 721 l 1,26,-1
 637 829 l 1,27,28
 574 885 574 885 471 885 c 0,29,30
 389 885 389 885 340 847.5 c 128,-1,31
 291 810 291 810 291 731 c 0,32,33
 291 677 291 677 333 636 c 128,-1,34
 375 595 375 595 492 535 c 0,35,36
 596 481 596 481 644 419 c 128,-1,37
 692 357 692 357 692 276 c 0,0,1
EndSplineSet
EndChar

StartChar: t
Encoding: 116 116 87
Width: 569
GlyphClass: 2
Flags: W
AnchorPoint: "bottom" 260 -19 basechar 0
AnchorPoint: "top" 401 1148 basechar 0
LayerCount: 2
Fore
SplineSet
264 174 m 0,0,1
 264 129 264 129 286.5 106.5 c 128,-1,2
 309 84 309 84 344 84 c 0,3,4
 417 84 417 84 496 114 c 1,5,-1
 517 67 l 1,6,7
 394 -20 394 -20 268 -20 c 0,8,9
 189 -20 189 -20 143.5 28 c 128,-1,10
 98 76 98 76 98 162 c 0,11,12
 98 191 98 191 103.5 230.5 c 128,-1,13
 109 270 109 270 213 856 c 1,14,-1
 90 856 l 1,15,-1
 98 901 l 1,16,-1
 231 940 l 1,17,-1
 368 1153 l 1,18,-1
 432 1153 l 1,19,-1
 395 940 l 1,20,-1
 610 940 l 1,21,-1
 594 856 l 1,22,-1
 379 856 l 1,23,-1
 282 307 l 1,24,25
 264 215 264 215 264 174 c 0,0,1
EndSplineSet
EndChar

StartChar: u
Encoding: 117 117 88
Width: 1024
GlyphClass: 2
Flags: W
AnchorPoint: "bottom" 448 -32 basechar 0
AnchorPoint: "top" 590 934 basechar 0
LayerCount: 2
Fore
SplineSet
268 193 m 0,0,1
 268 148 268 148 292 120 c 128,-1,2
 316 92 316 92 368 92 c 0,3,4
 443 92 443 92 530 154.5 c 128,-1,5
 617 217 617 217 673 308 c 1,6,-1
 784 940 l 1,7,-1
 950 940 l 1,8,-1
 797 70 l 1,9,-1
 915 45 l 1,10,-1
 907 0 l 1,11,-1
 629 0 l 1,12,-1
 656 193 l 1,13,14
 573 86 573 86 483 31 c 128,-1,15
 393 -24 393 -24 305 -24 c 0,16,17
 204 -24 204 -24 153 30.5 c 128,-1,18
 102 85 102 85 102 187 c 0,19,20
 102 202 102 202 107.5 240.5 c 128,-1,21
 113 279 113 279 215 871 c 1,22,-1
 104 895 l 1,23,-1
 112 940 l 1,24,-1
 393 940 l 1,25,-1
 291 359 l 2,26,27
 268 233 268 233 268 193 c 0,0,1
EndSplineSet
EndChar

StartChar: v
Encoding: 118 118 89
Width: 909
GlyphClass: 2
Flags: W
AnchorPoint: "bottom" 368 -22 basechar 0
AnchorPoint: "top" 483 928 basechar 0
LayerCount: 2
Fore
SplineSet
751 807 m 0,0,1
 751 844 751 844 730 866 c 128,-1,2
 709 888 709 888 685 895 c 1,3,-1
 693 940 l 1,4,-1
 883 940 l 1,5,6
 909 917 909 917 909 877 c 0,7,8
 909 789 909 789 826 657 c 2,9,-1
 403 -20 l 1,10,-1
 330 -20 l 1,11,-1
 141 870 l 1,12,-1
 28 895 l 1,13,-1
 37 940 l 1,14,-1
 293 940 l 1,15,-1
 438 208 l 1,16,-1
 687 614 l 2,17,18
 751 718 751 718 751 807 c 0,0,1
EndSplineSet
EndChar

StartChar: w
Encoding: 119 119 90
Width: 1366
GlyphClass: 2
Flags: W
AnchorPoint: "bottom" 624 -29 basechar 0
AnchorPoint: "top" 772 931 basechar 0
LayerCount: 2
Fore
SplineSet
900 -20 m 1,0,-1
 834 -20 l 1,1,-1
 710 599 l 1,2,-1
 392 -20 l 1,3,-1
 322 -20 l 1,4,-1
 151 870 l 1,5,-1
 49 895 l 1,6,-1
 57 940 l 1,7,-1
 302 940 l 1,8,-1
 433 233 l 1,9,-1
 742 834 l 1,10,-1
 817 834 l 1,11,-1
 939 229 l 1,12,-1
 1136 618 l 2,13,14
 1193 732 1193 732 1193 807 c 0,15,16
 1193 844 1193 844 1172 866 c 128,-1,17
 1151 888 1151 888 1127 895 c 1,18,-1
 1135 940 l 1,19,-1
 1325 940 l 1,20,21
 1351 917 1351 917 1351 877 c 0,22,23
 1351 809 1351 809 1268 657 c 2,24,-1
 900 -20 l 1,0,-1
EndSplineSet
EndChar

StartChar: x
Encoding: 120 120 91
Width: 909
GlyphClass: 2
Flags: W
AnchorPoint: "bottom" 368 5 basechar 0
AnchorPoint: "top" 534 931 basechar 0
LayerCount: 2
Fore
SplineSet
142 84 m 0,0,1
 142 56 142 56 184 45 c 1,2,-1
 176 0 l 1,3,-1
 -9 0 l 1,4,5
 -25 13 -25 13 -25 43 c 0,6,7
 -25 71 -25 71 6.5 112 c 128,-1,8
 38 153 38 153 112 221 c 2,9,-1
 385 475 l 1,10,-1
 213 870 l 1,11,-1
 106 895 l 1,12,-1
 114 940 l 1,13,-1
 362 940 l 1,14,-1
 507 582 l 1,15,-1
 631 700 l 2,16,17
 695 761 695 761 721 796 c 128,-1,18
 747 831 747 831 747 856 c 0,19,20
 747 866 747 866 738 873.5 c 128,-1,21
 729 881 729 881 688 895 c 1,22,-1
 696 940 l 1,23,-1
 873 940 l 1,24,25
 894 924 894 924 894 897 c 0,26,27
 894 838 894 838 756 707 c 1,28,-1
 542 506 l 1,29,-1
 734 66 l 1,30,-1
 850 45 l 1,31,-1
 842 0 l 1,32,-1
 586 0 l 1,33,-1
 419 400 l 1,34,-1
 248 236 l 2,35,36
 193 183 193 183 167.5 148.5 c 128,-1,37
 142 114 142 114 142 84 c 0,0,1
EndSplineSet
EndChar

StartChar: y
Encoding: 121 121 92
Width: 909
GlyphClass: 2
Flags: W
AnchorPoint: "bottom" 92 -445 basechar 0
AnchorPoint: "top" 512 927 basechar 0
LayerCount: 2
Fore
SplineSet
52 940 m 1,0,-1
 308 940 l 1,1,-1
 453 208 l 1,2,-1
 688 614 l 2,3,4
 752 726 752 726 752 807 c 0,5,6
 752 844 752 844 731 866 c 128,-1,7
 710 888 710 888 686 895 c 1,8,-1
 694 940 l 1,9,-1
 884 940 l 1,10,11
 910 917 910 917 910 877 c 0,12,13
 910 798 910 798 827 657 c 2,14,-1
 431 -10 l 1,15,16
 317 -204 317 -204 250.5 -285 c 128,-1,17
 184 -366 184 -366 119 -404 c 128,-1,18
 54 -442 54 -442 -22 -442 c 0,19,20
 -103 -442 -103 -442 -171 -424 c 1,21,-1
 -134 -221 l 1,22,-1
 -89 -221 l 1,23,-1
 -73 -317 l 1,24,25
 -48 -340 -48 -340 9 -340 c 0,26,27
 144 -340 144 -340 294 -70 c 1,28,-1
 339 12 l 1,29,-1
 156 870 l 1,30,-1
 44 895 l 1,31,-1
 52 940 l 1,0,-1
EndSplineSet
EndChar

StartChar: z
Encoding: 122 122 93
Width: 797
GlyphClass: 2
Flags: W
AnchorPoint: "bottom" 323 -4 basechar 0
AnchorPoint: "top" 460 945 basechar 0
LayerCount: 2
Fore
SplineSet
-23 0 m 1,0,-1
 -14 45 l 1,1,-1
 550 860 l 1,2,-1
 401 860 l 2,3,4
 345 860 345 860 292 850.5 c 128,-1,5
 239 841 239 841 215 825 c 1,6,-1
 160 690 l 1,7,-1
 113 690 l 1,8,-1
 158 940 l 1,9,-1
 770 940 l 1,10,-1
 762 891 l 1,11,-1
 200 80 l 1,12,-1
 397 80 l 2,13,14
 453 80 453 80 506 92.5 c 128,-1,15
 559 105 559 105 594 127 c 1,16,-1
 670 274 l 1,17,-1
 717 274 l 1,18,-1
 645 0 l 1,19,-1
 -23 0 l 1,0,-1
EndSplineSet
EndChar

StartChar: braceleft
Encoding: 123 123 94
Width: 819
GlyphClass: 2
Flags: W
LayerCount: 2
Fore
SplineSet
367 -274 m 2,0,1
 258 -274 258 -274 204 -217.5 c 128,-1,2
 150 -161 150 -161 150 -61 c 0,3,4
 150 -26 150 -26 158 20 c 2,5,-1
 210 315 l 2,6,7
 217 350 217 350 217 386 c 0,8,9
 217 467 217 467 174 507.5 c 128,-1,10
 131 548 131 548 37 553 c 1,11,-1
 45 598 l 1,12,13
 260 602 260 602 301 834 c 2,14,-1
 353 1128 l 2,15,16
 378 1269 378 1269 456.5 1345 c 128,-1,17
 535 1421 535 1421 666 1421 c 2,18,-1
 801 1421 l 1,19,-1
 793 1374 l 1,20,-1
 731 1374 l 2,21,22
 640 1374 640 1374 592 1319.5 c 128,-1,23
 544 1265 544 1265 525 1159 c 2,24,-1
 466 829 l 2,25,26
 449 735 449 735 385 666 c 128,-1,27
 321 597 321 597 230 578 c 1,28,-1
 230 575 l 1,29,30
 300 558 300 558 341 507 c 128,-1,31
 382 456 382 456 382 378 c 0,32,33
 382 347 382 347 377 322 c 2,34,-1
 318 -12 l 2,35,36
 310 -54 310 -54 310 -89 c 0,37,38
 310 -227 310 -227 448 -227 c 2,39,-1
 510 -227 l 1,40,-1
 502 -274 l 1,41,-1
 367 -274 l 2,0,1
EndSplineSet
Validated: 1
EndChar

StartChar: bar
Encoding: 124 124 95
Width: 563
GlyphClass: 2
Flags: W
LayerCount: 2
Fore
SplineSet
267 -442 m 1,0,-1
 267 1421 l 1,1,-1
 369 1421 l 1,2,-1
 369 -442 l 1,3,-1
 267 -442 l 1,0,-1
EndSplineSet
Validated: 1
EndChar

StartChar: braceright
Encoding: 125 125 96
Width: 819
GlyphClass: 2
Flags: W
LayerCount: 2
Fore
SplineSet
36 -274 m 1,0,-1
 44 -227 l 1,1,-1
 106 -227 l 2,2,3
 197 -227 197 -227 245 -172.5 c 128,-1,4
 293 -118 293 -118 312 -12 c 2,5,-1
 371 322 l 2,6,7
 388 418 388 418 451 486 c 128,-1,8
 514 554 514 554 608 575 c 1,9,-1
 608 578 l 1,10,11
 539 594 539 594 497.5 646 c 128,-1,12
 456 698 456 698 456 777 c 1,13,-1
 460 829 l 1,14,-1
 519 1159 l 2,15,16
 527 1203 527 1203 527 1236 c 0,17,18
 527 1305 527 1305 494.5 1339.5 c 128,-1,19
 462 1374 462 1374 389 1374 c 2,20,-1
 327 1374 l 1,21,-1
 335 1421 l 1,22,-1
 471 1421 l 2,23,24
 687 1421 687 1421 687 1212 c 0,25,26
 687 1174 687 1174 679 1128 c 2,27,-1
 627 834 l 2,28,29
 621 796 621 796 621 765 c 0,30,31
 621 678 621 678 668 639.5 c 128,-1,32
 715 601 715 601 801 598 c 1,33,-1
 793 553 l 1,34,35
 681 549 681 549 618 489 c 128,-1,36
 555 429 555 429 536 315 c 1,37,-1
 484 20 l 2,38,39
 459 -119 459 -119 378.5 -196.5 c 128,-1,40
 298 -274 298 -274 172 -274 c 2,41,-1
 36 -274 l 1,0,-1
EndSplineSet
Validated: 1
EndChar

StartChar: asciitilde
Encoding: 126 126 97
Width: 1108
GlyphClass: 2
Flags: W
LayerCount: 2
Fore
SplineSet
807 502 m 0,0,1
 701 502 701 502 562 623 c 1,2,3
 488 686 488 686 439.5 714.5 c 128,-1,4
 391 743 391 743 353 743 c 0,5,6
 276 743 276 743 237 688.5 c 128,-1,7
 198 634 198 634 185 502 c 1,8,-1
 84 502 l 1,9,10
 102 689 102 689 168.5 767.5 c 128,-1,11
 235 846 235 846 353 846 c 0,12,13
 409 846 409 846 468.5 817 c 128,-1,14
 528 788 528 788 603 725 c 0,15,16
 689 653 689 653 730.5 628.5 c 128,-1,17
 772 604 772 604 807 604 c 0,18,19
 876 604 876 604 915 656.5 c 128,-1,20
 954 709 954 709 973 846 c 1,21,-1
 1076 846 l 1,22,23
 1059 716 1059 716 1027 647 c 128,-1,24
 995 578 995 578 942 540 c 128,-1,25
 889 502 889 502 807 502 c 0,0,1
EndSplineSet
Validated: 1
EndChar

StartChar: Aring
Encoding: 197 197 99
Width: 1251
GlyphClass: 2
Flags: W
LayerCount: 2
Fore
SplineSet
993 1475 m 0,0,1
 993 1418 993 1418 965.5 1372 c 128,-1,2
 938 1326 938 1326 893 1300 c 1,3,-1
 1133 80 l 1,4,-1
 1258 53 l 1,5,-1
 1247 0 l 1,6,-1
 772 0 l 1,7,-1
 783 53 l 1,8,-1
 926 80 l 1,9,-1
 862 467 l 1,10,-1
 334 467 l 1,11,-1
 129 80 l 1,12,-1
 264 53 l 1,13,-1
 254 0 l 1,14,-1
 -112 0 l 1,15,-1
 -102 53 l 1,16,-1
 10 80 l 1,17,-1
 670 1310 l 1,18,19
 632 1338 632 1338 609.5 1381 c 128,-1,20
 587 1424 587 1424 587 1475 c 0,21,22
 587 1559 587 1559 646.5 1618.5 c 128,-1,23
 706 1678 706 1678 790 1678 c 256,24,25
 874 1678 874 1678 933.5 1618.5 c 128,-1,26
 993 1559 993 1559 993 1475 c 0,0,1
723 1208 m 1,27,-1
 379 557 l 1,28,-1
 846 557 l 1,29,-1
 723 1208 l 1,27,-1
913 1475 m 0,30,31
 913 1526 913 1526 877 1562 c 128,-1,32
 841 1598 841 1598 790 1598 c 256,33,34
 739 1598 739 1598 703 1562 c 128,-1,35
 667 1526 667 1526 667 1475 c 0,36,37
 667 1425 667 1425 701.5 1388.5 c 128,-1,38
 736 1352 736 1352 785 1352 c 2,39,-1
 790 1352 l 2,40,41
 838 1352 838 1352 875.5 1387 c 128,-1,42
 913 1422 913 1422 913 1475 c 0,30,31
EndSplineSet
Validated: 1
EndChar

StartChar: dagger
Encoding: 8224 8224 130
Width: 1024
GlyphClass: 2
Flags: W
LayerCount: 2
Fore
SplineSet
664 780 m 1,0,-1
 407 -240 l 1,1,-1
 361 -240 l 1,2,-1
 468 780 l 1,3,-1
 559 940 l 1,4,-1
 135 893 l 1,5,-1
 162 1049 l 1,6,-1
 571 1006 l 1,7,-1
 601 1421 l 1,8,-1
 757 1421 l 1,9,-1
 637 1006 l 1,10,-1
 1060 1049 l 1,11,-1
 1033 893 l 1,12,-1
 625 940 l 1,13,-1
 664 780 l 1,0,-1
EndSplineSet
Validated: 1
EndChar

StartChar: degree
Encoding: 176 176 131
Width: 819
GlyphClass: 2
Flags: W
LayerCount: 2
Fore
SplineSet
164 1051 m 0,0,1
 164 1134 164 1134 205 1206 c 128,-1,2
 246 1278 246 1278 318.5 1320 c 128,-1,3
 391 1362 391 1362 474 1362 c 256,4,5
 557 1362 557 1362 629 1320.5 c 128,-1,6
 701 1279 701 1279 743 1207 c 128,-1,7
 785 1135 785 1135 785 1051 c 256,8,9
 785 967 785 967 742.5 894.5 c 128,-1,10
 700 822 700 822 628 781.5 c 128,-1,11
 556 741 556 741 474 741 c 0,12,13
 344 741 344 741 254 831 c 128,-1,14
 164 921 164 921 164 1051 c 0,0,1
266 1051 m 0,15,16
 266 962 266 962 327.5 901.5 c 128,-1,17
 389 841 389 841 474 841 c 0,18,19
 562 841 562 841 622.5 902 c 128,-1,20
 683 963 683 963 683 1051 c 0,21,22
 683 1140 683 1140 622.5 1201 c 128,-1,23
 562 1262 562 1262 474 1262 c 0,24,25
 389 1262 389 1262 327.5 1201.5 c 128,-1,26
 266 1141 266 1141 266 1051 c 0,15,16
EndSplineSet
Validated: 1
EndChar

StartChar: cent
Encoding: 162 162 132
Width: 1024
GlyphClass: 2
Flags: W
LayerCount: 2
Fore
SplineSet
864 347 m 1,0,1
 795 285 795 285 714 243.5 c 128,-1,2
 633 202 633 202 554 190 c 1,3,-1
 521 0 l 1,4,-1
 439 0 l 1,5,-1
 471 185 l 1,6,7
 319 191 319 191 236 284 c 128,-1,8
 153 377 153 377 153 535 c 0,9,10
 153 703 153 703 218.5 841.5 c 128,-1,11
 284 980 284 980 398 1065.5 c 128,-1,12
 512 1151 512 1151 644 1167 c 1,13,-1
 675 1341 l 1,14,-1
 757 1341 l 1,15,-1
 727 1169 l 1,16,17
 870 1161 870 1161 977 1118 c 1,18,-1
 932 856 l 1,19,-1
 877 856 l 1,20,-1
 861 1030 l 1,21,22
 805 1086 805 1086 713 1092 c 1,23,-1
 572 290 l 1,24,25
 699 300 699 300 834 389 c 1,26,-1
 864 347 l 1,0,1
330 545 m 0,27,28
 330 321 330 321 490 293 c 1,29,-1
 629 1084 l 1,30,31
 498 1048 498 1048 414 897.5 c 128,-1,32
 330 747 330 747 330 545 c 0,27,28
EndSplineSet
Validated: 1
EndChar

StartChar: sterling
Encoding: 163 163 133
Width: 1024
GlyphClass: 2
Flags: W
LayerCount: 2
Fore
SplineSet
891 154 m 1,0,-1
 864 0 l 1,1,-1
 26 0 l 1,2,-1
 46 117 l 1,3,-1
 138 188 l 1,4,5
 229 256 229 256 274.5 327.5 c 128,-1,6
 320 399 320 399 320 477 c 0,7,8
 320 531 320 531 296 629 c 1,9,-1
 134 629 l 1,10,-1
 149 711 l 1,11,-1
 276 711 l 1,12,13
 251 806 251 806 251 894 c 0,14,15
 251 1116 251 1116 377.5 1236 c 128,-1,16
 504 1356 504 1356 740 1356 c 0,17,18
 878 1356 878 1356 1025 1313 c 1,19,-1
 980 1035 l 1,20,-1
 915 1035 l 1,21,-1
 908 1222 l 1,22,23
 876 1243 876 1243 825.5 1257.5 c 128,-1,24
 775 1272 775 1272 725 1272 c 0,25,26
 579 1272 579 1272 500.5 1162.5 c 128,-1,27
 422 1053 422 1053 422 851 c 1,28,-1
 426 711 l 1,29,-1
 704 711 l 1,30,-1
 689 629 l 1,31,-1
 427 629 l 1,32,33
 424 525 424 525 413 459 c 0,34,35
 399 372 399 372 349.5 300 c 128,-1,36
 300 228 300 228 201 154 c 1,37,-1
 891 154 l 1,0,-1
EndSplineSet
Validated: 1
EndChar

StartChar: section
Encoding: 167 167 134
Width: 1024
GlyphClass: 2
Flags: W
LayerCount: 2
Fore
SplineSet
784 69 m 0,0,1
 784 -256 784 -256 372 -256 c 0,2,3
 295 -256 295 -256 208 -241 c 128,-1,4
 121 -226 121 -226 66 -202 c 1,5,-1
 107 28 l 1,6,-1
 152 28 l 1,7,-1
 171 -109 l 1,8,9
 201 -139 201 -139 261 -160 c 128,-1,10
 321 -181 321 -181 383 -181 c 0,11,12
 501 -181 501 -181 561.5 -128.5 c 128,-1,13
 622 -76 622 -76 622 19 c 0,14,15
 622 83 622 83 571.5 136.5 c 128,-1,16
 521 190 521 190 404 256 c 0,17,18
 292 319 292 319 238.5 387.5 c 128,-1,19
 185 456 185 456 185 542 c 0,20,21
 185 664 185 664 264 743.5 c 128,-1,22
 343 823 343 823 496 845 c 1,23,24
 401 897 401 897 360.5 956.5 c 128,-1,25
 320 1016 320 1016 320 1090 c 0,26,27
 320 1230 320 1230 409 1309.5 c 128,-1,28
 498 1389 498 1389 663 1389 c 0,29,30
 779 1389 779 1389 936 1354 c 1,31,-1
 900 1145 l 1,32,-1
 855 1145 l 1,33,-1
 841 1253 l 1,34,35
 776 1309 776 1309 667 1309 c 0,36,37
 580 1309 580 1309 529 1268.5 c 128,-1,38
 478 1228 478 1228 478 1143 c 0,39,40
 478 1103 478 1103 498 1072.5 c 128,-1,41
 518 1042 518 1042 553.5 1015.5 c 128,-1,42
 589 989 589 989 699 932 c 0,43,44
 790 884 790 884 831.5 845.5 c 128,-1,45
 873 807 873 807 896 759.5 c 128,-1,46
 919 712 919 712 919 654 c 0,47,48
 919 525 919 525 835 443 c 128,-1,49
 751 361 751 361 597 340 c 1,50,51
 698 277 698 277 741 212 c 128,-1,52
 784 147 784 147 784 69 c 0,0,1
757 604 m 0,53,54
 757 658 757 658 722 701 c 128,-1,55
 687 744 687 744 599 790 c 1,56,57
 483 784 483 784 413 729.5 c 128,-1,58
 343 675 343 675 343 586 c 0,59,60
 343 522 343 522 383.5 479.5 c 128,-1,61
 424 437 424 437 493 404 c 1,62,63
 630 409 630 409 693.5 459.5 c 128,-1,64
 757 510 757 510 757 604 c 0,53,54
EndSplineSet
Validated: 1
EndChar

StartChar: bullet
Encoding: 8226 8226 135
Width: 717
GlyphClass: 2
Flags: W
LayerCount: 2
Fore
SplineSet
623 678 m 256,0,1
 623 576 623 576 552 505 c 128,-1,2
 481 434 481 434 379 434 c 0,3,4
 278 434 278 434 207 505 c 128,-1,5
 136 576 136 576 136 678 c 256,6,7
 136 780 136 780 207 851 c 128,-1,8
 278 922 278 922 379 922 c 0,9,10
 481 922 481 922 552 851 c 128,-1,11
 623 780 623 780 623 678 c 256,0,1
EndSplineSet
Validated: 1
EndChar

StartChar: paragraph
Encoding: 182 182 136
Width: 1071
GlyphClass: 2
Flags: W
LayerCount: 2
Fore
SplineSet
924 1266 m 1,0,-1
 924 -258 l 1,1,-1
 830 -258 l 1,2,-1
 830 1266 l 1,3,-1
 660 1266 l 1,4,-1
 660 -258 l 1,5,-1
 566 -258 l 1,6,-1
 568 565 l 1,7,8
 359 565 359 565 240 670.5 c 128,-1,9
 121 776 121 776 121 963 c 0,10,11
 121 1146 121 1146 233 1243.5 c 128,-1,12
 345 1341 345 1341 555 1341 c 2,13,-1
 1018 1341 l 1,14,-1
 1018 1288 l 1,15,-1
 924 1266 l 1,0,-1
EndSplineSet
Validated: 1
EndChar

StartChar: germandbls
Encoding: 223 223 137
Width: 1024
GlyphClass: 2
Flags: W
LayerCount: 2
Fore
SplineSet
675 775 m 0,0,1
 675 720 675 720 703.5 675.5 c 128,-1,2
 732 631 732 631 801 575 c 0,3,4
 865 523 865 523 896 465 c 128,-1,5
 927 407 927 407 927 333 c 0,6,7
 927 168 927 168 834 74 c 128,-1,8
 741 -20 741 -20 570 -20 c 0,9,10
 508 -20 508 -20 441.5 -7 c 128,-1,11
 375 6 375 6 345 27 c 1,12,-1
 379 219 l 1,13,-1
 424 219 l 1,14,-1
 434 125 l 1,15,16
 452 97 452 97 491.5 78 c 128,-1,17
 531 59 531 59 582 59 c 0,18,19
 668 59 668 59 717 118 c 128,-1,20
 766 177 766 177 766 277 c 0,21,22
 766 336 766 336 735.5 384 c 128,-1,23
 705 432 705 432 642 483 c 0,24,25
 579 533 579 533 548 588 c 128,-1,26
 517 643 517 643 517 712 c 0,27,28
 517 991 517 991 820 1047 c 1,29,30
 835 1132 835 1132 835 1192 c 0,31,32
 835 1286 835 1286 797 1324 c 128,-1,33
 759 1362 759 1362 683 1362 c 0,34,35
 487 1362 487 1362 444 1110 c 1,36,-1
 249 0 l 1,37,-1
 -57 0 l 1,38,-1
 -50 45 l 1,39,-1
 95 70 l 1,40,-1
 270 1061 l 2,41,42
 304 1249 304 1249 411 1345.5 c 128,-1,43
 518 1442 518 1442 697 1442 c 0,44,45
 847 1442 847 1442 919 1374 c 128,-1,46
 991 1306 991 1306 991 1157 c 0,47,48
 991 1087 991 1087 975 997 c 1,49,50
 843 983 843 983 790 960.5 c 128,-1,51
 737 938 737 938 706 894.5 c 128,-1,52
 675 851 675 851 675 775 c 0,0,1
EndSplineSet
Validated: 1
EndChar

StartChar: registered
Encoding: 174 174 138
Width: 1556
GlyphClass: 2
Flags: W
LayerCount: 2
Fore
SplineSet
118 670 m 0,0,1
 118 859 118 859 211.5 1019.5 c 128,-1,2
 305 1180 305 1180 463.5 1271 c 128,-1,3
 622 1362 622 1362 808 1362 c 0,4,5
 995 1362 995 1362 1155 1270 c 128,-1,6
 1315 1178 1315 1178 1407.5 1018.5 c 128,-1,7
 1500 859 1500 859 1500 670 c 0,8,9
 1500 485 1500 485 1409.5 326.5 c 128,-1,10
 1319 168 1319 168 1158.5 74 c 128,-1,11
 998 -20 998 -20 808 -20 c 0,12,13
 622 -20 622 -20 462 72 c 128,-1,14
 302 164 302 164 210 324 c 128,-1,15
 118 484 118 484 118 670 c 0,0,1
188 670 m 0,16,17
 188 503 188 503 271.5 358.5 c 128,-1,18
 355 214 355 214 498.5 131.5 c 128,-1,19
 642 49 642 49 808 49 c 0,20,21
 975 49 975 49 1119 131.5 c 128,-1,22
 1263 214 1263 214 1347 358 c 128,-1,23
 1431 502 1431 502 1431 670 c 256,24,25
 1431 838 1431 838 1346 983 c 128,-1,26
 1261 1128 1261 1128 1118 1210 c 128,-1,27
 975 1292 975 1292 808 1292 c 256,28,29
 641 1292 641 1292 497 1208.5 c 128,-1,30
 353 1125 353 1125 270.5 980.5 c 128,-1,31
 188 836 188 836 188 670 c 0,16,17
698 625 m 1,32,-1
 698 336 l 1,33,-1
 812 319 l 1,34,-1
 812 276 l 1,35,-1
 466 276 l 1,36,-1
 466 319 l 1,37,-1
 562 336 l 1,38,-1
 562 1024 l 1,39,-1
 458 1040 l 1,40,-1
 458 1081 l 1,41,-1
 788 1081 l 2,42,43
 944 1081 944 1081 1023.5 1023.5 c 128,-1,44
 1103 966 1103 966 1103 860 c 0,45,46
 1103 783 1103 783 1058 727 c 128,-1,47
 1013 671 1013 671 925 643 c 1,48,-1
 1138 336 l 1,49,-1
 1222 319 l 1,50,-1
 1222 276 l 1,51,-1
 1017 276 l 1,52,-1
 788 625 l 1,53,-1
 698 625 l 1,32,-1
962 858 m 0,54,55
 962 947 962 947 919 983.5 c 128,-1,56
 876 1020 876 1020 761 1020 c 2,57,-1
 698 1020 l 1,58,-1
 698 688 l 1,59,-1
 765 688 l 2,60,61
 871 688 871 688 916.5 725 c 128,-1,62
 962 762 962 762 962 858 c 0,54,55
EndSplineSet
Validated: 1
EndChar

StartChar: copyright
Encoding: 169 169 139
Width: 1556
GlyphClass: 2
Flags: W
LayerCount: 2
Fore
SplineSet
118 670 m 0,0,1
 118 859 118 859 211.5 1019.5 c 128,-1,2
 305 1180 305 1180 463.5 1271 c 128,-1,3
 622 1362 622 1362 808 1362 c 0,4,5
 995 1362 995 1362 1155 1270 c 128,-1,6
 1315 1178 1315 1178 1407.5 1018.5 c 128,-1,7
 1500 859 1500 859 1500 670 c 0,8,9
 1500 485 1500 485 1409.5 326.5 c 128,-1,10
 1319 168 1319 168 1158.5 74 c 128,-1,11
 998 -20 998 -20 808 -20 c 0,12,13
 622 -20 622 -20 462 72 c 128,-1,14
 302 164 302 164 210 324 c 128,-1,15
 118 484 118 484 118 670 c 0,0,1
188 670 m 0,16,17
 188 503 188 503 271.5 358.5 c 128,-1,18
 355 214 355 214 498.5 131.5 c 128,-1,19
 642 49 642 49 808 49 c 0,20,21
 975 49 975 49 1119 131.5 c 128,-1,22
 1263 214 1263 214 1347 358 c 128,-1,23
 1431 502 1431 502 1431 670 c 256,24,25
 1431 838 1431 838 1346 983 c 128,-1,26
 1261 1128 1261 1128 1118 1210 c 128,-1,27
 975 1292 975 1292 808 1292 c 256,28,29
 641 1292 641 1292 497 1208.5 c 128,-1,30
 353 1125 353 1125 270.5 980.5 c 128,-1,31
 188 836 188 836 188 670 c 0,16,17
825 258 m 0,32,33
 630 258 630 258 519.5 364.5 c 128,-1,34
 409 471 409 471 409 664 c 0,35,36
 409 873 409 873 514.5 979 c 128,-1,37
 620 1085 620 1085 827 1085 c 0,38,39
 942 1085 942 1085 1095 1055 c 1,40,-1
 1099 868 l 1,41,-1
 1050 868 l 1,42,-1
 1031 973 l 1,43,44
 949 1024 949 1024 831 1024 c 0,45,46
 684 1024 684 1024 620 939 c 128,-1,47
 556 854 556 854 556 666 c 0,48,49
 556 317 556 317 825 317 c 0,50,51
 966 317 966 317 1040 377 c 1,52,-1
 1062 496 l 1,53,-1
 1111 496 l 1,54,-1
 1107 297 l 1,55,56
 983 258 983 258 825 258 c 0,32,33
EndSplineSet
Validated: 1
EndChar

StartChar: trademark
Encoding: 8482 8482 140
Width: 2007
GlyphClass: 2
Flags: W
LayerCount: 2
Fore
SplineSet
284 537 m 1,0,-1
 284 580 l 1,1,-1
 411 596 l 1,2,-1
 411 1280 l 1,3,-1
 380 1280 l 2,4,5
 234 1280 234 1280 184 1268 c 1,6,-1
 167 1143 l 1,7,-1
 126 1143 l 1,8,-1
 126 1341 l 1,9,-1
 835 1341 l 1,10,-1
 835 1143 l 1,11,-1
 794 1143 l 1,12,-1
 778 1268 l 1,13,14
 734 1278 734 1278 577 1278 c 2,15,-1
 548 1278 l 1,16,-1
 548 596 l 1,17,-1
 675 580 l 1,18,-1
 675 537 l 1,19,-1
 284 537 l 1,0,-1
1410 537 m 1,20,-1
 1382 537 l 1,21,-1
 1097 1206 l 1,22,-1
 1097 596 l 1,23,-1
 1206 580 l 1,24,-1
 1206 537 l 1,25,-1
 921 537 l 1,26,-1
 921 580 l 1,27,-1
 1025 596 l 1,28,-1
 1025 1284 l 1,29,-1
 921 1300 l 1,30,-1
 921 1341 l 1,31,-1
 1191 1341 l 1,32,-1
 1435 758 l 1,33,-1
 1699 1341 l 1,34,-1
 1953 1341 l 1,35,-1
 1953 1300 l 1,36,-1
 1851 1284 l 1,37,-1
 1851 596 l 1,38,-1
 1953 580 l 1,39,-1
 1953 537 l 1,40,-1
 1605 537 l 1,41,-1
 1605 580 l 1,42,-1
 1713 596 l 1,43,-1
 1713 1204 l 1,44,-1
 1410 537 l 1,20,-1
EndSplineSet
Validated: 1
EndChar

StartChar: acute
Encoding: 180 180 141
Width: 682
GlyphClass: 2
Flags: W
LayerCount: 2
Fore
SplineSet
248 1118 m 1,0,-1
 253 1151 l 1,1,-1
 497 1423 l 1,2,-1
 710 1423 l 1,3,-1
 704 1386 l 1,4,-1
 303 1118 l 1,5,-1
 248 1118 l 1,0,-1
EndSplineSet
Validated: 1
EndChar

StartChar: dieresis
Encoding: 168 168 142
Width: 682
GlyphClass: 2
Flags: W
LayerCount: 2
Fore
SplineSet
760 1231 m 256,0,1
 760 1189 760 1189 732 1159.5 c 128,-1,2
 704 1130 704 1130 662 1130 c 256,3,4
 620 1130 620 1130 591 1161 c 128,-1,5
 562 1192 562 1192 562 1231 c 0,6,7
 562 1273 562 1273 591 1302 c 128,-1,8
 620 1331 620 1331 662 1331 c 256,9,10
 704 1331 704 1331 732 1302 c 128,-1,11
 760 1273 760 1273 760 1231 c 256,0,1
404 1231 m 256,12,13
 404 1189 404 1189 376 1159.5 c 128,-1,14
 348 1130 348 1130 306 1130 c 0,15,16
 265 1130 265 1130 235 1160 c 128,-1,17
 205 1190 205 1190 205 1231 c 0,18,19
 205 1273 205 1273 236 1302 c 128,-1,20
 267 1331 267 1331 306 1331 c 0,21,22
 348 1331 348 1331 376 1302 c 128,-1,23
 404 1273 404 1273 404 1231 c 256,12,13
EndSplineSet
Validated: 1
EndChar

StartChar: notequal
Encoding: 8800 8800 143
Width: 1124
GlyphClass: 2
Flags: W
LayerCount: 2
Fore
SplineSet
826 936 m 1,0,-1
 1062 936 l 1,1,-1
 1062 834 l 1,2,-1
 755 834 l 1,3,-1
 540 526 l 1,4,-1
 1062 526 l 1,5,-1
 1062 424 l 1,6,-1
 468 424 l 1,7,-1
 270 140 l 1,8,-1
 147 140 l 1,9,-1
 345 424 l 1,10,-1
 109 424 l 1,11,-1
 109 526 l 1,12,-1
 416 526 l 1,13,-1
 631 834 l 1,14,-1
 109 834 l 1,15,-1
 109 936 l 1,16,-1
 702 936 l 1,17,-1
 900 1220 l 1,18,-1
 1025 1220 l 1,19,-1
 826 936 l 1,0,-1
EndSplineSet
Validated: 1
EndChar

StartChar: AE
Encoding: 198 198 144
Width: 1821
GlyphClass: 2
Flags: W
AnchorPoint: "bottom" 903 -62 basechar 0
AnchorPoint: "top" 1271 1424 basechar 0
LayerCount: 2
Fore
SplineSet
799 467 m 1,0,-1
 387 467 l 1,1,-1
 112 80 l 1,2,-1
 265 53 l 1,3,-1
 256 0 l 1,4,-1
 -146 0 l 1,5,-1
 -137 53 l 1,6,-1
 -6 80 l 1,7,-1
 850 1270 l 1,8,-1
 690 1288 l 1,9,-1
 699 1341 l 1,10,-1
 1788 1341 l 1,11,-1
 1731 1020 l 1,12,-1
 1665 1020 l 1,13,-1
 1671 1237 l 1,14,15
 1562 1251 1562 1251 1350 1251 c 2,16,-1
 1131 1251 l 1,17,-1
 1038 727 l 1,18,-1
 1400 727 l 1,19,-1
 1460 887 l 1,20,-1
 1524 887 l 1,21,-1
 1451 475 l 1,22,-1
 1387 475 l 1,23,-1
 1385 637 l 1,24,-1
 1023 637 l 1,25,-1
 926 90 l 1,26,-1
 1190 90 l 2,27,28
 1446 90 1446 90 1531 106 c 1,29,-1
 1632 354 l 1,30,-1
 1698 354 l 1,31,-1
 1616 0 l 1,32,-1
 546 0 l 1,33,-1
 556 53 l 1,34,-1
 731 80 l 1,35,-1
 799 467 l 1,0,-1
452 557 m 1,36,-1
 815 557 l 1,37,-1
 934 1231 l 1,38,-1
 452 557 l 1,36,-1
EndSplineSet
EndChar

StartChar: Oslash
Encoding: 216 216 145
Width: 1479
GlyphClass: 2
Flags: W
LayerCount: 2
Fore
SplineSet
663 -20 m 0,0,1
 427 -20 427 -20 270 118 c 1,2,-1
 97 -55 l 1,3,-1
 -22 -55 l 1,4,-1
 213 180 l 1,5,6
 103 319 103 319 103 514 c 0,7,8
 103 755 103 755 203 950.5 c 128,-1,9
 303 1146 303 1146 476 1251 c 128,-1,10
 649 1356 649 1356 871 1356 c 0,11,12
 1103 1356 1103 1356 1258 1222 c 1,13,-1
 1427 1391 l 1,14,-1
 1542 1391 l 1,15,-1
 1314 1163 l 1,16,17
 1431 1021 1431 1021 1431 822 c 0,18,19
 1431 585 1431 585 1330.5 386 c 128,-1,20
 1230 187 1230 187 1057.5 83.5 c 128,-1,21
 885 -20 885 -20 663 -20 c 0,0,1
1231 832 m 0,22,23
 1231 949 1231 949 1194 1043 c 1,24,-1
 375 223 l 1,25,26
 423 148 423 148 498 106.5 c 128,-1,27
 573 65 573 65 670 65 c 0,28,29
 819 65 819 65 945.5 165.5 c 128,-1,30
 1072 266 1072 266 1151.5 455 c 128,-1,31
 1231 644 1231 644 1231 832 c 0,22,23
303 503 m 0,32,33
 303 389 303 389 336 302 c 1,34,-1
 1154 1119 l 1,35,36
 1105 1194 1105 1194 1029.5 1235 c 128,-1,37
 954 1276 954 1276 858 1276 c 0,38,39
 709 1276 709 1276 584.5 1174.5 c 128,-1,40
 460 1073 460 1073 381.5 884 c 128,-1,41
 303 695 303 695 303 503 c 0,32,33
EndSplineSet
Validated: 1
EndChar

StartChar: infinity
Encoding: 8734 8734 146
Width: 1460
GlyphClass: 2
Flags: W
LayerCount: 2
Fore
SplineSet
1402 590 m 0,0,1
 1402 424 1402 424 1309 313.5 c 128,-1,2
 1216 203 1216 203 1077 203 c 0,3,4
 863 203 863 203 716 467 c 1,5,6
 650 340 650 340 565.5 274.5 c 128,-1,7
 481 209 481 209 385 209 c 0,8,9
 240 209 240 209 148.5 314.5 c 128,-1,10
 57 420 57 420 57 596 c 0,11,12
 57 764 57 764 148.5 873.5 c 128,-1,13
 240 983 240 983 385 983 c 0,14,15
 496 983 496 983 588 917 c 128,-1,16
 680 851 680 851 743 725 c 1,17,18
 809 850 809 850 890 913.5 c 128,-1,19
 971 977 971 977 1079 977 c 0,20,21
 1224 977 1224 977 1313 871 c 128,-1,22
 1402 765 1402 765 1402 590 c 0,0,1
1099 872 m 0,23,24
 1016 872 1016 872 946.5 802 c 128,-1,25
 877 732 877 732 811 590 c 1,26,27
 873 449 873 449 942.5 378 c 128,-1,28
 1012 307 1012 307 1101 307 c 0,29,30
 1200 307 1200 307 1263.5 386.5 c 128,-1,31
 1327 466 1327 466 1327 592 c 0,32,33
 1327 714 1327 714 1263 793 c 128,-1,34
 1199 872 1199 872 1099 872 c 0,23,24
645 596 m 1,35,36
 586 736 586 736 516.5 807.5 c 128,-1,37
 447 879 447 879 354 879 c 0,38,39
 258 879 258 879 195.5 799 c 128,-1,40
 133 719 133 719 133 594 c 0,41,42
 133 468 133 468 193.5 390.5 c 128,-1,43
 254 313 254 313 358 313 c 0,44,45
 442 313 442 313 512 383.5 c 128,-1,46
 582 454 582 454 645 596 c 1,35,36
EndSplineSet
Validated: 1
EndChar

StartChar: plusminus
Encoding: 177 177 147
Width: 1124
GlyphClass: 2
Flags: W
LayerCount: 2
Fore
SplineSet
622 629 m 1,0,-1
 622 203 l 1,1,-1
 519 203 l 1,2,-1
 519 629 l 1,3,-1
 95 629 l 1,4,-1
 95 731 l 1,5,-1
 519 731 l 1,6,-1
 519 1157 l 1,7,-1
 622 1157 l 1,8,-1
 622 731 l 1,9,-1
 1048 731 l 1,10,-1
 1048 629 l 1,11,-1
 622 629 l 1,0,-1
1048 102 m 1,12,-1
 1048 0 l 1,13,-1
 95 0 l 1,14,-1
 95 102 l 1,15,-1
 1048 102 l 1,12,-1
EndSplineSet
Validated: 1
EndChar

StartChar: lessequal
Encoding: 8804 8804 148
Width: 1124
GlyphClass: 2
Flags: W
LayerCount: 2
Fore
SplineSet
97 655 m 1,0,-1
 97 705 l 1,1,-1
 1050 1174 l 1,2,-1
 1050 1071 l 1,3,-1
 241 680 l 1,4,-1
 1050 289 l 1,5,-1
 1050 186 l 1,6,-1
 97 655 l 1,0,-1
1050 102 m 1,7,-1
 1050 0 l 1,8,-1
 97 0 l 1,9,-1
 97 102 l 1,10,-1
 1050 102 l 1,7,-1
EndSplineSet
Validated: 1
EndChar

StartChar: greaterequal
Encoding: 8805 8805 149
Width: 1124
GlyphClass: 2
Flags: W
LayerCount: 2
Fore
SplineSet
99 186 m 1,0,-1
 99 289 l 1,1,-1
 908 680 l 1,2,-1
 99 1071 l 1,3,-1
 99 1174 l 1,4,-1
 1052 705 l 1,5,-1
 1052 655 l 1,6,-1
 99 186 l 1,0,-1
1050 102 m 1,7,-1
 1050 0 l 1,8,-1
 97 0 l 1,9,-1
 97 102 l 1,10,-1
 1050 102 l 1,7,-1
EndSplineSet
Validated: 1
EndChar

StartChar: yen
Encoding: 165 165 150
Width: 1024
GlyphClass: 2
Flags: W
LayerCount: 2
Fore
SplineSet
860 393 m 1,0,-1
 845 311 l 1,1,-1
 566 311 l 1,2,-1
 526 80 l 1,3,-1
 693 53 l 1,4,-1
 684 0 l 1,5,-1
 148 0 l 1,6,-1
 157 53 l 1,7,-1
 334 80 l 1,8,-1
 374 311 l 1,9,-1
 95 311 l 1,10,-1
 110 393 l 1,11,-1
 389 393 l 1,12,-1
 412 522 l 1,13,-1
 406 557 l 1,14,-1
 139 557 l 1,15,-1
 153 639 l 1,16,-1
 383 639 l 1,17,-1
 230 1262 l 1,18,-1
 135 1288 l 1,19,-1
 144 1341 l 1,20,-1
 574 1341 l 1,21,-1
 565 1288 l 1,22,-1
 429 1262 l 1,23,-1
 566 634 l 1,24,-1
 927 1262 l 1,25,-1
 809 1288 l 1,26,-1
 818 1341 l 1,27,-1
 1164 1341 l 1,28,-1
 1155 1288 l 1,29,-1
 1046 1262 l 1,30,-1
 671 639 l 1,31,-1
 903 639 l 1,32,-1
 889 557 l 1,33,-1
 622 557 l 1,34,-1
 605 528 l 1,35,-1
 581 393 l 1,36,-1
 860 393 l 1,0,-1
EndSplineSet
Validated: 1
EndChar

StartChar: mu
Encoding: 181 181 151
Width: 1180
GlyphClass: 2
Flags: W
LayerCount: 2
Fore
SplineSet
719 124 m 1,0,1
 575 -20 575 -20 461 -20 c 0,2,3
 355 -20 355 -20 325 58 c 1,4,5
 276 -223 276 -223 204 -436 c 1,6,-1
 27 -436 l 1,7,-1
 35 -391 l 1,8,9
 69 -320 69 -320 107 -187.5 c 128,-1,10
 145 -55 145 -55 167 69 c 2,11,-1
 308 870 l 1,12,-1
 173 895 l 1,13,-1
 181 940 l 1,14,-1
 487 940 l 1,15,-1
 372 288 l 1,16,-1
 368 242 l 1,17,18
 368 173 368 173 406 134.5 c 128,-1,19
 444 96 444 96 508 96 c 0,20,21
 556 96 556 96 620.5 129 c 128,-1,22
 685 162 685 162 731 213 c 1,23,-1
 862 940 l 1,24,-1
 1025 940 l 1,25,-1
 871 70 l 1,26,-1
 1004 45 l 1,27,-1
 996 0 l 1,28,-1
 718 0 l 1,29,-1
 719 124 l 1,0,1
EndSplineSet
Validated: 1
EndChar

StartChar: partialdiff
Encoding: 8706 8706 152
Width: 1012
GlyphClass: 2
Flags: W
LayerCount: 2
Fore
SplineSet
928 938 m 0,0,1
 928 768 928 768 892 579 c 128,-1,2
 856 390 856 390 784.5 252.5 c 128,-1,3
 713 115 713 115 612.5 44 c 128,-1,4
 512 -27 512 -27 388 -27 c 0,5,6
 236 -27 236 -27 152 66.5 c 128,-1,7
 68 160 68 160 68 332 c 0,8,9
 68 487 68 487 138 638 c 128,-1,10
 208 789 208 789 318 864.5 c 128,-1,11
 428 940 428 940 564 940 c 0,12,13
 657 940 657 940 728.5 890.5 c 128,-1,14
 800 841 800 841 834 758 c 1,15,-1
 838 758 l 1,16,-1
 842 874 l 1,17,18
 842 1101 842 1101 767.5 1222 c 128,-1,19
 693 1343 693 1343 551 1343 c 0,20,21
 444 1343 444 1343 323 1259 c 1,22,-1
 287 1292 l 1,23,-1
 392 1442 l 1,24,25
 471 1477 471 1477 549 1477 c 0,26,27
 732 1477 732 1477 830 1338.5 c 128,-1,28
 928 1200 928 1200 928 938 c 0,0,1
813 643 m 1,29,30
 795 735 795 735 734.5 795.5 c 128,-1,31
 674 856 674 856 596 856 c 0,32,33
 505 856 505 856 430 787 c 128,-1,34
 355 718 355 718 306.5 581 c 128,-1,35
 258 444 258 444 258 305 c 0,36,37
 258 181 258 181 310 112 c 128,-1,38
 362 43 362 43 451 43 c 0,39,40
 532 43 532 43 605.5 113.5 c 128,-1,41
 679 184 679 184 735 325 c 128,-1,42
 791 466 791 466 813 643 c 1,29,30
EndSplineSet
Validated: 1
EndChar

StartChar: summation
Encoding: 8721 8721 153
Width: 1460
GlyphClass: 2
Flags: W
LayerCount: 2
Fore
SplineSet
831 587 m 1,0,-1
 831 548 l 1,1,-1
 274 -266 l 1,2,-1
 719 -266 l 2,3,4
 760 -266 760 -266 808.5 -265.5 c 128,-1,5
 857 -265 857 -265 906.5 -264 c 128,-1,6
 956 -263 956 -263 1003.5 -261 c 128,-1,7
 1051 -259 1051 -259 1089.5 -257.5 c 128,-1,8
 1128 -256 1128 -256 1156 -254 c 128,-1,9
 1184 -252 1184 -252 1194 -250 c 1,10,-1
 1251 -22 l 1,11,-1
 1317 -22 l 1,12,-1
 1298 -436 l 1,13,-1
 92 -436 l 1,14,-1
 92 -362 l 1,15,-1
 670 481 l 1,16,-1
 137 1262 l 1,17,-1
 137 1341 l 1,18,-1
 1242 1341 l 1,19,-1
 1242 990 l 1,20,-1
 1176 990 l 1,21,-1
 1134 1237 l 1,22,23
 1019 1251 1019 1251 782 1251 c 2,24,-1
 378 1251 l 1,25,-1
 831 587 l 1,0,-1
EndSplineSet
Validated: 1
EndChar

StartChar: product
Encoding: 8719 8719 154
Width: 1686
GlyphClass: 2
Flags: W
LayerCount: 2
Fore
SplineSet
114 -436 m 1,0,-1
 114 -383 l 1,1,-1
 286 -356 l 1,2,-1
 286 1262 l 1,3,-1
 114 1288 l 1,4,-1
 114 1341 l 1,5,-1
 1574 1341 l 1,6,-1
 1574 1288 l 1,7,-1
 1402 1262 l 1,8,-1
 1402 -356 l 1,9,-1
 1574 -383 l 1,10,-1
 1574 -436 l 1,11,-1
 1038 -436 l 1,12,-1
 1038 -383 l 1,13,-1
 1210 -356 l 1,14,-1
 1210 1251 l 1,15,-1
 479 1251 l 1,16,-1
 479 -356 l 1,17,-1
 651 -383 l 1,18,-1
 651 -436 l 1,19,-1
 114 -436 l 1,0,-1
EndSplineSet
Validated: 1
EndChar

StartChar: integral
Encoding: 8747 8747 155
Width: 561
GlyphClass: 2
Flags: W
LayerCount: 2
Fore
SplineSet
186 506 m 1,0,1
 186 774 186 774 200 1047 c 1,2,3
 207 1153 207 1153 256.5 1247.5 c 128,-1,4
 306 1342 306 1342 386 1402 c 128,-1,5
 466 1462 466 1462 536 1462 c 0,6,7
 561 1462 561 1462 605.5 1452 c 128,-1,8
 650 1442 650 1442 665 1430 c 1,9,-1
 665 1421 l 1,10,-1
 647 1355 l 1,11,-1
 631 1290 l 1,12,-1
 610 1290 l 1,13,14
 540 1360 540 1360 483 1360 c 0,15,16
 430 1360 430 1360 395 1281.5 c 128,-1,17
 360 1203 360 1203 360 1079 c 2,18,-1
 364 541 l 2,19,20
 364 468 364 468 360.5 307 c 128,-1,21
 357 146 357 146 348 -137 c 1,22,23
 342 -247 342 -247 291.5 -341 c 128,-1,24
 241 -435 241 -435 163.5 -492 c 128,-1,25
 86 -549 86 -549 16 -549 c 0,26,27
 -13 -549 -13 -549 -54 -537.5 c 128,-1,28
 -95 -526 -95 -526 -107 -516 c 1,29,-1
 -107 -508 l 1,30,31
 -103 -495 -103 -495 -92.5 -447.5 c 128,-1,32
 -82 -400 -82 -400 -78 -377 c 1,33,-1
 -58 -377 l 1,34,35
 11 -446 11 -446 69 -446 c 0,36,37
 122 -446 122 -446 157 -367.5 c 128,-1,38
 192 -289 192 -289 192 -166 c 1,39,-1
 186 506 l 1,0,1
EndSplineSet
Validated: 1
EndChar

StartChar: ordfeminine
Encoding: 170 170 156
Width: 565
GlyphClass: 2
Flags: W
LayerCount: 2
Fore
SplineSet
549 836 m 1,0,-1
 635 821 l 1,1,-1
 626 782 l 1,2,-1
 426 782 l 1,3,-1
 438 856 l 1,4,5
 354 767 354 767 250 767 c 0,6,7
 180 767 180 767 136 826.5 c 128,-1,8
 92 886 92 886 92 983 c 0,9,10
 92 1090 92 1090 135.5 1176.5 c 128,-1,11
 179 1263 179 1263 260 1312.5 c 128,-1,12
 341 1362 341 1362 446 1362 c 0,13,14
 511 1362 511 1362 578 1336 c 1,15,-1
 584 1339 l 1,16,-1
 616 1357 l 1,17,-1
 646 1357 l 1,18,-1
 549 836 l 1,0,-1
508 1278 m 1,19,20
 464 1305 464 1305 410 1305 c 0,21,22
 325 1305 325 1305 271.5 1216 c 128,-1,23
 218 1127 218 1127 218 992 c 0,24,25
 218 853 218 853 308 853 c 0,26,27
 369 853 369 853 440 895 c 1,28,-1
 508 1278 l 1,19,20
EndSplineSet
Validated: 1
EndChar

StartChar: ordmasculine
Encoding: 186 186 157
Width: 635
GlyphClass: 2
Flags: W
LayerCount: 2
Fore
SplineSet
430 1305 m 0,0,1
 352 1305 352 1305 296.5 1217 c 128,-1,2
 241 1129 241 1129 241 998 c 0,3,4
 241 917 241 917 270.5 873 c 128,-1,5
 300 829 300 829 353 829 c 0,6,7
 433 829 433 829 488.5 918 c 128,-1,8
 544 1007 544 1007 544 1133 c 0,9,10
 544 1218 544 1218 514.5 1261.5 c 128,-1,11
 485 1305 485 1305 430 1305 c 0,0,1
340 770 m 0,12,13
 239 770 239 770 176.5 833.5 c 128,-1,14
 114 897 114 897 114 1007 c 0,15,16
 114 1104 114 1104 156.5 1186.5 c 128,-1,17
 199 1269 199 1269 275 1315.5 c 128,-1,18
 351 1362 351 1362 446 1362 c 0,19,20
 547 1362 547 1362 609.5 1298.5 c 128,-1,21
 672 1235 672 1235 672 1125 c 0,22,23
 672 974 672 974 578.5 872 c 128,-1,24
 485 770 485 770 340 770 c 0,12,13
EndSplineSet
Validated: 1
EndChar

StartChar: Ohm
Encoding: 8486 8486 158
Width: 1573
GlyphClass: 2
Flags: W
LayerCount: 2
Fore
SplineSet
786 1276 m 256,0,1
 560 1276 560 1276 450 1162.5 c 128,-1,2
 340 1049 340 1049 340 801 c 0,3,4
 340 602 340 602 432 483 c 128,-1,5
 524 364 524 364 693 343 c 1,6,-1
 720 0 l 1,7,-1
 151 0 l 1,8,-1
 132 330 l 1,9,-1
 198 330 l 1,10,-1
 255 186 l 1,11,12
 335 170 335 170 539 170 c 2,13,-1
 611 170 l 1,14,-1
 601 271 l 1,15,16
 386 304 386 304 258.5 447 c 128,-1,17
 131 590 131 590 131 801 c 0,18,19
 131 1073 131 1073 297 1214.5 c 128,-1,20
 463 1356 463 1356 786 1356 c 256,21,22
 1109 1356 1109 1356 1275 1214.5 c 128,-1,23
 1441 1073 1441 1073 1441 801 c 0,24,25
 1441 590 1441 590 1313 447 c 128,-1,26
 1185 304 1185 304 971 271 c 1,27,-1
 961 170 l 1,28,-1
 1033 170 l 2,29,30
 1237 170 1237 170 1317 186 c 1,31,-1
 1374 330 l 1,32,-1
 1440 330 l 1,33,-1
 1421 0 l 1,34,-1
 852 0 l 1,35,-1
 879 343 l 1,36,37
 1049 364 1049 364 1140.5 483 c 128,-1,38
 1232 602 1232 602 1232 801 c 0,39,40
 1232 1050 1232 1050 1122 1163 c 128,-1,41
 1012 1276 1012 1276 786 1276 c 256,0,1
EndSplineSet
Validated: 1
EndChar

StartChar: ae
Encoding: 230 230 159
Width: 1366
GlyphClass: 2
Flags: W
AnchorPoint: "bottom" 574 -76 basechar 0
AnchorPoint: "top" 848 1028 basechar 0
LayerCount: 2
Fore
SplineSet
1320 771 m 0,0,1
 1320 680 1320 680 1253.5 603 c 128,-1,2
 1187 526 1187 526 1061.5 475.5 c 128,-1,3
 936 425 936 425 779 413 c 1,4,5
 771 359 771 359 771 296 c 0,6,7
 771 84 771 84 956 84 c 0,8,9
 1077 84 1077 84 1217 184 c 1,10,-1
 1246 142 l 1,11,12
 1060 -20 1060 -20 890 -20 c 0,13,14
 787 -20 787 -20 725 19 c 128,-1,15
 663 58 663 58 621 147 c 1,16,17
 541 69 541 69 457 24 c 128,-1,18
 373 -21 373 -21 304 -21 c 0,19,20
 198 -21 198 -21 130.5 72.5 c 128,-1,21
 63 166 63 166 63 317 c 0,22,23
 63 489 63 489 137 641 c 128,-1,24
 211 793 211 793 338.5 878.5 c 128,-1,25
 466 964 466 964 618 964 c 0,26,27
 680 964 680 964 740 942.5 c 128,-1,28
 800 921 800 921 841 891 c 1,29,30
 934 965 934 965 1077 965 c 0,31,32
 1192 965 1192 965 1256 912.5 c 128,-1,33
 1320 860 1320 860 1320 771 c 0,0,1
391 104 m 0,34,35
 437 104 437 104 494 135 c 128,-1,36
 551 166 551 166 603 216 c 1,37,38
 595 272 595 272 595 309 c 0,39,40
 595 604 595 604 767 819 c 1,41,42
 678 885 678 885 591 885 c 0,43,44
 500 885 500 885 419.5 805 c 128,-1,45
 339 725 339 725 290 595 c 128,-1,46
 241 465 241 465 241 335 c 0,47,48
 241 225 241 225 282 164.5 c 128,-1,49
 323 104 323 104 391 104 c 0,34,35
1145 774 m 0,50,51
 1145 827 1145 827 1120.5 857.5 c 128,-1,52
 1096 888 1096 888 1048 888 c 0,53,54
 957 888 957 888 889.5 780 c 128,-1,55
 822 672 822 672 789 476 c 1,56,57
 960 493 960 493 1052.5 572 c 128,-1,58
 1145 651 1145 651 1145 774 c 0,50,51
EndSplineSet
EndChar

StartChar: oslash
Encoding: 248 248 160
Width: 1024
GlyphClass: 2
Flags: W
LayerCount: 2
Fore
SplineSet
427 -20 m 0,0,1
 291 -20 291 -20 199 52 c 1,2,-1
 80 -84 l 1,3,-1
 -27 -84 l 1,4,-1
 142 108 l 1,5,6
 61 214 61 214 61 374 c 0,7,8
 61 535 61 535 130 672 c 128,-1,9
 199 809 199 809 321.5 887 c 128,-1,10
 444 965 444 965 597 965 c 0,11,12
 735 965 735 965 828 890 c 1,13,-1
 945 1022 l 1,14,-1
 1049 1022 l 1,15,-1
 884 833 l 1,16,17
 963 729 963 729 963 571 c 0,18,19
 963 410 963 410 894 273 c 128,-1,20
 825 136 825 136 702.5 58 c 128,-1,21
 580 -20 580 -20 427 -20 c 0,0,1
579 890 m 0,22,23
 488 890 488 890 409.5 820 c 128,-1,24
 331 750 331 750 286 625.5 c 128,-1,25
 241 501 241 501 241 354 c 0,26,27
 241 286 241 286 253 234 c 1,28,-1
 742 792 l 1,29,30
 690 890 690 890 579 890 c 0,22,23
783 590 m 0,31,32
 783 653 783 653 772 706 c 1,33,-1
 285 150 l 1,34,35
 337 59 337 59 442 59 c 0,36,37
 533 59 533 59 612 129.5 c 128,-1,38
 691 200 691 200 737 322 c 128,-1,39
 783 444 783 444 783 590 c 0,31,32
EndSplineSet
Validated: 1
EndChar

StartChar: questiondown
Encoding: 191 191 161
Width: 1024
GlyphClass: 2
Flags: W
LayerCount: 2
Fore
SplineSet
593 582 m 1,0,-1
 673 582 l 1,1,-1
 640 248 l 1,2,-1
 492 219 l 2,3,4
 376 196 376 196 321 115.5 c 128,-1,5
 266 35 266 35 266 -119 c 0,6,7
 266 -340 266 -340 465 -340 c 0,8,9
 524 -340 524 -340 585.5 -319 c 128,-1,10
 647 -298 647 -298 688 -268 c 1,11,-1
 738 -104 l 1,12,-1
 804 -104 l 1,13,-1
 773 -358 l 1,14,15
 614 -424 614 -424 454 -424 c 0,16,17
 88 -424 88 -424 88 -131 c 0,18,19
 88 227 88 227 475 309 c 1,20,-1
 534 322 l 1,21,-1
 593 582 l 1,0,-1
550 840 m 0,22,23
 550 889 550 889 584.5 925 c 128,-1,24
 619 961 619 961 670 961 c 0,25,26
 722 961 722 961 756.5 925 c 128,-1,27
 791 889 791 889 791 840 c 0,28,29
 791 789 791 789 756 754 c 128,-1,30
 721 719 721 719 670 719 c 0,31,32
 620 719 620 719 585 753.5 c 128,-1,33
 550 788 550 788 550 840 c 0,22,23
EndSplineSet
Validated: 1
EndChar

StartChar: exclamdown
Encoding: 161 161 162
Width: 797
GlyphClass: 2
Flags: W
LayerCount: 2
Fore
SplineSet
328 840 m 0,0,1
 328 889 328 889 362.5 925 c 128,-1,2
 397 961 397 961 449 961 c 256,3,4
 501 961 501 961 535.5 925 c 128,-1,5
 570 889 570 889 570 840 c 0,6,7
 570 789 570 789 535 754 c 128,-1,8
 500 719 500 719 449 719 c 256,9,10
 398 719 398 719 363 754 c 128,-1,11
 328 789 328 789 328 840 c 0,0,1
354 -409 m 1,12,-1
 136 -409 l 1,13,-1
 365 543 l 1,14,-1
 459 543 l 1,15,-1
 354 -409 l 1,12,-1
EndSplineSet
Validated: 1
EndChar

StartChar: logicalnot
Encoding: 172 172 163
Width: 1382
GlyphClass: 2
Flags: W
LayerCount: 2
Fore
SplineSet
1178 731 m 1,0,-1
 1178 203 l 1,1,-1
 1075 203 l 1,2,-1
 1075 629 l 1,3,-1
 225 629 l 1,4,-1
 225 731 l 1,5,-1
 1178 731 l 1,0,-1
EndSplineSet
Validated: 1
EndChar

StartChar: radical
Encoding: 8730 8730 164
Width: 1124
GlyphClass: 2
Flags: W
LayerCount: 2
Fore
SplineSet
623 -14 m 1,0,-1
 516 -14 l 1,1,-1
 219 815 l 1,2,-1
 51 815 l 1,3,-1
 51 895 l 1,4,-1
 322 895 l 1,5,-1
 580 158 l 1,6,-1
 1032 1620 l 1,7,-1
 1122 1620 l 1,8,-1
 623 -14 l 1,0,-1
EndSplineSet
Validated: 1
EndChar

StartChar: florin
Encoding: 402 402 165
Width: 1024
GlyphClass: 2
Flags: W
LayerCount: 2
Fore
SplineSet
213 -285 m 1,0,-1
 384 702 l 1,1,-1
 223 702 l 1,2,-1
 233 752 l 1,3,-1
 400 786 l 1,4,-1
 440 1018 l 2,5,6
 468 1178 468 1178 560.5 1270 c 128,-1,7
 653 1362 653 1362 790 1362 c 0,8,9
 881 1362 881 1362 944 1343 c 1,10,-1
 937 1161 l 1,11,-1
 890 1161 l 1,12,-1
 861 1257 l 1,13,14
 830 1280 830 1280 775 1280 c 0,15,16
 730 1280 730 1280 700 1255.5 c 128,-1,17
 670 1231 670 1231 650.5 1184 c 128,-1,18
 631 1137 631 1137 606 1001 c 2,19,-1
 568 786 l 1,20,-1
 817 786 l 1,21,-1
 800 702 l 1,22,-1
 552 702 l 1,23,-1
 375 -285 l 1,24,-1
 213 -285 l 1,0,-1
EndSplineSet
Validated: 1
EndChar

StartChar: approxequal
Encoding: 8776 8776 166
Width: 1124
GlyphClass: 2
Flags: W
LayerCount: 2
Fore
SplineSet
811 711 m 0,0,1
 705 711 705 711 566 832 c 1,2,3
 492 895 492 895 443.5 923.5 c 128,-1,4
 395 952 395 952 357 952 c 0,5,6
 280 952 280 952 241 897.5 c 128,-1,7
 202 843 202 843 189 711 c 1,8,-1
 88 711 l 1,9,10
 106 898 106 898 172.5 976.5 c 128,-1,11
 239 1055 239 1055 357 1055 c 0,12,13
 412 1055 412 1055 472 1026 c 128,-1,14
 532 997 532 997 607 934 c 0,15,16
 693 862 693 862 734.5 837.5 c 128,-1,17
 776 813 776 813 811 813 c 0,18,19
 880 813 880 813 919 865.5 c 128,-1,20
 958 918 958 918 977 1055 c 1,21,-1
 1080 1055 l 1,22,23
 1063 925 1063 925 1031 856 c 128,-1,24
 999 787 999 787 946 749 c 128,-1,25
 893 711 893 711 811 711 c 0,0,1
811 301 m 0,26,27
 705 301 705 301 566 422 c 1,28,29
 492 485 492 485 443.5 513.5 c 128,-1,30
 395 542 395 542 357 542 c 0,31,32
 280 542 280 542 241 487.5 c 128,-1,33
 202 433 202 433 189 301 c 1,34,-1
 88 301 l 1,35,36
 106 488 106 488 172.5 566.5 c 128,-1,37
 239 645 239 645 357 645 c 0,38,39
 412 645 412 645 472 616 c 128,-1,40
 532 587 532 587 607 524 c 0,41,42
 693 452 693 452 734.5 427.5 c 128,-1,43
 776 403 776 403 811 403 c 0,44,45
 880 403 880 403 919 455.5 c 128,-1,46
 958 508 958 508 977 645 c 1,47,-1
 1080 645 l 1,48,49
 1063 515 1063 515 1031 446 c 128,-1,50
 999 377 999 377 946 339 c 128,-1,51
 893 301 893 301 811 301 c 0,26,27
EndSplineSet
Validated: 1
EndChar

StartChar: Delta
Encoding: 8710 8710 167
Width: 1253
GlyphClass: 2
Flags: W
LayerCount: 2
Fore
SplineSet
1208 0 m 1,0,-1
 46 0 l 1,1,-1
 46 80 l 1,2,-1
 523 1352 l 1,3,-1
 713 1352 l 1,4,-1
 1208 80 l 1,5,-1
 1208 0 l 1,0,-1
574 1196 m 1,6,-1
 174 109 l 1,7,-1
 980 109 l 1,8,-1
 574 1196 l 1,6,-1
EndSplineSet
Validated: 1
EndChar

StartChar: guillemotleft
Encoding: 171 171 168
Width: 1024
GlyphClass: 2
Flags: W
LayerCount: 2
Fore
SplineSet
539 852 m 1,0,-1
 600 852 l 1,1,-1
 280 457 l 1,2,-1
 463 74 l 1,3,-1
 402 74 l 1,4,-1
 111 430 l 1,5,-1
 122 496 l 1,6,-1
 539 852 l 1,0,-1
949 852 m 1,7,-1
 1010 852 l 1,8,-1
 689 457 l 1,9,-1
 873 74 l 1,10,-1
 812 74 l 1,11,-1
 520 430 l 1,12,-1
 531 496 l 1,13,-1
 949 852 l 1,7,-1
EndSplineSet
Validated: 1
EndChar

StartChar: guillemotright
Encoding: 187 187 169
Width: 1024
GlyphClass: 2
Flags: W
LayerCount: 2
Fore
SplineSet
484 74 m 1,0,-1
 423 74 l 1,1,-1
 744 470 l 1,2,-1
 560 852 l 1,3,-1
 621 852 l 1,4,-1
 912 496 l 1,5,-1
 901 430 l 1,6,-1
 484 74 l 1,0,-1
74 74 m 1,7,-1
 13 74 l 1,8,-1
 335 470 l 1,9,-1
 150 852 l 1,10,-1
 211 852 l 1,11,-1
 503 496 l 1,12,-1
 492 430 l 1,13,-1
 74 74 l 1,7,-1
EndSplineSet
Validated: 1
EndChar

StartChar: ellipsis
Encoding: 8230 8230 170
Width: 1821
GlyphClass: 2
Flags: W
LayerCount: 2
Fore
SplineSet
310 92 m 0,0,1
 310 43 310 43 275.5 7 c 128,-1,2
 241 -29 241 -29 189 -29 c 256,3,4
 137 -29 137 -29 102.5 7 c 128,-1,5
 68 43 68 43 68 92 c 0,6,7
 68 143 68 143 103 178 c 128,-1,8
 138 213 138 213 189 213 c 256,9,10
 240 213 240 213 275 178 c 128,-1,11
 310 143 310 143 310 92 c 0,0,1
996 92 m 0,12,13
 996 43 996 43 961.5 7 c 128,-1,14
 927 -29 927 -29 875 -29 c 256,15,16
 823 -29 823 -29 788.5 7 c 128,-1,17
 754 43 754 43 754 92 c 0,18,19
 754 143 754 143 789 178 c 128,-1,20
 824 213 824 213 875 213 c 256,21,22
 926 213 926 213 961 178 c 128,-1,23
 996 143 996 143 996 92 c 0,12,13
1682 92 m 0,24,25
 1682 43 1682 43 1647.5 7 c 128,-1,26
 1613 -29 1613 -29 1561 -29 c 256,27,28
 1509 -29 1509 -29 1474.5 7 c 128,-1,29
 1440 43 1440 43 1440 92 c 0,30,31
 1440 143 1440 143 1475 178 c 128,-1,32
 1510 213 1510 213 1561 213 c 256,33,34
 1612 213 1612 213 1647 178 c 128,-1,35
 1682 143 1682 143 1682 92 c 0,24,25
EndSplineSet
Validated: 1
EndChar

StartChar: OE
Encoding: 338 338 174
Width: 1933
GlyphClass: 2
Flags: W
LayerCount: 2
Fore
SplineSet
642 -6 m 0,0,1
 389 -6 389 -6 246 131 c 128,-1,2
 103 268 103 268 103 514 c 0,3,4
 103 749 103 749 199 941 c 128,-1,5
 295 1133 295 1133 470.5 1240.5 c 128,-1,6
 646 1348 646 1348 871 1348 c 1,7,-1
 1136 1341 l 1,8,-1
 1900 1341 l 1,9,-1
 1843 1020 l 1,10,-1
 1777 1020 l 1,11,-1
 1783 1237 l 1,12,13
 1674 1251 1674 1251 1462 1251 c 2,14,-1
 1243 1251 l 1,15,-1
 1150 727 l 1,16,-1
 1512 727 l 1,17,-1
 1572 887 l 1,18,-1
 1636 887 l 1,19,-1
 1563 475 l 1,20,-1
 1499 475 l 1,21,-1
 1497 637 l 1,22,-1
 1135 637 l 1,23,-1
 1038 90 l 1,24,-1
 1302 90 l 2,25,26
 1558 90 1558 90 1643 106 c 1,27,-1
 1744 354 l 1,28,-1
 1810 354 l 1,29,-1
 1728 0 l 1,30,-1
 917 0 l 1,31,32
 839 -6 839 -6 642 -6 c 0,0,1
655 65 m 0,33,34
 768 65 768 65 844 87 c 1,35,-1
 1048 1252 l 1,36,37
 982 1276 982 1276 858 1276 c 0,38,39
 709 1276 709 1276 584.5 1174.5 c 128,-1,40
 460 1073 460 1073 381.5 884 c 128,-1,41
 303 695 303 695 303 503 c 0,42,43
 303 294 303 294 395 179.5 c 128,-1,44
 487 65 487 65 655 65 c 0,33,34
EndSplineSet
Validated: 1
EndChar

StartChar: oe
Encoding: 339 339 175
Width: 1366
GlyphClass: 2
Flags: W
LayerCount: 2
Fore
SplineSet
341 -20 m 0,0,1
 208 -20 208 -20 134.5 71 c 128,-1,2
 61 162 61 162 61 328 c 0,3,4
 61 504 61 504 124 651 c 128,-1,5
 187 798 187 798 300.5 881.5 c 128,-1,6
 414 965 414 965 557 965 c 0,7,8
 718 965 718 965 792 820 c 1,9,10
 840 886 840 886 918.5 925.5 c 128,-1,11
 997 965 997 965 1092 965 c 0,12,13
 1198 965 1198 965 1259 916 c 128,-1,14
 1320 867 1320 867 1320 777 c 0,15,16
 1320 682 1320 682 1258.5 603.5 c 128,-1,17
 1197 525 1197 525 1081.5 475.5 c 128,-1,18
 966 426 966 426 808 413 c 1,19,20
 807 406 807 406 801 358 c 128,-1,21
 795 310 795 310 795 270 c 0,22,23
 795 168 795 168 836 126 c 128,-1,24
 877 84 877 84 956 84 c 0,25,26
 1077 84 1077 84 1217 184 c 1,27,-1
 1246 142 l 1,28,29
 1066 -20 1066 -20 898 -20 c 0,30,31
 716 -20 716 -20 663 131 c 1,32,33
 536 -20 536 -20 341 -20 c 0,0,1
360 62 m 0,34,35
 434 62 434 62 504 146 c 128,-1,36
 574 230 574 230 618.5 370.5 c 128,-1,37
 663 511 663 511 663 667 c 0,38,39
 663 772 663 772 628.5 829.5 c 128,-1,40
 594 887 594 887 532 887 c 0,41,42
 457 887 457 887 387.5 800.5 c 128,-1,43
 318 714 318 714 276.5 571 c 128,-1,44
 235 428 235 428 235 279 c 0,45,46
 235 176 235 176 267 119 c 128,-1,47
 299 62 299 62 360 62 c 0,34,35
818 476 m 1,48,49
 981 492 981 492 1065 567 c 128,-1,50
 1149 642 1149 642 1149 767 c 0,51,52
 1149 827 1149 827 1126 857.5 c 128,-1,53
 1103 888 1103 888 1068 888 c 0,54,55
 987 888 987 888 917.5 774 c 128,-1,56
 848 660 848 660 818 476 c 1,48,49
EndSplineSet
Validated: 1
EndChar

StartChar: endash
Encoding: 8211 8211 176
Width: 1024
GlyphClass: 2
Flags: W
LayerCount: 2
Fore
SplineSet
1038 528 m 1,0,-1
 1038 426 l 1,1,-1
 -14 426 l 1,2,-1
 -14 528 l 1,3,-1
 1038 528 l 1,0,-1
EndSplineSet
Validated: 1
EndChar

StartChar: emdash
Encoding: 8212 8212 177
Width: 1821
GlyphClass: 2
Flags: W
LayerCount: 2
Fore
SplineSet
1831 528 m 1,0,-1
 1831 426 l 1,1,-1
 -14 426 l 1,2,-1
 -14 528 l 1,3,-1
 1831 528 l 1,0,-1
EndSplineSet
Validated: 1
EndChar

StartChar: quotedblleft
Encoding: 8220 8220 178
Width: 1139
GlyphClass: 2
Flags: W
LayerCount: 2
Fore
SplineSet
713 1005 m 0,0,1
 713 1136 713 1136 796 1227.5 c 128,-1,2
 879 1319 879 1319 1028 1362 c 1,3,-1
 1028 1285 l 1,4,5
 842 1226 842 1226 842 1117 c 0,6,7
 842 1089 842 1089 861.5 1075 c 128,-1,8
 881 1061 881 1061 904.5 1046.5 c 128,-1,9
 928 1032 928 1032 947.5 1010.5 c 128,-1,10
 967 989 967 989 967 947 c 0,11,12
 967 893 967 893 933 864.5 c 128,-1,13
 899 836 899 836 846 836 c 0,14,15
 785 836 785 836 749 881 c 128,-1,16
 713 926 713 926 713 1005 c 0,0,1
300 1005 m 0,17,18
 300 1136 300 1136 383 1227.5 c 128,-1,19
 466 1319 466 1319 615 1362 c 1,20,-1
 615 1285 l 1,21,22
 429 1226 429 1226 429 1117 c 0,23,24
 429 1089 429 1089 448.5 1075 c 128,-1,25
 468 1061 468 1061 491.5 1046.5 c 128,-1,26
 515 1032 515 1032 534.5 1010.5 c 128,-1,27
 554 989 554 989 554 947 c 0,28,29
 554 893 554 893 520 864.5 c 128,-1,30
 486 836 486 836 433 836 c 0,31,32
 372 836 372 836 336 881 c 128,-1,33
 300 926 300 926 300 1005 c 0,17,18
EndSplineSet
Validated: 1
EndChar

StartChar: quotedblright
Encoding: 8221 8221 179
Width: 1139
GlyphClass: 2
Flags: W
LayerCount: 2
Fore
SplineSet
620 1193 m 0,0,1
 620 1062 620 1062 537 970.5 c 128,-1,2
 454 879 454 879 305 836 c 1,3,-1
 305 913 l 1,4,5
 491 972 491 972 491 1081 c 0,6,7
 491 1109 491 1109 471.5 1123 c 128,-1,8
 452 1137 452 1137 428.5 1151.5 c 128,-1,9
 405 1166 405 1166 385.5 1187.5 c 128,-1,10
 366 1209 366 1209 366 1251 c 0,11,12
 366 1305 366 1305 400 1333.5 c 128,-1,13
 434 1362 434 1362 487 1362 c 0,14,15
 548 1362 548 1362 584 1317 c 128,-1,16
 620 1272 620 1272 620 1193 c 0,0,1
1033 1193 m 0,17,18
 1033 1062 1033 1062 950 970.5 c 128,-1,19
 867 879 867 879 718 836 c 1,20,-1
 718 913 l 1,21,22
 904 972 904 972 904 1081 c 0,23,24
 904 1109 904 1109 884.5 1123 c 128,-1,25
 865 1137 865 1137 841.5 1151.5 c 128,-1,26
 818 1166 818 1166 798.5 1187.5 c 128,-1,27
 779 1209 779 1209 779 1251 c 0,28,29
 779 1305 779 1305 813 1333.5 c 128,-1,30
 847 1362 847 1362 900 1362 c 0,31,32
 961 1362 961 1362 997 1317 c 128,-1,33
 1033 1272 1033 1272 1033 1193 c 0,17,18
EndSplineSet
Validated: 1
EndChar

StartChar: quoteleft
Encoding: 8216 8216 180
Width: 682
GlyphClass: 2
Flags: W
LayerCount: 2
Fore
SplineSet
302 1005 m 0,0,1
 302 1136 302 1136 385 1227.5 c 128,-1,2
 468 1319 468 1319 617 1362 c 1,3,-1
 617 1285 l 1,4,5
 431 1226 431 1226 431 1117 c 0,6,7
 431 1089 431 1089 450.5 1075 c 128,-1,8
 470 1061 470 1061 493.5 1046.5 c 128,-1,9
 517 1032 517 1032 536.5 1010.5 c 128,-1,10
 556 989 556 989 556 947 c 0,11,12
 556 893 556 893 522 864.5 c 128,-1,13
 488 836 488 836 435 836 c 0,14,15
 374 836 374 836 338 881 c 128,-1,16
 302 926 302 926 302 1005 c 0,0,1
EndSplineSet
Validated: 1
EndChar

StartChar: quoteright
Encoding: 8217 8217 181
Width: 682
GlyphClass: 2
Flags: W
LayerCount: 2
Fore
SplineSet
620 1193 m 0,0,1
 620 1062 620 1062 537 970.5 c 128,-1,2
 454 879 454 879 305 836 c 1,3,-1
 305 913 l 1,4,5
 491 972 491 972 491 1081 c 0,6,7
 491 1109 491 1109 471.5 1123 c 128,-1,8
 452 1137 452 1137 428.5 1151.5 c 128,-1,9
 405 1166 405 1166 385.5 1187.5 c 128,-1,10
 366 1209 366 1209 366 1251 c 0,11,12
 366 1305 366 1305 400 1333.5 c 128,-1,13
 434 1362 434 1362 487 1362 c 0,14,15
 548 1362 548 1362 584 1317 c 128,-1,16
 620 1272 620 1272 620 1193 c 0,0,1
EndSplineSet
Validated: 1
EndChar

StartChar: divide
Encoding: 247 247 182
Width: 1124
GlyphClass: 2
Flags: W
LayerCount: 2
Fore
SplineSet
688 1063 m 256,0,1
 688 1023 688 1023 660 995 c 128,-1,2
 632 967 632 967 592 967 c 0,3,4
 551 967 551 967 523 995 c 128,-1,5
 495 1023 495 1023 495 1063 c 256,6,7
 495 1103 495 1103 523 1131 c 128,-1,8
 551 1159 551 1159 592 1159 c 0,9,10
 632 1159 632 1159 660 1131 c 128,-1,11
 688 1103 688 1103 688 1063 c 256,0,1
688 297 m 256,12,13
 688 257 688 257 660 229 c 128,-1,14
 632 201 632 201 592 201 c 0,15,16
 551 201 551 201 523 229 c 128,-1,17
 495 257 495 257 495 297 c 256,18,19
 495 337 495 337 523 365 c 128,-1,20
 551 393 551 393 592 393 c 0,21,22
 632 393 632 393 660 365 c 128,-1,23
 688 337 688 337 688 297 c 256,12,13
1069 731 m 1,24,-1
 1069 629 l 1,25,-1
 116 629 l 1,26,-1
 116 731 l 1,27,-1
 1069 731 l 1,24,-1
EndSplineSet
Validated: 1
EndChar

StartChar: lozenge
Encoding: 9674 9674 183
Width: 1012
GlyphClass: 2
Flags: W
LayerCount: 2
Fore
SplineSet
547 0 m 1,0,-1
 465 0 l 1,1,-1
 8 719 l 1,2,-1
 465 1440 l 1,3,-1
 547 1440 l 1,4,-1
 1006 721 l 1,5,-1
 547 0 l 1,0,-1
508 1286 m 1,6,-1
 154 721 l 1,7,-1
 508 147 l 1,8,-1
 860 721 l 1,9,-1
 508 1286 l 1,6,-1
EndSplineSet
Validated: 1
EndChar

StartChar: fraction
Encoding: 8260 8260 186
Width: 342
GlyphClass: 2
Flags: W
LayerCount: 2
Fore
SplineSet
-260 0 m 1,0,-1
 -362 0 l 1,1,-1
 602 1341 l 1,2,-1
 702 1341 l 1,3,-1
 -260 0 l 1,0,-1
EndSplineSet
Validated: 1
EndChar

StartChar: Euro
Encoding: 8364 8364 187
Width: 1024
GlyphClass: 2
Flags: W
LayerCount: 2
Fore
SplineSet
194 829 m 1,0,1
 272 1098 272 1098 423 1227 c 128,-1,2
 574 1356 574 1356 785 1356 c 0,3,4
 859 1356 859 1356 932 1345.5 c 128,-1,5
 1005 1335 1005 1335 1104 1305 c 1,6,-1
 1063 1053 l 1,7,-1
 995 1053 l 1,8,-1
 999 1186 l 1,9,10
 961 1229 961 1229 906.5 1252.5 c 128,-1,11
 852 1276 852 1276 792 1276 c 0,12,13
 649 1276 649 1276 555 1166.5 c 128,-1,14
 461 1057 461 1057 401 829 c 1,15,-1
 751 829 l 1,16,-1
 737 748 l 1,17,-1
 382 748 l 1,18,19
 363 670 363 670 352 584 c 1,20,-1
 708 584 l 1,21,-1
 693 502 l 1,22,-1
 343 502 l 1,23,-1
 339 401 l 1,24,25
 339 227 339 227 402.5 142 c 128,-1,26
 466 57 466 57 579 57 c 0,27,28
 661 57 661 57 727 87 c 128,-1,29
 793 117 793 117 834 158 c 1,30,-1
 887 317 l 1,31,-1
 954 317 l 1,32,-1
 901 43 l 1,33,34
 740 -20 740 -20 557 -20 c 0,35,36
 356 -20 356 -20 245 103.5 c 128,-1,37
 134 227 134 227 134 446 c 1,38,-1
 136 502 l 1,39,-1
 24 502 l 1,40,-1
 39 584 l 1,41,-1
 144 584 l 1,42,43
 154 673 154 673 174 748 c 1,44,-1
 68 748 l 1,45,-1
 82 829 l 1,46,-1
 194 829 l 1,0,1
EndSplineSet
Validated: 1
EndChar

StartChar: guilsinglleft
Encoding: 8249 8249 188
Width: 682
GlyphClass: 2
Flags: W
LayerCount: 2
Fore
SplineSet
539 852 m 1,0,-1
 600 852 l 1,1,-1
 280 457 l 1,2,-1
 463 74 l 1,3,-1
 402 74 l 1,4,-1
 111 430 l 1,5,-1
 122 496 l 1,6,-1
 539 852 l 1,0,-1
EndSplineSet
Validated: 1
EndChar

StartChar: guilsinglright
Encoding: 8250 8250 189
Width: 682
GlyphClass: 2
Flags: W
LayerCount: 2
Fore
SplineSet
143 74 m 1,0,-1
 82 74 l 1,1,-1
 404 470 l 1,2,-1
 219 852 l 1,3,-1
 280 852 l 1,4,-1
 572 496 l 1,5,-1
 561 430 l 1,6,-1
 143 74 l 1,0,-1
EndSplineSet
Validated: 1
EndChar

StartChar: fi
Encoding: 61441 61441 190
AltUni2: 00fb01.ffffffff.0
Width: 1024
GlyphClass: 2
Flags: W
LayerCount: 2
Fore
SplineSet
189 -436 m 1,0,-1
 23 -436 l 1,1,-1
 248 856 l 1,2,-1
 86 856 l 1,3,-1
 94 905 l 1,4,-1
 264 944 l 1,5,-1
 276 1010 l 2,6,7
 317 1236 317 1236 426.5 1339 c 128,-1,8
 536 1442 536 1442 741 1442 c 0,9,10
 840 1442 840 1442 921 1423 c 1,11,-1
 886 1227 l 1,12,-1
 820 1227 l 1,13,-1
 795 1341 l 1,14,15
 757 1362 757 1362 682 1362 c 0,16,17
 592 1362 592 1362 540 1301 c 128,-1,18
 488 1240 488 1240 455 1096 c 1,19,-1
 428 940 l 1,20,-1
 895 940 l 1,21,-1
 742 70 l 1,22,-1
 899 45 l 1,23,-1
 891 0 l 1,24,-1
 564 0 l 1,25,-1
 714 856 l 1,26,-1
 414 856 l 1,27,-1
 189 -436 l 1,0,-1
EndSplineSet
Validated: 1
EndChar

StartChar: fl
Encoding: 61442 61442 191
AltUni2: 00fb02.ffffffff.0
Width: 1024
GlyphClass: 2
Flags: W
LayerCount: 2
Fore
SplineSet
742 70 m 1,0,-1
 899 45 l 1,1,-1
 891 0 l 1,2,-1
 564 0 l 1,3,-1
 799 1340 l 1,4,-1
 799 1341 l 1,5,6
 761 1362 761 1362 686 1362 c 0,7,8
 594 1362 594 1362 540.5 1300 c 128,-1,9
 487 1238 487 1238 455 1096 c 1,10,-1
 428 940 l 1,11,-1
 637 940 l 1,12,-1
 623 856 l 1,13,-1
 414 856 l 1,14,-1
 189 -436 l 1,15,-1
 23 -436 l 1,16,-1
 248 856 l 1,17,-1
 86 856 l 1,18,-1
 94 905 l 1,19,-1
 264 944 l 1,20,-1
 276 1010 l 2,21,22
 307 1177 307 1177 361.5 1267.5 c 128,-1,23
 416 1358 416 1358 506.5 1400 c 128,-1,24
 597 1442 597 1442 745 1442 c 0,25,26
 790 1442 790 1442 876.5 1437 c 128,-1,27
 963 1432 963 1432 981 1429 c 1,28,-1
 742 70 l 1,0,-1
EndSplineSet
Validated: 1
EndChar

StartChar: daggerdbl
Encoding: 8225 8225 192
Width: 1024
GlyphClass: 2
Flags: W
LayerCount: 2
Fore
SplineSet
402 401 m 1,0,-1
 508 590 l 1,1,-1
 469 780 l 1,2,-1
 560 940 l 1,3,-1
 136 893 l 1,4,-1
 163 1049 l 1,5,-1
 572 1006 l 1,6,-1
 602 1421 l 1,7,-1
 758 1421 l 1,8,-1
 638 1006 l 1,9,-1
 1061 1049 l 1,10,-1
 1034 893 l 1,11,-1
 626 940 l 1,12,-1
 665 780 l 1,13,-1
 554 590 l 1,14,-1
 598 401 l 1,15,-1
 503 242 l 1,16,-1
 927 289 l 1,17,-1
 900 133 l 1,18,-1
 491 176 l 1,19,-1
 465 -240 l 1,20,-1
 309 -240 l 1,21,-1
 425 176 l 1,22,-1
 3 133 l 1,23,-1
 29 289 l 1,24,-1
 437 242 l 1,25,-1
 402 401 l 1,0,-1
EndSplineSet
Validated: 1
EndChar

StartChar: bulletoperator
Encoding: 8729 8729 193
Width: 512
GlyphClass: 2
Flags: W
LayerCount: 2
Fore
SplineSet
407 678 m 0,0,1
 407 627 407 627 372 592 c 128,-1,2
 337 557 337 557 286 557 c 256,3,4
 235 557 235 557 200 592 c 128,-1,5
 165 627 165 627 165 678 c 0,6,7
 165 727 165 727 199.5 763 c 128,-1,8
 234 799 234 799 286 799 c 256,9,10
 338 799 338 799 372.5 763 c 128,-1,11
 407 727 407 727 407 678 c 0,0,1
EndSplineSet
Validated: 1
EndChar

StartChar: quotesinglbase
Encoding: 8218 8218 194
Width: 682
GlyphClass: 2
Flags: W
LayerCount: 2
Fore
SplineSet
483 42 m 0,0,1
 483 -89 483 -89 400 -180.5 c 128,-1,2
 317 -272 317 -272 168 -315 c 1,3,-1
 168 -238 l 1,4,5
 354 -179 354 -179 354 -70 c 0,6,7
 354 -42 354 -42 334.5 -28 c 128,-1,8
 315 -14 315 -14 291.5 0.5 c 128,-1,9
 268 15 268 15 248.5 36.5 c 128,-1,10
 229 58 229 58 229 100 c 0,11,12
 229 154 229 154 263 182.5 c 128,-1,13
 297 211 297 211 350 211 c 0,14,15
 411 211 411 211 447 166 c 128,-1,16
 483 121 483 121 483 42 c 0,0,1
EndSplineSet
Validated: 1
EndChar

StartChar: quotedblbase
Encoding: 8222 8222 195
Width: 1139
GlyphClass: 2
Flags: W
LayerCount: 2
Fore
SplineSet
398 42 m 0,0,1
 398 -89 398 -89 315 -180.5 c 128,-1,2
 232 -272 232 -272 83 -315 c 1,3,-1
 83 -238 l 1,4,5
 269 -179 269 -179 269 -70 c 0,6,7
 269 -42 269 -42 249.5 -28 c 128,-1,8
 230 -14 230 -14 206.5 0.5 c 128,-1,9
 183 15 183 15 163.5 36.5 c 128,-1,10
 144 58 144 58 144 100 c 0,11,12
 144 154 144 154 178 182.5 c 128,-1,13
 212 211 212 211 265 211 c 0,14,15
 326 211 326 211 362 166 c 128,-1,16
 398 121 398 121 398 42 c 0,0,1
811 42 m 0,17,18
 811 -89 811 -89 728 -180.5 c 128,-1,19
 645 -272 645 -272 496 -315 c 1,20,-1
 496 -238 l 1,21,22
 682 -179 682 -179 682 -70 c 0,23,24
 682 -42 682 -42 662.5 -28 c 128,-1,25
 643 -14 643 -14 619.5 0.5 c 128,-1,26
 596 15 596 15 576.5 36.5 c 128,-1,27
 557 58 557 58 557 100 c 0,28,29
 557 154 557 154 591 182.5 c 128,-1,30
 625 211 625 211 678 211 c 0,31,32
 739 211 739 211 775 166 c 128,-1,33
 811 121 811 121 811 42 c 0,17,18
EndSplineSet
Validated: 1
EndChar

StartChar: perthousand
Encoding: 8240 8240 196
Width: 2048
GlyphClass: 2
Flags: W
LayerCount: 2
Fore
SplineSet
376 664 m 0,0,1
 123 664 123 664 123 911 c 0,2,3
 123 1033 123 1033 166 1144.5 c 128,-1,4
 209 1256 209 1256 291.5 1309 c 128,-1,5
 374 1362 374 1362 498 1362 c 0,6,7
 735 1362 735 1362 735 1125 c 0,8,9
 735 1041 735 1041 710.5 945.5 c 128,-1,10
 686 850 686 850 640.5 787.5 c 128,-1,11
 595 725 595 725 528.5 694.5 c 128,-1,12
 462 664 462 664 376 664 c 0,0,1
582 1145 m 0,13,14
 582 1218 582 1218 557.5 1253 c 128,-1,15
 533 1288 533 1288 477 1288 c 0,16,17
 406 1288 406 1288 364.5 1241 c 128,-1,18
 323 1194 323 1194 299 1083 c 128,-1,19
 275 972 275 972 275 886 c 0,20,21
 275 812 275 812 301.5 774.5 c 128,-1,22
 328 737 328 737 391 737 c 256,23,24
 454 737 454 737 492.5 785.5 c 128,-1,25
 531 834 531 834 556.5 944 c 128,-1,26
 582 1054 582 1054 582 1145 c 0,13,14
171 -20 m 1,27,-1
 59 -20 l 1,28,-1
 1251 1362 l 1,29,-1
 1363 1362 l 1,30,-1
 171 -20 l 1,27,-1
923 -29 m 0,31,32
 670 -29 670 -29 670 218 c 0,33,34
 670 340 670 340 713 451.5 c 128,-1,35
 756 563 756 563 838.5 616 c 128,-1,36
 921 669 921 669 1045 669 c 0,37,38
 1282 669 1282 669 1282 432 c 0,39,40
 1282 348 1282 348 1257.5 252.5 c 128,-1,41
 1233 157 1233 157 1187.5 94.5 c 128,-1,42
 1142 32 1142 32 1075.5 1.5 c 128,-1,43
 1009 -29 1009 -29 923 -29 c 0,31,32
1129 452 m 0,44,45
 1129 525 1129 525 1104.5 560 c 128,-1,46
 1080 595 1080 595 1024 595 c 0,47,48
 953 595 953 595 911.5 548 c 128,-1,49
 870 501 870 501 846 390 c 128,-1,50
 822 279 822 279 822 193 c 0,51,52
 822 119 822 119 848.5 81.5 c 128,-1,53
 875 44 875 44 938 44 c 256,54,55
 1001 44 1001 44 1039.5 92.5 c 128,-1,56
 1078 141 1078 141 1103.5 251 c 128,-1,57
 1129 361 1129 361 1129 452 c 0,44,45
1619 -29 m 0,58,59
 1366 -29 1366 -29 1366 218 c 0,60,61
 1366 340 1366 340 1409 451.5 c 128,-1,62
 1452 563 1452 563 1534.5 616 c 128,-1,63
 1617 669 1617 669 1741 669 c 0,64,65
 1978 669 1978 669 1978 432 c 0,66,67
 1978 348 1978 348 1953.5 252.5 c 128,-1,68
 1929 157 1929 157 1883.5 94.5 c 128,-1,69
 1838 32 1838 32 1771.5 1.5 c 128,-1,70
 1705 -29 1705 -29 1619 -29 c 0,58,59
1825 452 m 0,71,72
 1825 525 1825 525 1800.5 560 c 128,-1,73
 1776 595 1776 595 1720 595 c 0,74,75
 1649 595 1649 595 1607.5 548 c 128,-1,76
 1566 501 1566 501 1542 390 c 128,-1,77
 1518 279 1518 279 1518 193 c 0,78,79
 1518 119 1518 119 1544.5 81.5 c 128,-1,80
 1571 44 1571 44 1634 44 c 256,81,82
 1697 44 1697 44 1735.5 92.5 c 128,-1,83
 1774 141 1774 141 1799.5 251 c 128,-1,84
 1825 361 1825 361 1825 452 c 0,71,72
EndSplineSet
Validated: 1
EndChar

StartChar: dotlessi
Encoding: 305 305 212
Width: 569
GlyphClass: 2
Flags: W
LayerCount: 2
Fore
SplineSet
287 70 m 1,0,-1
 444 45 l 1,1,-1
 436 0 l 1,2,-1
 109 0 l 1,3,-1
 262 870 l 1,4,-1
 133 895 l 1,5,-1
 141 940 l 1,6,-1
 440 940 l 1,7,-1
 287 70 l 1,0,-1
EndSplineSet
Validated: 1
EndChar

StartChar: circumflex
Encoding: 710 710 213
Width: 682
GlyphClass: 2
Flags: W
LayerCount: 2
Fore
SplineSet
174 1118 m 1,0,-1
 179 1151 l 1,1,-1
 414 1424 l 1,2,-1
 627 1424 l 1,3,-1
 766 1151 l 1,4,-1
 761 1118 l 1,5,-1
 714 1118 l 1,6,-1
 508 1301 l 1,7,-1
 238 1118 l 1,8,-1
 174 1118 l 1,0,-1
EndSplineSet
Validated: 1
EndChar

StartChar: tilde
Encoding: 732 732 214
Width: 682
GlyphClass: 2
Flags: W
LayerCount: 2
Fore
SplineSet
572 1119 m 0,0,1
 524 1119 524 1119 487.5 1140.5 c 128,-1,2
 451 1162 451 1162 419.5 1188.5 c 128,-1,3
 388 1215 388 1215 358.5 1236.5 c 128,-1,4
 329 1258 329 1258 296 1258 c 0,5,6
 264 1258 264 1258 243.5 1246.5 c 128,-1,7
 223 1235 223 1235 208.5 1215 c 128,-1,8
 194 1195 194 1195 175 1139 c 1,9,-1
 123 1139 l 1,10,11
 155 1266 155 1266 213.5 1323.5 c 128,-1,12
 272 1381 272 1381 361 1381 c 0,13,14
 409 1381 409 1381 446 1359.5 c 128,-1,15
 483 1338 483 1338 514.5 1311.5 c 128,-1,16
 546 1285 546 1285 575.5 1263.5 c 128,-1,17
 605 1242 605 1242 637 1242 c 0,18,19
 679 1242 679 1242 707 1266 c 128,-1,20
 735 1290 735 1290 758 1360 c 1,21,-1
 810 1360 l 1,22,23
 778 1235 778 1235 719.5 1177 c 128,-1,24
 661 1119 661 1119 572 1119 c 0,0,1
EndSplineSet
Validated: 1
EndChar

StartChar: firsttonechinese
Encoding: 713 713 215
Width: 682
GlyphClass: 2
Flags: W
LayerCount: 2
Fore
SplineSet
158 1161 m 5,0,-1
 177 1270 l 5,1,-1
 805 1270 l 5,2,-1
 786 1161 l 5,3,-1
 158 1161 l 5,0,-1
EndSplineSet
Validated: 1
EndChar

StartChar: breve
Encoding: 728 728 216
Width: 682
GlyphClass: 2
Flags: W
LayerCount: 2
Fore
SplineSet
465 1119 m 0,0,1
 349 1119 349 1119 286 1178 c 128,-1,2
 223 1237 223 1237 223 1343 c 1,3,-1
 227 1399 l 1,4,-1
 301 1399 l 1,5,6
 305 1334 305 1334 355.5 1297 c 128,-1,7
 406 1260 406 1260 490 1260 c 0,8,9
 576 1260 576 1260 638.5 1297.5 c 128,-1,10
 701 1335 701 1335 727 1399 c 1,11,-1
 801 1399 l 1,12,13
 774 1269 774 1269 686.5 1194 c 128,-1,14
 599 1119 599 1119 465 1119 c 0,0,1
EndSplineSet
Validated: 1
EndChar

StartChar: dotaccent
Encoding: 729 729 217
Width: 682
GlyphClass: 2
Flags: W
LayerCount: 2
Fore
SplineSet
580 1247 m 0,0,1
 580 1203 580 1203 548 1171 c 128,-1,2
 516 1139 516 1139 471 1139 c 0,3,4
 427 1139 427 1139 395 1171 c 128,-1,5
 363 1203 363 1203 363 1247 c 0,6,7
 363 1292 363 1292 395 1324 c 128,-1,8
 427 1356 427 1356 471 1356 c 0,9,10
 516 1356 516 1356 548 1324 c 128,-1,11
 580 1292 580 1292 580 1247 c 0,0,1
EndSplineSet
Validated: 1
EndChar

StartChar: ring
Encoding: 730 730 218
Width: 682
GlyphClass: 2
Flags: W
LayerCount: 2
Fore
SplineSet
675 1277 m 256,0,1
 675 1193 675 1193 615.5 1133.5 c 128,-1,2
 556 1074 556 1074 472 1074 c 256,3,4
 388 1074 388 1074 328.5 1133.5 c 128,-1,5
 269 1193 269 1193 269 1277 c 256,6,7
 269 1361 269 1361 328.5 1420.5 c 128,-1,8
 388 1480 388 1480 472 1480 c 256,9,10
 556 1480 556 1480 615.5 1420.5 c 128,-1,11
 675 1361 675 1361 675 1277 c 256,0,1
595 1277 m 0,12,13
 595 1328 595 1328 559 1364 c 128,-1,14
 523 1400 523 1400 472 1400 c 256,15,16
 421 1400 421 1400 385 1364 c 128,-1,17
 349 1328 349 1328 349 1277 c 0,18,19
 349 1225 349 1225 386 1189.5 c 128,-1,20
 423 1154 423 1154 472 1154 c 0,21,22
 520 1154 520 1154 557.5 1189 c 128,-1,23
 595 1224 595 1224 595 1277 c 0,12,13
EndSplineSet
Validated: 1
EndChar

StartChar: cedilla
Encoding: 184 184 219
Width: 682
GlyphClass: 2
Flags: W
LayerCount: 2
Fore
SplineSet
526 -212 m 0,0,1
 526 -310 526 -310 454.5 -368.5 c 128,-1,2
 383 -427 383 -427 247 -427 c 0,3,4
 175 -427 175 -427 114 -406 c 1,5,-1
 137 -331 l 1,6,7
 185 -347 185 -347 234 -347 c 0,8,9
 295 -347 295 -347 333 -319.5 c 128,-1,10
 371 -292 371 -292 371 -235 c 0,11,12
 371 -191 371 -191 337 -161.5 c 128,-1,13
 303 -132 303 -132 238 -126 c 1,14,-1
 306 27 l 1,15,-1
 392 27 l 1,16,-1
 359 -55 l 1,17,18
 439 -63 439 -63 482.5 -104 c 128,-1,19
 526 -145 526 -145 526 -212 c 0,0,1
EndSplineSet
Validated: 1
EndChar

StartChar: hungarumlaut
Encoding: 733 733 220
Width: 682
GlyphClass: 2
Flags: W
LayerCount: 2
Fore
SplineSet
83 1118 m 1,0,-1
 89 1151 l 1,1,-1
 316 1444 l 1,2,-1
 508 1444 l 1,3,-1
 502 1407 l 1,4,-1
 158 1118 l 1,5,-1
 83 1118 l 1,0,-1
433 1118 m 1,6,-1
 439 1151 l 1,7,-1
 666 1444 l 1,8,-1
 858 1444 l 1,9,-1
 852 1407 l 1,10,-1
 509 1118 l 1,11,-1
 433 1118 l 1,6,-1
EndSplineSet
Validated: 1
EndChar

StartChar: ogonek
Encoding: 731 731 221
Width: 682
GlyphClass: 2
Flags: W
LayerCount: 2
Fore
SplineSet
495 -354 m 1,0,1
 415 -403 415 -403 319 -403 c 0,2,3
 227 -403 227 -403 174.5 -354.5 c 128,-1,4
 122 -306 122 -306 122 -221 c 0,5,6
 122 -158 122 -158 156 -96.5 c 128,-1,7
 190 -35 190 -35 252 16 c 1,8,-1
 361 16 l 1,9,10
 319 -31 319 -31 295 -88 c 128,-1,11
 271 -145 271 -145 271 -202 c 0,12,13
 271 -256 271 -256 302 -285.5 c 128,-1,14
 333 -315 333 -315 390 -315 c 0,15,16
 436 -315 436 -315 479 -297 c 1,17,-1
 495 -354 l 1,0,1
EndSplineSet
Validated: 1
EndChar

StartChar: caron
Encoding: 711 711 222
Width: 682
GlyphClass: 2
Flags: W
LayerCount: 2
Fore
SplineSet
241 1424 m 1,0,-1
 447 1241 l 1,1,-1
 717 1424 l 1,2,-1
 777 1424 l 1,3,-1
 772 1391 l 1,4,-1
 537 1118 l 1,5,-1
 324 1118 l 1,6,-1
 184 1391 l 1,7,-1
 189 1424 l 1,8,-1
 241 1424 l 1,0,-1
EndSplineSet
Validated: 1
EndChar

StartChar: Lslash
Encoding: 321 321 223
Width: 1139
GlyphClass: 2
Flags: W
LayerCount: 2
Fore
SplineSet
470 736 m 1,0,-1
 810 915 l 1,1,-1
 793 821 l 1,2,-1
 453 642 l 1,3,-1
 355 86 l 1,4,-1
 569 86 l 2,5,6
 759 86 759 86 866 106 c 1,7,-1
 977 385 l 1,8,-1
 1042 385 l 1,9,-1
 956 0 l 1,10,-1
 -24 0 l 1,11,-1
 -14 53 l 1,12,-1
 161 80 l 1,13,-1
 240 530 l 1,14,-1
 36 422 l 1,15,-1
 52 518 l 1,16,-1
 257 625 l 1,17,-1
 370 1262 l 1,18,-1
 202 1288 l 1,19,-1
 212 1341 l 1,20,-1
 784 1341 l 1,21,-1
 774 1288 l 1,22,-1
 563 1262 l 1,23,-1
 470 736 l 1,0,-1
EndSplineSet
Validated: 1
EndChar

StartChar: lslash
Encoding: 322 322 224
Width: 569
GlyphClass: 2
Flags: W
LayerCount: 2
Fore
SplineSet
400 716 m 1,0,-1
 612 829 l 1,1,-1
 596 735 l 1,2,-1
 384 622 l 1,3,-1
 287 70 l 1,4,-1
 444 45 l 1,5,-1
 436 0 l 1,6,-1
 109 0 l 1,7,-1
 201 526 l 1,8,-1
 3 422 l 1,9,-1
 19 518 l 1,10,-1
 217 621 l 1,11,-1
 346 1352 l 1,12,-1
 217 1376 l 1,13,-1
 225 1421 l 1,14,-1
 524 1421 l 1,15,-1
 400 716 l 1,0,-1
EndSplineSet
Validated: 1
EndChar

StartChar: brokenbar
Encoding: 166 166 229
Width: 563
GlyphClass: 2
Flags: W
LayerCount: 2
Fore
SplineSet
267 801 m 1,0,-1
 267 1421 l 1,1,-1
 369 1421 l 1,2,-1
 369 801 l 1,3,-1
 267 801 l 1,0,-1
267 -442 m 1,4,-1
 267 180 l 1,5,-1
 369 180 l 1,6,-1
 369 -442 l 1,7,-1
 267 -442 l 1,4,-1
EndSplineSet
Validated: 1
EndChar

StartChar: Eth
Encoding: 208 208 230
Width: 1479
GlyphClass: 2
Flags: W
LayerCount: 2
Fore
SplineSet
784 1341 m 2,0,1
 1107 1341 1107 1341 1277.5 1199.5 c 128,-1,2
 1448 1058 1448 1058 1448 792 c 0,3,4
 1448 553 1448 553 1347.5 371 c 128,-1,5
 1247 189 1247 189 1061 92.5 c 128,-1,6
 875 -4 875 -4 629 -4 c 1,7,-1
 148 0 l 1,8,-1
 -23 0 l 1,9,-1
 -14 53 l 1,10,-1
 162 80 l 1,11,-1
 258 629 l 1,12,-1
 78 629 l 1,13,-1
 93 711 l 1,14,-1
 273 711 l 1,15,-1
 370 1262 l 1,16,-1
 203 1288 l 1,17,-1
 212 1341 l 1,18,-1
 784 1341 l 2,0,1
1238 785 m 0,19,20
 1238 1251 1238 1251 723 1251 c 2,21,-1
 561 1251 l 1,22,-1
 466 711 l 1,23,-1
 841 711 l 1,24,-1
 826 629 l 1,25,-1
 451 629 l 1,26,-1
 357 94 l 1,27,28
 517 86 517 86 621 86 c 0,29,30
 915 86 915 86 1076.5 267.5 c 128,-1,31
 1238 449 1238 449 1238 785 c 0,19,20
EndSplineSet
Validated: 1
EndChar

StartChar: eth
Encoding: 240 240 231
Width: 1024
GlyphClass: 2
Flags: W
LayerCount: 2
Fore
SplineSet
959 658 m 0,0,1
 959 331 959 331 819 153 c 128,-1,2
 679 -25 679 -25 423 -25 c 0,3,4
 256 -25 256 -25 156.5 76 c 128,-1,5
 57 177 57 177 57 348 c 0,6,7
 57 501 57 501 126.5 631.5 c 128,-1,8
 196 762 196 762 317.5 834.5 c 128,-1,9
 439 907 439 907 590 907 c 0,10,11
 693 907 693 907 781 859 c 1,12,13
 752 1061 752 1061 648 1178 c 1,14,-1
 322 1006 l 1,15,-1
 339 1102 l 1,16,-1
 590 1233 l 1,17,18
 501 1307 501 1307 391 1343 c 1,19,-1
 405 1421 l 1,20,21
 577 1377 577 1377 696 1288 c 1,22,-1
 990 1444 l 1,23,-1
 973 1350 l 1,24,-1
 759 1235 l 1,25,26
 854 1152 854 1152 906.5 997 c 128,-1,27
 959 842 959 842 959 658 c 0,0,1
567 825 m 0,28,29
 479 825 479 825 403 760.5 c 128,-1,30
 327 696 327 696 282 580.5 c 128,-1,31
 237 465 237 465 237 331 c 0,32,33
 237 200 237 200 290.5 129.5 c 128,-1,34
 344 59 344 59 438 59 c 0,35,36
 526 59 526 59 603.5 124.5 c 128,-1,37
 681 190 681 190 726 303.5 c 128,-1,38
 771 417 771 417 771 548 c 0,39,40
 771 684 771 684 718.5 754.5 c 128,-1,41
 666 825 666 825 567 825 c 0,28,29
EndSplineSet
Validated: 1
EndChar

StartChar: Thorn
Encoding: 222 222 234
Width: 1251
GlyphClass: 2
Flags: W
LayerCount: 2
Fore
SplineSet
566 358 m 2,0,1
 954 358 954 358 954 715 c 0,2,3
 954 858 954 858 881.5 925.5 c 128,-1,4
 809 993 809 993 663 993 c 2,5,-1
 515 993 l 1,6,-1
 403 358 l 1,7,-1
 566 358 l 2,0,1
703 1083 m 2,8,9
 919 1083 919 1083 1036 993.5 c 128,-1,10
 1153 904 1153 904 1153 728 c 0,11,12
 1153 504 1153 504 1006.5 386 c 128,-1,13
 860 268 860 268 588 268 c 2,14,-1
 387 268 l 1,15,-1
 354 80 l 1,16,-1
 573 53 l 1,17,-1
 563 0 l 1,18,-1
 -11 0 l 1,19,-1
 -1 53 l 1,20,-1
 161 80 l 1,21,-1
 370 1262 l 1,22,-1
 215 1288 l 1,23,-1
 225 1341 l 1,24,-1
 749 1341 l 1,25,-1
 739 1288 l 1,26,-1
 563 1262 l 1,27,-1
 531 1083 l 1,28,-1
 703 1083 l 2,8,9
EndSplineSet
Validated: 1
EndChar

StartChar: thorn
Encoding: 254 254 235
Width: 1024
GlyphClass: 2
Flags: W
LayerCount: 2
Fore
SplineSet
355 788 m 1,0,1
 538 965 538 965 680 965 c 0,2,3
 808 965 808 965 885 875.5 c 128,-1,4
 962 786 962 786 962 631 c 0,5,6
 962 459 962 459 886 307.5 c 128,-1,7
 810 156 810 156 676 68 c 128,-1,8
 542 -20 542 -20 382 -20 c 0,9,10
 334 -20 334 -20 285 -13 c 128,-1,11
 236 -6 236 -6 211 2 c 1,12,-1
 200 -88 l 1,13,-1
 150 -365 l 1,14,-1
 310 -389 l 1,15,-1
 302 -436 l 1,16,-1
 -144 -436 l 1,17,-1
 -136 -389 l 1,18,-1
 -13 -365 l 1,19,-1
 290 1352 l 1,20,-1
 157 1376 l 1,21,-1
 165 1421 l 1,22,-1
 468 1421 l 1,23,-1
 355 788 l 1,0,1
233 107 m 1,24,25
 293 59 293 59 399 59 c 0,26,27
 506 59 506 59 591.5 131.5 c 128,-1,28
 677 204 677 204 730 336 c 128,-1,29
 783 468 783 468 783 605 c 0,30,31
 783 715 783 715 736 777.5 c 128,-1,32
 689 840 689 840 607 840 c 0,33,34
 553 840 553 840 479 802 c 128,-1,35
 405 764 405 764 342 701 c 1,36,-1
 233 107 l 1,24,25
EndSplineSet
Validated: 1
EndChar

StartChar: minus
Encoding: 8722 8722 236
Width: 1382
GlyphClass: 2
Flags: W
LayerCount: 2
Fore
SplineSet
1186 731 m 1,0,-1
 1186 629 l 1,1,-1
 233 629 l 1,2,-1
 233 731 l 1,3,-1
 1186 731 l 1,0,-1
EndSplineSet
Validated: 1
EndChar

StartChar: multiply
Encoding: 215 215 237
Width: 1382
GlyphClass: 2
Flags: W
LayerCount: 2
Fore
SplineSet
708 608 m 1,0,-1
 363 264 l 1,1,-1
 292 336 l 1,2,-1
 636 682 l 1,3,-1
 292 1024 l 1,4,-1
 366 1098 l 1,5,-1
 708 754 l 1,6,-1
 1054 1098 l 1,7,-1
 1125 1026 l 1,8,-1
 781 682 l 1,9,-1
 1125 336 l 1,10,-1
 1054 264 l 1,11,-1
 708 608 l 1,0,-1
EndSplineSet
Validated: 1
EndChar

StartChar: onesuperior
Encoding: 185 185 238
Width: 614
GlyphClass: 2
Flags: W
LayerCount: 2
Fore
SplineSet
388 598 m 1,0,-1
 552 584 l 1,1,-1
 543 535 l 1,2,-1
 69 535 l 1,3,-1
 77 584 l 1,4,-1
 244 598 l 1,5,-1
 354 1223 l 1,6,-1
 183 1165 l 1,7,-1
 191 1212 l 1,8,-1
 448 1346 l 1,9,-1
 520 1346 l 1,10,-1
 388 598 l 1,0,-1
EndSplineSet
Validated: 1
EndChar

StartChar: twosuperior
Encoding: 178 178 239
Width: 614
GlyphClass: 2
Flags: W
LayerCount: 2
Fore
SplineSet
547 535 m 1,0,-1
 49 535 l 1,1,-1
 64 631 l 1,2,3
 274 784 274 784 349 858 c 128,-1,4
 424 932 424 932 461 1005.5 c 128,-1,5
 498 1079 498 1079 498 1161 c 0,6,7
 498 1213 498 1213 470 1247.5 c 128,-1,8
 442 1282 442 1282 387 1282 c 0,9,10
 325 1282 325 1282 267 1249 c 1,11,-1
 229 1151 l 1,12,-1
 174 1151 l 1,13,-1
 205 1323 l 1,14,15
 318 1350 318 1350 399 1350 c 0,16,17
 515 1350 515 1350 578 1299 c 128,-1,18
 641 1248 641 1248 641 1161 c 0,19,20
 641 1064 641 1064 572.5 971.5 c 128,-1,21
 504 879 504 879 352 770 c 1,22,-1
 179 643 l 1,23,-1
 566 643 l 1,24,-1
 547 535 l 1,0,-1
EndSplineSet
Validated: 1
EndChar

StartChar: threesuperior
Encoding: 179 179 240
Width: 614
GlyphClass: 2
Flags: W
LayerCount: 2
Fore
SplineSet
259 522 m 0,0,1
 147 522 147 522 41 549 c 1,2,-1
 67 735 l 1,3,-1
 122 735 l 1,4,-1
 129 623 l 1,5,6
 149 610 149 610 185.5 600 c 128,-1,7
 222 590 222 590 259 590 c 0,8,9
 362 590 362 590 413.5 637 c 128,-1,10
 465 684 465 684 465 784 c 0,11,12
 465 907 465 907 326 918 c 1,13,-1
 241 924 l 1,14,-1
 253 989 l 1,15,-1
 340 993 l 2,16,17
 412 996 412 996 455.5 1039 c 128,-1,18
 499 1082 499 1082 499 1174 c 0,19,20
 499 1282 499 1282 377 1282 c 0,21,22
 312 1282 312 1282 258 1253 c 1,23,-1
 220 1151 l 1,24,-1
 165 1151 l 1,25,-1
 196 1323 l 1,26,27
 302 1350 302 1350 388 1350 c 0,28,29
 503 1350 503 1350 571.5 1303 c 128,-1,30
 640 1256 640 1256 640 1176 c 0,31,32
 640 1086 640 1086 583 1029.5 c 128,-1,33
 526 973 526 973 413 956 c 1,34,35
 508 945 508 945 557 901.5 c 128,-1,36
 606 858 606 858 606 788 c 0,37,38
 606 669 606 669 513.5 595.5 c 128,-1,39
 421 522 421 522 259 522 c 0,0,1
EndSplineSet
Validated: 1
EndChar

StartChar: franc
Encoding: 8355 8355 244
Width: 1024
GlyphClass: 2
Flags: W
LayerCount: 2
Fore
SplineSet
425 612 m 1,0,-1
 385 384 l 1,1,-1
 659 384 l 1,2,-1
 644 302 l 1,3,-1
 370 302 l 1,4,-1
 331 80 l 1,5,-1
 530 53 l 1,6,-1
 520 0 l 1,7,-1
 -34 0 l 1,8,-1
 -24 53 l 1,9,-1
 138 80 l 1,10,-1
 177 302 l 1,11,-1
 5 302 l 1,12,-1
 20 384 l 1,13,-1
 192 384 l 1,14,-1
 347 1262 l 1,15,-1
 179 1288 l 1,16,-1
 189 1341 l 1,17,-1
 1089 1341 l 1,18,-1
 1032 1020 l 1,19,-1
 966 1020 l 1,20,-1
 972 1237 l 1,21,22
 864 1251 864 1251 651 1251 c 2,23,-1
 538 1251 l 1,24,-1
 441 702 l 1,25,-1
 806 702 l 1,26,-1
 865 862 l 1,27,-1
 926 862 l 1,28,-1
 854 450 l 1,29,-1
 793 450 l 1,30,-1
 790 612 l 1,31,-1
 425 612 l 1,0,-1
EndSplineSet
Validated: 1
EndChar

StartChar: dcroat
Encoding: 273 273 254
Width: 1024
GlyphClass: 2
Flags: W
LayerCount: 2
Fore
SplineSet
783 941 m 1,0,-1
 794 1023 l 1,1,-1
 808 1108 l 1,2,-1
 808 1112 l 1,3,-1
 512 1112 l 1,4,-1
 527 1196 l 1,5,-1
 823 1196 l 1,6,-1
 851 1352 l 1,7,-1
 697 1376 l 1,8,-1
 705 1421 l 1,9,-1
 1029 1421 l 1,10,-1
 989 1196 l 1,11,-1
 1105 1196 l 1,12,-1
 1090 1112 l 1,13,-1
 974 1112 l 1,14,-1
 789 70 l 1,15,-1
 902 45 l 1,16,-1
 894 0 l 1,17,-1
 609 0 l 1,18,-1
 638 156 l 1,19,20
 469 -21 469 -21 329 -21 c 0,21,22
 206 -21 206 -21 134 71.5 c 128,-1,23
 62 164 62 164 62 317 c 0,24,25
 62 488 62 488 135.5 638.5 c 128,-1,26
 209 789 209 789 337 876.5 c 128,-1,27
 465 964 465 964 618 964 c 0,28,29
 712 964 712 964 783 941 c 1,0,-1
760 837 m 1,30,31
 725 860 725 860 688 873 c 128,-1,32
 651 886 651 886 598 886 c 0,33,34
 504 886 504 886 422 812 c 128,-1,35
 340 738 340 738 290 608 c 128,-1,36
 240 478 240 478 240 339 c 0,37,38
 240 232 240 232 284 168 c 128,-1,39
 328 104 328 104 403 104 c 0,40,41
 459 104 459 104 524.5 140.5 c 128,-1,42
 590 177 590 177 651 243 c 1,43,-1
 760 837 l 1,30,31
EndSplineSet
Validated: 1
EndChar

StartChar: macron
Encoding: 175 175 255
Width: 1024
GlyphClass: 2
Flags: W
LayerCount: 2
Fore
SplineSet
1205 1452 m 1,0,-1
 146 1452 l 1,1,-1
 146 1546 l 1,2,-1
 1205 1546 l 1,3,-1
 1205 1452 l 1,0,-1
EndSplineSet
Validated: 1
EndChar

StartChar: Gamma
Encoding: 915 915 298
Width: 1165
GlyphClass: 2
Flags: W
LayerCount: 2
Fore
SplineSet
553 0 m 1,0,-1
 -17 0 l 1,1,-1
 -8 53 l 1,2,-1
 167 79 l 1,3,-1
 376 1261 l 1,4,-1
 209 1288 l 1,5,-1
 219 1341 l 1,6,-1
 1230 1341 l 1,7,-1
 1180 956 l 1,8,-1
 1115 956 l 1,9,-1
 1102 1235 l 1,10,11
 1070 1242 1070 1242 974.5 1248.5 c 128,-1,12
 879 1255 879 1255 822 1255 c 2,13,-1
 568 1255 l 1,14,-1
 360 79 l 1,15,-1
 562 53 l 1,16,-1
 553 0 l 1,0,-1
EndSplineSet
Validated: 1
EndChar

StartChar: Theta
Encoding: 920 920 299
Width: 1479
GlyphClass: 2
Flags: W
LayerCount: 2
Fore
SplineSet
575 610 m 1,0,-1
 516 468 l 1,1,-1
 452 468 l 1,2,-1
 533 880 l 1,3,-1
 597 880 l 1,4,-1
 600 740 l 1,5,-1
 962 740 l 1,6,-1
 1021 880 l 1,7,-1
 1085 880 l 1,8,-1
 1004 468 l 1,9,-1
 940 468 l 1,10,-1
 937 610 l 1,11,-1
 575 610 l 1,0,-1
1231 832 m 0,12,13
 1231 1032 1231 1032 1128.5 1154 c 128,-1,14
 1026 1276 1026 1276 858 1276 c 0,15,16
 709 1276 709 1276 584.5 1174.5 c 128,-1,17
 460 1073 460 1073 381.5 884 c 128,-1,18
 303 695 303 695 303 503 c 0,19,20
 303 305 303 305 403.5 185 c 128,-1,21
 504 65 504 65 670 65 c 0,22,23
 819 65 819 65 945.5 165.5 c 128,-1,24
 1072 266 1072 266 1151.5 455 c 128,-1,25
 1231 644 1231 644 1231 832 c 0,12,13
663 -20 m 0,26,27
 502 -20 502 -20 373.5 47.5 c 128,-1,28
 245 115 245 115 174 238 c 128,-1,29
 103 361 103 361 103 514 c 0,30,31
 103 755 103 755 203 950.5 c 128,-1,32
 303 1146 303 1146 476 1251 c 128,-1,33
 649 1356 649 1356 871 1356 c 0,34,35
 1032 1356 1032 1356 1160.5 1288.5 c 128,-1,36
 1289 1221 1289 1221 1360 1098.5 c 128,-1,37
 1431 976 1431 976 1431 822 c 0,38,39
 1431 585 1431 585 1330.5 386 c 128,-1,40
 1230 187 1230 187 1057.5 83.5 c 128,-1,41
 885 -20 885 -20 663 -20 c 0,26,27
EndSplineSet
Validated: 1
EndChar

StartChar: Phi
Encoding: 934 934 300
Width: 1559
GlyphClass: 2
Flags: W
LayerCount: 2
Fore
SplineSet
918 300 m 2,0,1
 1306 300 1306 300 1306 727 c 0,2,3
 1306 889 1306 889 1226.5 974 c 128,-1,4
 1147 1059 1147 1059 995 1059 c 2,5,-1
 962 1059 l 1,6,-1
 829 300 l 1,7,-1
 918 300 l 2,0,1
681 1059 m 2,8,9
 293 1059 293 1059 293 632 c 0,10,11
 293 470 293 470 372.5 385 c 128,-1,12
 452 300 452 300 604 300 c 2,13,-1
 646 300 l 1,14,-1
 780 1059 l 1,15,-1
 681 1059 l 2,8,9
632 222 m 1,16,-1
 566 222 l 2,17,18
 343 222 343 222 222 326.5 c 128,-1,19
 101 431 101 431 101 635 c 0,20,21
 101 879 101 879 247 1008 c 128,-1,22
 393 1137 393 1137 671 1137 c 2,23,-1
 795 1137 l 1,24,-1
 816 1262 l 1,25,-1
 649 1288 l 1,26,-1
 659 1341 l 1,27,-1
 1185 1341 l 1,28,-1
 1175 1288 l 1,29,-1
 998 1262 l 1,30,-1
 977 1137 l 1,31,-1
 1033 1137 l 2,32,33
 1261 1137 1261 1137 1383.5 1028 c 128,-1,34
 1506 919 1506 919 1506 726 c 0,35,36
 1506 483 1506 483 1357 352.5 c 128,-1,37
 1208 222 1208 222 928 222 c 2,38,-1
 814 222 l 1,39,-1
 790 80 l 1,40,-1
 956 53 l 1,41,-1
 947 0 l 1,42,-1
 421 0 l 1,43,-1
 430 53 l 1,44,-1
 608 80 l 1,45,-1
 632 222 l 1,16,-1
EndSplineSet
Validated: 1
EndChar

StartChar: alpha
Encoding: 945 945 301
Width: 1075
GlyphClass: 2
Flags: W
LayerCount: 2
Fore
SplineSet
961 45 m 1,0,-1
 953 0 l 1,1,-1
 740 0 l 1,2,3
 723 46 723 46 709 118.5 c 128,-1,4
 695 191 695 191 692 253 c 1,5,6
 611 102 611 102 530.5 40.5 c 128,-1,7
 450 -21 450 -21 338 -21 c 0,8,9
 211 -21 211 -21 136 78 c 128,-1,10
 61 177 61 177 61 347 c 0,11,12
 61 462 61 462 93 580 c 128,-1,13
 125 698 125 698 189.5 786.5 c 128,-1,14
 254 875 254 875 344 920.5 c 128,-1,15
 434 966 434 966 542 966 c 0,16,17
 771 966 771 966 810 703 c 1,18,-1
 811 674 l 1,19,-1
 825 704 l 1,20,-1
 952 940 l 1,21,-1
 1109 940 l 1,22,-1
 1101 900 l 1,23,24
 1063 856 1063 856 1008.5 772 c 128,-1,25
 954 688 954 688 823 471 c 1,26,27
 831 317 831 317 848.5 221.5 c 128,-1,28
 866 126 866 126 894 60 c 1,29,-1
 961 45 l 1,0,-1
705 572 m 2,30,31
 705 738 705 738 665.5 812 c 128,-1,32
 626 886 626 886 543 886 c 0,33,34
 449 886 449 886 382 812 c 128,-1,35
 315 738 315 738 276 588 c 128,-1,36
 237 438 237 438 237 316 c 0,37,38
 237 206 237 206 275.5 142 c 128,-1,39
 314 78 314 78 383 78 c 0,40,41
 466 78 466 78 541 157 c 128,-1,42
 616 236 616 236 704 433 c 1,43,-1
 705 514 l 1,44,-1
 705 572 l 2,30,31
EndSplineSet
Validated: 1
EndChar

StartChar: delta
Encoding: 948 948 302
Width: 952
GlyphClass: 2
Flags: W
LayerCount: 2
Fore
SplineSet
420 -20 m 0,0,1
 253 -20 253 -20 156.5 76 c 128,-1,2
 60 172 60 172 60 340 c 0,3,4
 60 527 60 527 176 663 c 128,-1,5
 292 799 292 799 525 870 c 1,6,7
 379 1026 379 1026 379 1169 c 0,8,9
 379 1294 379 1294 473 1362.5 c 128,-1,10
 567 1431 567 1431 739 1431 c 0,11,12
 849 1431 849 1431 979 1393 c 1,13,-1
 944 1195 l 1,14,-1
 897 1195 l 1,15,-1
 874 1304 l 1,16,17
 852 1327 852 1327 812 1339 c 128,-1,18
 772 1351 772 1351 727 1351 c 0,19,20
 640 1351 640 1351 586 1309.5 c 128,-1,21
 532 1268 532 1268 532 1185 c 0,22,23
 532 1132 532 1132 567.5 1073 c 128,-1,24
 603 1014 603 1014 717 901 c 1,25,26
 811 805 811 805 855 709.5 c 128,-1,27
 899 614 899 614 899 499 c 0,28,29
 899 358 899 358 837 235 c 128,-1,30
 775 112 775 112 667 46 c 128,-1,31
 559 -20 559 -20 420 -20 c 0,0,1
429 59 m 0,32,33
 515 59 515 59 580 112.5 c 128,-1,34
 645 166 645 166 682.5 273.5 c 128,-1,35
 720 381 720 381 720 498 c 0,36,37
 720 682 720 682 576 818 c 1,38,39
 414 766 414 766 322.5 629 c 128,-1,40
 231 492 231 492 231 316 c 0,41,42
 231 190 231 190 281.5 124.5 c 128,-1,43
 332 59 332 59 429 59 c 0,32,33
EndSplineSet
Validated: 1
EndChar

StartChar: epsilon
Encoding: 949 949 303
Width: 807
GlyphClass: 2
Flags: W
LayerCount: 2
Fore
SplineSet
550 965 m 0,0,1
 614 965 614 965 686.5 955 c 128,-1,2
 759 945 759 945 805 929 c 1,3,-1
 769 733 l 1,4,-1
 721 733 l 1,5,-1
 692 848 l 1,6,7
 672 863 672 863 630.5 875 c 128,-1,8
 589 887 589 887 544 887 c 0,9,10
 448 887 448 887 390 836 c 128,-1,11
 332 785 332 785 332 695 c 0,12,13
 332 642 332 642 359.5 598 c 128,-1,14
 387 554 387 554 422 541 c 1,15,16
 542 559 542 559 599 559 c 2,17,-1
 650 559 l 1,18,-1
 634 456 l 1,19,-1
 582 456 l 2,20,21
 548 456 548 456 385 469 c 1,22,23
 304 445 304 445 262 389 c 128,-1,24
 220 333 220 333 220 254 c 0,25,26
 220 170 220 170 269 127 c 128,-1,27
 318 84 318 84 405 84 c 0,28,29
 558 84 558 84 695 180 c 1,30,-1
 727 132 l 1,31,32
 560 -20 560 -20 353 -20 c 0,33,34
 205 -20 205 -20 124.5 48 c 128,-1,35
 44 116 44 116 44 239 c 0,36,37
 44 343 44 343 115.5 415 c 128,-1,38
 187 487 187 487 307 506 c 1,39,-1
 309 513 l 1,40,41
 243 540 243 540 204 594 c 128,-1,42
 165 648 165 648 165 715 c 0,43,44
 165 832 165 832 268.5 898.5 c 128,-1,45
 372 965 372 965 550 965 c 0,0,1
EndSplineSet
Validated: 1
EndChar

StartChar: sigma
Encoding: 963 963 304
Width: 1010
GlyphClass: 2
Flags: W
LayerCount: 2
Fore
SplineSet
438 59 m 0,0,1
 523 59 523 59 590 124.5 c 128,-1,2
 657 190 657 190 696 312 c 128,-1,3
 735 434 735 434 735 567 c 0,4,5
 735 735 735 735 684 856 c 1,6,7
 474 856 474 856 355 728 c 128,-1,8
 236 600 236 600 236 368 c 0,9,10
 236 221 236 221 289 140 c 128,-1,11
 342 59 342 59 438 59 c 0,0,1
802 856 m 1,12,-1
 801 849 l 1,13,14
 912 704 912 704 912 523 c 0,15,16
 912 369 912 369 851 244 c 128,-1,17
 790 119 790 119 679 49.5 c 128,-1,18
 568 -20 568 -20 432 -20 c 0,19,20
 261 -20 261 -20 161 87.5 c 128,-1,21
 61 195 61 195 61 377 c 0,22,23
 61 642 61 642 211 791 c 128,-1,24
 361 940 361 940 632 940 c 2,25,-1
 942 940 l 1,26,-1
 1018 1056 l 1,27,-1
 1075 1056 l 1,28,-1
 1023 856 l 1,29,-1
 802 856 l 1,12,-1
EndSplineSet
Validated: 1
EndChar

StartChar: tau
Encoding: 964 964 305
Width: 733
GlyphClass: 2
Flags: W
LayerCount: 2
Fore
SplineSet
394 174 m 0,0,1
 394 84 394 84 460 84 c 0,2,3
 509 84 509 84 583 120 c 1,4,-1
 608 74 l 1,5,6
 560 34 560 34 506 7 c 128,-1,7
 452 -20 452 -20 381 -20 c 0,8,9
 309 -20 309 -20 268.5 28 c 128,-1,10
 228 76 228 76 228 162 c 0,11,12
 228 191 228 191 233.5 230.5 c 128,-1,13
 239 270 239 270 343 856 c 1,14,-1
 172 856 l 1,15,-1
 102 728 l 1,16,-1
 45 728 l 1,17,-1
 103 940 l 1,18,-1
 795 940 l 1,19,-1
 780 856 l 1,20,-1
 509 856 l 1,21,-1
 412 307 l 1,22,23
 394 212 394 212 394 174 c 0,0,1
EndSplineSet
Validated: 1
EndChar

StartChar: phi
Encoding: 966 966 306
Width: 1133
GlyphClass: 2
Flags: W
LayerCount: 2
Fore
SplineSet
809 966 m 0,0,1
 939 966 939 966 1008 878.5 c 128,-1,2
 1077 791 1077 791 1077 630 c 0,3,4
 1077 328 1077 328 940 164 c 128,-1,5
 803 0 803 0 533 -17 c 1,6,-1
 459 -436 l 1,7,-1
 353 -436 l 1,8,-1
 427 -16 l 1,9,10
 252 -2 252 -2 156.5 96.5 c 128,-1,11
 61 195 61 195 61 375 c 0,12,13
 61 534 61 534 114 659 c 128,-1,14
 167 784 167 784 263.5 860.5 c 128,-1,15
 360 937 360 937 484 954 c 1,16,-1
 502 891 l 1,17,18
 421 862 421 862 364 790 c 128,-1,19
 307 718 307 718 274 600.5 c 128,-1,20
 241 483 241 483 241 351 c 0,21,22
 241 95 241 95 440 58 c 1,23,-1
 548 670 l 2,24,25
 575 823 575 823 638.5 894.5 c 128,-1,26
 702 966 702 966 809 966 c 0,0,1
796 885 m 0,27,28
 741 885 741 885 707 833 c 128,-1,29
 673 781 673 781 654 670 c 2,30,-1
 546 60 l 1,31,32
 713 71 713 71 806.5 230.5 c 128,-1,33
 900 390 900 390 900 666 c 0,34,35
 900 778 900 778 871.5 831.5 c 128,-1,36
 843 885 843 885 796 885 c 0,27,28
EndSplineSet
Validated: 1
EndChar

StartChar: nsuperior
Encoding: 8319 8319 309
Width: 645
GlyphClass: 2
Flags: W
LayerCount: 2
Fore
SplineSet
480 984 m 0,0,1
 480 1025 480 1025 438 1025 c 0,2,3
 365 1025 365 1025 288 911 c 1,4,-1
 222 535 l 1,5,-1
 78 535 l 1,6,-1
 167 1040 l 1,7,-1
 97 1055 l 1,8,-1
 104 1100 l 1,9,-1
 315 1100 l 1,10,-1
 299 984 l 1,11,12
 397 1114 397 1114 504 1114 c 0,13,14
 625 1114 625 1114 625 994 c 0,15,16
 625 978 625 978 622 954.5 c 128,-1,17
 619 931 619 931 560 594 c 1,18,-1
 639 580 l 1,19,-1
 631 535 l 1,20,-1
 406 535 l 1,21,-1
 467 884 l 1,22,23
 480 952 480 952 480 984 c 0,0,1
EndSplineSet
Validated: 1
EndChar

StartChar: peseta
Encoding: 8359 8359 310
Width: 2027
GlyphClass: 2
Flags: W
LayerCount: 2
Fore
SplineSet
469 616 m 2,0,1
 854 616 854 616 854 973 c 0,2,3
 854 1116 854 1116 781.5 1183.5 c 128,-1,4
 709 1251 709 1251 563 1251 c 2,5,-1
 537 1251 l 1,6,-1
 425 616 l 1,7,-1
 469 616 l 2,0,1
1074 -20 m 0,8,9
 939 -20 939 -20 939 128 c 0,10,11
 939 159 939 159 945 197 c 2,12,-1
 1019 616 l 1,13,-1
 926 616 l 1,14,-1
 932 651 l 1,15,-1
 1032 690 l 1,16,-1
 1167 873 l 1,17,-1
 1230 873 l 1,18,-1
 1198 690 l 1,19,-1
 1363 690 l 1,20,-1
 1350 616 l 1,21,-1
 1185 616 l 1,22,-1
 1112 205 l 1,23,-1
 1108 161 l 1,24,25
 1108 74 1108 74 1174 74 c 0,26,27
 1217 74 1217 74 1270 90 c 1,28,-1
 1287 39 l 1,29,30
 1252 16 1252 16 1188.5 -2 c 128,-1,31
 1125 -20 1125 -20 1074 -20 c 0,8,9
1561 -20 m 0,32,33
 1499 -20 1499 -20 1415.5 -7 c 128,-1,34
 1332 6 1332 6 1299 20 c 1,35,-1
 1336 227 l 1,36,-1
 1381 227 l 1,37,-1
 1401 117 l 1,38,39
 1421 89 1421 89 1460 69 c 128,-1,40
 1499 49 1499 49 1552 49 c 0,41,42
 1625 49 1625 49 1662.5 82.5 c 128,-1,43
 1700 116 1700 116 1700 177 c 0,44,45
 1700 220 1700 220 1662 251 c 128,-1,46
 1624 282 1624 282 1541 313 c 0,47,48
 1462 342 1462 342 1421.5 385 c 128,-1,49
 1381 428 1381 428 1381 490 c 0,50,51
 1381 596 1381 596 1460 653 c 128,-1,52
 1539 710 1539 710 1676 710 c 0,53,54
 1768 710 1768 710 1895 679 c 1,55,-1
 1860 484 l 1,56,-1
 1813 484 l 1,57,-1
 1791 593 l 1,58,59
 1775 615 1775 615 1740.5 627.5 c 128,-1,60
 1706 640 1706 640 1663 640 c 0,61,62
 1607 640 1607 640 1572 611 c 128,-1,63
 1537 582 1537 582 1537 535 c 0,64,65
 1537 503 1537 503 1568.5 478.5 c 128,-1,66
 1600 454 1600 454 1700 411 c 0,67,68
 1782 376 1782 376 1822.5 331 c 128,-1,69
 1863 286 1863 286 1863 224 c 0,70,71
 1863 107 1863 107 1785.5 43.5 c 128,-1,72
 1708 -20 1708 -20 1561 -20 c 0,32,33
409 526 m 1,73,-1
 330 80 l 1,74,-1
 498 53 l 1,75,-1
 489 0 l 1,76,-1
 -25 0 l 1,77,-1
 -16 53 l 1,78,-1
 147 80 l 1,79,-1
 355 1262 l 1,80,-1
 208 1288 l 1,81,-1
 217 1341 l 1,82,-1
 603 1341 l 2,83,84
 819 1341 819 1341 936 1251.5 c 128,-1,85
 1053 1162 1053 1162 1053 986 c 0,86,87
 1053 762 1053 762 906.5 644 c 128,-1,88
 760 526 760 526 488 526 c 2,89,-1
 409 526 l 1,73,-1
EndSplineSet
Validated: 1
EndChar

StartChar: arrowleft
Encoding: 8592 8592 311
Width: 2048
GlyphClass: 2
Flags: W
LayerCount: 2
Fore
SplineSet
641 297 m 1,0,1
 698 230 698 230 760 100 c 1,2,-1
 688 100 l 1,3,4
 561 249 561 249 418 322 c 1,5,-1
 418 358 l 1,6,7
 561 431 561 431 688 580 c 1,8,-1
 760 580 l 1,9,10
 698 450 698 450 641 383 c 1,11,-1
 1630 383 l 1,12,-1
 1630 297 l 1,13,-1
 641 297 l 1,0,1
EndSplineSet
Validated: 1
EndChar

StartChar: arrowup
Encoding: 8593 8593 312
Width: 1024
GlyphClass: 2
Flags: W
LayerCount: 2
Fore
SplineSet
469 928 m 1,0,1
 402 871 402 871 272 809 c 1,2,-1
 272 881 l 1,3,4
 421 1008 421 1008 494 1151 c 1,5,-1
 530 1151 l 1,6,7
 603 1008 603 1008 752 881 c 1,8,-1
 752 809 l 1,9,10
 622 871 622 871 555 928 c 1,11,-1
 555 -61 l 1,12,-1
 469 -61 l 1,13,-1
 469 928 l 1,0,1
EndSplineSet
Validated: 1
EndChar

StartChar: arrowright
Encoding: 8594 8594 313
Width: 2048
GlyphClass: 2
Flags: W
LayerCount: 2
Fore
SplineSet
1407 383 m 1,0,1
 1350 450 1350 450 1288 580 c 1,2,-1
 1360 580 l 1,3,4
 1487 431 1487 431 1630 358 c 1,5,-1
 1630 322 l 1,6,7
 1487 249 1487 249 1360 100 c 1,8,-1
 1288 100 l 1,9,10
 1350 230 1350 230 1407 297 c 1,11,-1
 418 297 l 1,12,-1
 418 383 l 1,13,-1
 1407 383 l 1,0,1
EndSplineSet
Validated: 1
EndChar

StartChar: arrowdown
Encoding: 8595 8595 314
Width: 1024
GlyphClass: 2
Flags: W
LayerCount: 2
Fore
SplineSet
555 162 m 1,0,1
 622 219 622 219 752 281 c 1,2,-1
 752 209 l 1,3,4
 603 82 603 82 530 -61 c 1,5,-1
 494 -61 l 1,6,7
 421 82 421 82 272 209 c 1,8,-1
 272 281 l 1,9,10
 402 219 402 219 469 162 c 1,11,-1
 469 1151 l 1,12,-1
 555 1151 l 1,13,-1
 555 162 l 1,0,1
EndSplineSet
Validated: 1
EndChar

StartChar: arrowboth
Encoding: 8596 8596 315
Width: 2048
GlyphClass: 2
Flags: W
LayerCount: 2
Fore
SplineSet
641 297 m 1,0,1
 698 230 698 230 760 100 c 1,2,-1
 688 100 l 1,3,4
 561 249 561 249 418 322 c 1,5,-1
 418 358 l 1,6,7
 561 431 561 431 688 580 c 1,8,-1
 760 580 l 1,9,10
 698 450 698 450 641 383 c 1,11,-1
 1407 383 l 1,12,13
 1350 450 1350 450 1288 580 c 1,14,-1
 1360 580 l 1,15,16
 1487 431 1487 431 1630 358 c 1,17,-1
 1630 322 l 1,18,19
 1487 249 1487 249 1360 100 c 1,20,-1
 1288 100 l 1,21,22
 1350 230 1350 230 1407 297 c 1,23,-1
 641 297 l 1,0,1
EndSplineSet
Validated: 1
EndChar

StartChar: arrowupdn
Encoding: 8597 8597 316
Width: 1024
GlyphClass: 2
Flags: W
LayerCount: 2
Fore
SplineSet
469 928 m 1,0,1
 402 871 402 871 272 809 c 1,2,-1
 272 881 l 1,3,4
 421 1008 421 1008 494 1151 c 1,5,-1
 530 1151 l 1,6,7
 603 1008 603 1008 752 881 c 1,8,-1
 752 809 l 1,9,10
 622 871 622 871 555 928 c 1,11,-1
 555 162 l 1,12,13
 622 219 622 219 752 281 c 1,14,-1
 752 209 l 1,15,16
 603 82 603 82 530 -61 c 1,17,-1
 494 -61 l 1,18,19
 421 82 421 82 272 209 c 1,20,-1
 272 281 l 1,21,22
 402 219 402 219 469 162 c 1,23,-1
 469 928 l 1,0,1
EndSplineSet
Validated: 1
EndChar

StartChar: arrowupdnbse
Encoding: 8616 8616 317
Width: 1024
GlyphClass: 2
Flags: W
LayerCount: 2
Fore
SplineSet
272 -104 m 1,0,-1
 752 -104 l 1,1,-1
 752 -184 l 1,2,-1
 272 -184 l 1,3,-1
 272 -104 l 1,0,-1
469 928 m 1,4,5
 402 871 402 871 272 809 c 1,6,-1
 272 881 l 1,7,8
 421 1008 421 1008 494 1151 c 1,9,-1
 530 1151 l 1,10,11
 603 1008 603 1008 752 881 c 1,12,-1
 752 809 l 1,13,14
 622 871 622 871 555 928 c 1,15,-1
 555 162 l 1,16,17
 622 219 622 219 752 281 c 1,18,-1
 752 209 l 1,19,20
 603 82 603 82 530 -61 c 1,21,-1
 494 -61 l 1,22,23
 421 82 421 82 272 209 c 1,24,-1
 272 281 l 1,25,26
 402 219 402 219 469 162 c 1,27,-1
 469 928 l 1,4,5
EndSplineSet
Validated: 1
EndChar

StartChar: orthogonal
Encoding: 8735 8735 318
Width: 2005
GlyphClass: 2
Flags: W
LayerCount: 2
Fore
SplineSet
408 1223 m 1,0,-1
 502 1223 l 1,1,-1
 502 94 l 1,2,-1
 1632 94 l 1,3,-1
 1632 0 l 1,4,-1
 408 0 l 1,5,-1
 408 1223 l 1,0,-1
EndSplineSet
Validated: 1
EndChar

StartChar: intersection
Encoding: 8745 8745 319
Width: 1479
GlyphClass: 2
Flags: W
LayerCount: 2
Fore
SplineSet
282 -2 m 1,0,-1
 282 510 l 2,1,2
 282 660 282 660 340 779.5 c 128,-1,3
 398 899 398 899 502.5 965.5 c 128,-1,4
 607 1032 607 1032 737 1032 c 0,5,6
 868 1032 868 1032 973.5 966 c 128,-1,7
 1079 900 1079 900 1138.5 779 c 128,-1,8
 1198 658 1198 658 1198 510 c 2,9,-1
 1198 -2 l 1,10,-1
 1095 -2 l 1,11,-1
 1095 512 l 2,12,13
 1095 702 1095 702 997 816 c 128,-1,14
 899 930 899 930 739 930 c 0,15,16
 577 930 577 930 481 817 c 128,-1,17
 385 704 385 704 385 510 c 2,18,-1
 385 -2 l 1,19,-1
 282 -2 l 1,0,-1
EndSplineSet
Validated: 1
EndChar

StartChar: equivalence
Encoding: 8801 8801 320
Width: 1382
GlyphClass: 2
Flags: W
LayerCount: 2
Fore
SplineSet
1186 436 m 5,0,-1
 1186 334 l 5,1,-1
 233 334 l 5,2,-1
 233 436 l 5,3,-1
 1186 436 l 5,0,-1
1186 1026 m 5,4,-1
 1186 924 l 5,5,-1
 233 924 l 5,6,-1
 233 1026 l 5,7,-1
 1186 1026 l 5,4,-1
1186 731 m 5,8,-1
 1186 629 l 5,9,-1
 233 629 l 5,10,-1
 233 731 l 5,11,-1
 1186 731 l 5,8,-1
EndSplineSet
Validated: 1
EndChar

StartChar: house
Encoding: 8962 8962 321
Width: 1229
GlyphClass: 2
Flags: W
LayerCount: 2
Fore
SplineSet
154 0 m 1,0,-1
 154 635 l 1,1,-1
 615 1153 l 1,2,-1
 1076 635 l 1,3,-1
 1076 0 l 1,4,-1
 154 0 l 1,0,-1
234 82 m 1,5,-1
 996 82 l 1,6,-1
 996 600 l 1,7,-1
 615 1026 l 1,8,-1
 234 600 l 1,9,-1
 234 82 l 1,5,-1
EndSplineSet
Validated: 1
EndChar

StartChar: revlogicalnot
Encoding: 8976 8976 322
Width: 1382
GlyphClass: 2
Flags: W
LayerCount: 2
Fore
SplineSet
336 629 m 1,0,-1
 336 203 l 1,1,-1
 233 203 l 1,2,-1
 233 731 l 1,3,-1
 1186 731 l 1,4,-1
 1186 629 l 1,5,-1
 336 629 l 1,0,-1
EndSplineSet
Validated: 1
EndChar

StartChar: integraltp
Encoding: 8992 8992 323
Width: 1237
GlyphClass: 2
Flags: W
LayerCount: 2
Fore
SplineSet
693 -614 m 1,0,-1
 546 -614 l 1,1,-1
 546 1264 l 2,2,3
 546 1460 546 1460 630 1583 c 128,-1,4
 714 1706 714 1706 840 1706 c 0,5,6
 903 1706 903 1706 940.5 1674.5 c 128,-1,7
 978 1643 978 1643 978 1595 c 0,8,9
 978 1555 978 1555 952.5 1529 c 128,-1,10
 927 1503 927 1503 890 1503 c 0,11,12
 860 1503 860 1503 847 1513 c 1,13,14
 831 1521 831 1521 793 1563 c 1,15,16
 760 1602 760 1602 744 1602 c 0,17,18
 708 1602 708 1602 699 1563 c 1,19,20
 693 1528 693 1528 693 1423 c 2,21,-1
 693 -614 l 1,0,-1
EndSplineSet
Validated: 1
EndChar

StartChar: integralbt
Encoding: 8993 8993 324
Width: 1237
GlyphClass: 2
Flags: W
LayerCount: 2
Fore
SplineSet
546 1706 m 1,0,-1
 693 1706 l 1,1,-1
 693 -174 l 2,2,3
 693 -369 693 -369 611.5 -491.5 c 128,-1,4
 530 -614 530 -614 398 -614 c 0,5,6
 339 -614 339 -614 300 -583.5 c 128,-1,7
 261 -553 261 -553 261 -506 c 0,8,9
 261 -467 261 -467 286 -440.5 c 128,-1,10
 311 -414 311 -414 347 -414 c 0,11,12
 380 -414 380 -414 406 -430 c 1,13,14
 416 -434 416 -434 447 -475 c 1,15,16
 478 -512 478 -512 494 -512 c 0,17,18
 523 -512 523 -512 534.5 -486.5 c 128,-1,19
 546 -461 546 -461 546 -334 c 2,20,-1
 546 1706 l 1,0,-1
EndSplineSet
Validated: 1
EndChar

StartChar: uni2500
Encoding: 9472 9472 325
Width: 1451
GlyphClass: 2
Flags: W
LayerCount: 2
Fore
SplineSet
-10 549 m 1,0,-1
 -10 694 l 1,1,-1
 1461 694 l 1,2,-1
 1461 549 l 1,3,-1
 -10 549 l 1,0,-1
EndSplineSet
Validated: 1
EndChar

StartChar: uni2502
Encoding: 9474 9474 326
Width: 1261
GlyphClass: 2
Flags: W
LayerCount: 2
Fore
SplineSet
448 1864 m 1,0,-1
 593 1864 l 1,1,-1
 593 -621 l 1,2,-1
 448 -621 l 1,3,-1
 448 1864 l 1,0,-1
EndSplineSet
Validated: 1
EndChar

StartChar: uni250C
Encoding: 9484 9484 327
Width: 1451
GlyphClass: 2
Flags: W
LayerCount: 2
Fore
SplineSet
653 694 m 1,0,-1
 1461 694 l 1,1,-1
 1461 549 l 1,2,-1
 798 549 l 1,3,-1
 798 -621 l 1,4,-1
 653 -621 l 1,5,-1
 653 694 l 1,0,-1
EndSplineSet
Validated: 1
EndChar

StartChar: uni2510
Encoding: 9488 9488 328
Width: 1451
GlyphClass: 2
Flags: W
LayerCount: 2
Fore
SplineSet
-10 549 m 1,0,-1
 -10 694 l 1,1,-1
 798 694 l 1,2,-1
 798 -621 l 1,3,-1
 653 -621 l 1,4,-1
 653 549 l 1,5,-1
 -10 549 l 1,0,-1
EndSplineSet
Validated: 1
EndChar

StartChar: uni2514
Encoding: 9492 9492 329
Width: 1451
GlyphClass: 2
Flags: W
LayerCount: 2
Fore
SplineSet
653 1864 m 1,0,-1
 798 1864 l 1,1,-1
 798 694 l 1,2,-1
 1461 694 l 1,3,-1
 1461 549 l 1,4,-1
 653 549 l 1,5,-1
 653 1864 l 1,0,-1
EndSplineSet
Validated: 1
EndChar

StartChar: uni2518
Encoding: 9496 9496 330
Width: 1451
GlyphClass: 2
Flags: W
LayerCount: 2
Fore
SplineSet
-10 549 m 1,0,-1
 -10 694 l 1,1,-1
 653 694 l 1,2,-1
 653 1864 l 1,3,-1
 798 1864 l 1,4,-1
 798 549 l 1,5,-1
 -10 549 l 1,0,-1
EndSplineSet
Validated: 1
EndChar

StartChar: uni251C
Encoding: 9500 9500 331
Width: 1451
GlyphClass: 2
Flags: W
LayerCount: 2
Fore
SplineSet
653 1864 m 1,0,-1
 798 1864 l 1,1,-1
 798 694 l 1,2,-1
 1461 694 l 1,3,-1
 1461 549 l 1,4,-1
 798 549 l 1,5,-1
 798 -621 l 1,6,-1
 653 -621 l 1,7,-1
 653 1864 l 1,0,-1
EndSplineSet
Validated: 1
EndChar

StartChar: uni2524
Encoding: 9508 9508 332
Width: 1451
GlyphClass: 2
Flags: W
LayerCount: 2
Fore
SplineSet
-10 549 m 1,0,-1
 -10 694 l 1,1,-1
 653 694 l 1,2,-1
 653 1864 l 1,3,-1
 798 1864 l 1,4,-1
 798 -621 l 1,5,-1
 653 -621 l 1,6,-1
 653 549 l 1,7,-1
 -10 549 l 1,0,-1
EndSplineSet
Validated: 1
EndChar

StartChar: uni252C
Encoding: 9516 9516 333
Width: 1451
GlyphClass: 2
Flags: W
LayerCount: 2
Fore
SplineSet
-10 549 m 1,0,-1
 -10 694 l 1,1,-1
 1461 694 l 1,2,-1
 1461 549 l 1,3,-1
 798 549 l 1,4,-1
 798 -621 l 1,5,-1
 653 -621 l 1,6,-1
 653 549 l 1,7,-1
 -10 549 l 1,0,-1
EndSplineSet
Validated: 1
EndChar

StartChar: uni2534
Encoding: 9524 9524 334
Width: 1451
GlyphClass: 2
Flags: W
LayerCount: 2
Fore
SplineSet
-10 549 m 1,0,-1
 -10 694 l 1,1,-1
 653 694 l 1,2,-1
 653 1864 l 1,3,-1
 798 1864 l 1,4,-1
 798 694 l 1,5,-1
 1461 694 l 1,6,-1
 1461 549 l 1,7,-1
 -10 549 l 1,0,-1
EndSplineSet
Validated: 1
EndChar

StartChar: uni253C
Encoding: 9532 9532 335
Width: 1451
GlyphClass: 2
Flags: W
LayerCount: 2
Fore
SplineSet
-10 549 m 1,0,-1
 -10 694 l 1,1,-1
 653 694 l 1,2,-1
 653 1864 l 1,3,-1
 798 1864 l 1,4,-1
 798 694 l 1,5,-1
 1461 694 l 1,6,-1
 1461 549 l 1,7,-1
 798 549 l 1,8,-1
 798 -621 l 1,9,-1
 653 -621 l 1,10,-1
 653 549 l 1,11,-1
 -10 549 l 1,0,-1
EndSplineSet
Validated: 1
EndChar

StartChar: uni2550
Encoding: 9552 9552 336
Width: 1451
GlyphClass: 2
Flags: W
LayerCount: 2
Fore
SplineSet
-10 729 m 1,0,-1
 -10 874 l 1,1,-1
 1461 874 l 1,2,-1
 1461 729 l 1,3,-1
 -10 729 l 1,0,-1
-10 369 m 1,4,-1
 -10 514 l 1,5,-1
 1461 514 l 1,6,-1
 1461 369 l 1,7,-1
 -10 369 l 1,4,-1
EndSplineSet
Validated: 1
EndChar

StartChar: uni2551
Encoding: 9553 9553 337
Width: 1451
GlyphClass: 2
Flags: W
LayerCount: 2
Fore
SplineSet
473 1864 m 1,0,-1
 618 1864 l 1,1,-1
 618 -621 l 1,2,-1
 473 -621 l 1,3,-1
 473 1864 l 1,0,-1
833 1864 m 1,4,-1
 978 1864 l 1,5,-1
 978 -621 l 1,6,-1
 833 -621 l 1,7,-1
 833 1864 l 1,4,-1
EndSplineSet
Validated: 1
EndChar

StartChar: uni2552
Encoding: 9554 9554 338
Width: 1451
GlyphClass: 2
Flags: W
LayerCount: 2
Fore
SplineSet
653 874 m 1,0,-1
 1461 874 l 1,1,-1
 1461 729 l 1,2,-1
 798 729 l 1,3,-1
 798 514 l 1,4,-1
 1461 514 l 1,5,-1
 1461 369 l 1,6,-1
 798 369 l 1,7,-1
 798 -621 l 1,8,-1
 653 -621 l 1,9,-1
 653 874 l 1,0,-1
EndSplineSet
Validated: 1
EndChar

StartChar: uni2553
Encoding: 9555 9555 339
Width: 1451
GlyphClass: 2
Flags: W
LayerCount: 2
Fore
SplineSet
1461 694 m 1,0,-1
 1461 549 l 1,1,-1
 978 549 l 1,2,-1
 978 -621 l 1,3,-1
 833 -621 l 1,4,-1
 833 549 l 1,5,-1
 618 549 l 1,6,-1
 618 -621 l 1,7,-1
 473 -621 l 1,8,-1
 473 694 l 1,9,-1
 1461 694 l 1,0,-1
EndSplineSet
Validated: 1
EndChar

StartChar: uni2554
Encoding: 9556 9556 340
Width: 1451
GlyphClass: 2
Flags: W
LayerCount: 2
Fore
SplineSet
473 874 m 1,0,-1
 1461 874 l 1,1,-1
 1461 729 l 1,2,-1
 618 729 l 1,3,-1
 618 -621 l 1,4,-1
 473 -621 l 1,5,-1
 473 874 l 1,0,-1
833 514 m 1,6,-1
 1461 514 l 1,7,-1
 1461 369 l 1,8,-1
 978 369 l 1,9,-1
 978 -621 l 1,10,-1
 833 -621 l 1,11,-1
 833 514 l 1,6,-1
EndSplineSet
Validated: 1
EndChar

StartChar: uni2555
Encoding: 9557 9557 341
Width: 1451
GlyphClass: 2
Flags: W
LayerCount: 2
Fore
SplineSet
-10 369 m 1,0,-1
 -10 514 l 1,1,-1
 653 514 l 1,2,-1
 653 729 l 1,3,-1
 -10 729 l 1,4,-1
 -10 874 l 1,5,-1
 798 874 l 1,6,-1
 798 -621 l 1,7,-1
 653 -621 l 1,8,-1
 653 369 l 1,9,-1
 -10 369 l 1,0,-1
EndSplineSet
Validated: 1
EndChar

StartChar: uni2556
Encoding: 9558 9558 342
Width: 1451
GlyphClass: 2
Flags: W
LayerCount: 2
Fore
SplineSet
-10 549 m 1,0,-1
 -10 694 l 1,1,-1
 978 694 l 1,2,-1
 978 -621 l 1,3,-1
 833 -621 l 1,4,-1
 833 549 l 1,5,-1
 618 549 l 1,6,-1
 618 -621 l 1,7,-1
 473 -621 l 1,8,-1
 473 549 l 1,9,-1
 -10 549 l 1,0,-1
EndSplineSet
Validated: 1
EndChar

StartChar: uni2557
Encoding: 9559 9559 343
Width: 1451
GlyphClass: 2
Flags: W
LayerCount: 2
Fore
SplineSet
978 874 m 1,0,-1
 978 -621 l 1,1,-1
 833 -621 l 1,2,-1
 833 729 l 1,3,-1
 -10 729 l 1,4,-1
 -10 874 l 1,5,-1
 978 874 l 1,0,-1
618 -621 m 1,6,-1
 473 -621 l 1,7,-1
 473 369 l 1,8,-1
 -10 369 l 1,9,-1
 -10 514 l 1,10,-1
 618 514 l 1,11,-1
 618 -621 l 1,6,-1
EndSplineSet
Validated: 1
EndChar

StartChar: uni2558
Encoding: 9560 9560 344
Width: 1451
GlyphClass: 2
Flags: W
LayerCount: 2
Fore
SplineSet
653 1864 m 1,0,-1
 798 1864 l 1,1,-1
 798 874 l 1,2,-1
 1461 874 l 1,3,-1
 1461 729 l 1,4,-1
 798 729 l 1,5,-1
 798 514 l 1,6,-1
 1461 514 l 1,7,-1
 1461 369 l 1,8,-1
 653 369 l 1,9,-1
 653 1864 l 1,0,-1
EndSplineSet
Validated: 1
EndChar

StartChar: uni2559
Encoding: 9561 9561 345
Width: 1451
GlyphClass: 2
Flags: W
LayerCount: 2
Fore
SplineSet
833 1864 m 1,0,-1
 978 1864 l 1,1,-1
 978 694 l 1,2,-1
 1461 694 l 1,3,-1
 1461 549 l 1,4,-1
 473 549 l 1,5,-1
 473 1864 l 1,6,-1
 618 1864 l 1,7,-1
 618 694 l 1,8,-1
 833 694 l 1,9,-1
 833 1864 l 1,0,-1
EndSplineSet
Validated: 1
EndChar

StartChar: uni255A
Encoding: 9562 9562 346
Width: 1451
GlyphClass: 2
Flags: W
LayerCount: 2
Fore
SplineSet
473 1864 m 1,0,-1
 618 1864 l 1,1,-1
 618 514 l 1,2,-1
 1461 514 l 1,3,-1
 1461 369 l 1,4,-1
 473 369 l 1,5,-1
 473 1864 l 1,0,-1
833 1864 m 1,6,-1
 978 1864 l 1,7,-1
 978 874 l 1,8,-1
 1461 874 l 1,9,-1
 1461 729 l 1,10,-1
 833 729 l 1,11,-1
 833 1864 l 1,6,-1
EndSplineSet
Validated: 1
EndChar

StartChar: uni255B
Encoding: 9563 9563 347
Width: 1451
GlyphClass: 2
Flags: W
LayerCount: 2
Fore
SplineSet
-10 369 m 1,0,-1
 -10 514 l 1,1,-1
 653 514 l 1,2,-1
 653 729 l 1,3,-1
 -10 729 l 1,4,-1
 -10 874 l 1,5,-1
 653 874 l 1,6,-1
 653 1864 l 1,7,-1
 798 1864 l 1,8,-1
 798 369 l 1,9,-1
 -10 369 l 1,0,-1
EndSplineSet
Validated: 1
EndChar

StartChar: uni255C
Encoding: 9564 9564 348
Width: 1451
GlyphClass: 2
Flags: W
LayerCount: 2
Fore
SplineSet
978 549 m 1,0,-1
 -10 549 l 1,1,-1
 -10 694 l 1,2,-1
 473 694 l 1,3,-1
 473 1864 l 1,4,-1
 618 1864 l 1,5,-1
 618 694 l 1,6,-1
 833 694 l 1,7,-1
 833 1864 l 1,8,-1
 978 1864 l 1,9,-1
 978 549 l 1,0,-1
EndSplineSet
Validated: 1
EndChar

StartChar: uni255D
Encoding: 9565 9565 349
Width: 1451
GlyphClass: 2
Flags: W
LayerCount: 2
Fore
SplineSet
978 369 m 1,0,-1
 -10 369 l 1,1,-1
 -10 514 l 1,2,-1
 833 514 l 1,3,-1
 833 1864 l 1,4,-1
 978 1864 l 1,5,-1
 978 369 l 1,0,-1
473 1864 m 1,6,-1
 618 1864 l 1,7,-1
 618 729 l 1,8,-1
 -10 729 l 1,9,-1
 -10 874 l 1,10,-1
 473 874 l 1,11,-1
 473 1864 l 1,6,-1
EndSplineSet
Validated: 1
EndChar

StartChar: uni255E
Encoding: 9566 9566 350
Width: 1451
GlyphClass: 2
Flags: W
LayerCount: 2
Fore
SplineSet
653 1864 m 1,0,-1
 798 1864 l 1,1,-1
 798 874 l 1,2,-1
 1461 874 l 1,3,-1
 1461 729 l 1,4,-1
 798 729 l 1,5,-1
 798 514 l 1,6,-1
 1461 514 l 1,7,-1
 1461 369 l 1,8,-1
 798 369 l 1,9,-1
 798 -621 l 1,10,-1
 653 -621 l 1,11,-1
 653 1864 l 1,0,-1
EndSplineSet
Validated: 1
EndChar

StartChar: uni255F
Encoding: 9567 9567 351
Width: 1451
GlyphClass: 2
Flags: W
LayerCount: 2
Fore
SplineSet
833 1864 m 1,0,-1
 978 1864 l 1,1,-1
 978 694 l 1,2,-1
 1461 694 l 1,3,-1
 1461 549 l 1,4,-1
 978 549 l 1,5,-1
 978 -621 l 1,6,-1
 833 -621 l 1,7,-1
 833 1864 l 1,0,-1
473 1864 m 1,8,-1
 618 1864 l 1,9,-1
 618 -621 l 1,10,-1
 473 -621 l 1,11,-1
 473 1864 l 1,8,-1
EndSplineSet
Validated: 1
EndChar

StartChar: uni2560
Encoding: 9568 9568 352
Width: 1451
GlyphClass: 2
Flags: W
LayerCount: 2
Fore
SplineSet
618 -621 m 1,0,-1
 473 -621 l 1,1,-1
 473 1864 l 1,2,-1
 618 1864 l 1,3,-1
 618 -621 l 1,0,-1
833 514 m 1,4,-1
 1461 514 l 1,5,-1
 1461 369 l 1,6,-1
 978 369 l 1,7,-1
 978 -621 l 1,8,-1
 833 -621 l 1,9,-1
 833 514 l 1,4,-1
833 1864 m 1,10,-1
 978 1864 l 1,11,-1
 978 874 l 1,12,-1
 1461 874 l 1,13,-1
 1461 729 l 1,14,-1
 833 729 l 1,15,-1
 833 1864 l 1,10,-1
EndSplineSet
Validated: 1
EndChar

StartChar: uni2561
Encoding: 9569 9569 353
Width: 1451
GlyphClass: 2
Flags: W
LayerCount: 2
Fore
SplineSet
-10 369 m 1,0,-1
 -10 514 l 1,1,-1
 653 514 l 1,2,-1
 653 729 l 1,3,-1
 -10 729 l 1,4,-1
 -10 874 l 1,5,-1
 653 874 l 1,6,-1
 653 1864 l 1,7,-1
 798 1864 l 1,8,-1
 798 -621 l 1,9,-1
 653 -621 l 1,10,-1
 653 369 l 1,11,-1
 -10 369 l 1,0,-1
EndSplineSet
Validated: 1
EndChar

StartChar: uni2562
Encoding: 9570 9570 354
Width: 1451
GlyphClass: 2
Flags: W
LayerCount: 2
Fore
SplineSet
-10 549 m 1,0,-1
 -10 694 l 1,1,-1
 473 694 l 1,2,-1
 473 1864 l 1,3,-1
 618 1864 l 1,4,-1
 618 -621 l 1,5,-1
 473 -621 l 1,6,-1
 473 549 l 1,7,-1
 -10 549 l 1,0,-1
833 1864 m 1,8,-1
 978 1864 l 1,9,-1
 978 -621 l 1,10,-1
 833 -621 l 1,11,-1
 833 1864 l 1,8,-1
EndSplineSet
Validated: 1
EndChar

StartChar: uni2563
Encoding: 9571 9571 355
Width: 1451
GlyphClass: 2
Flags: W
LayerCount: 2
Fore
SplineSet
833 1864 m 1,0,-1
 978 1864 l 1,1,-1
 978 -621 l 1,2,-1
 833 -621 l 1,3,-1
 833 1864 l 1,0,-1
473 1864 m 1,4,-1
 618 1864 l 1,5,-1
 618 729 l 1,6,-1
 -10 729 l 1,7,-1
 -10 874 l 1,8,-1
 473 874 l 1,9,-1
 473 1864 l 1,4,-1
618 -621 m 1,10,-1
 473 -621 l 1,11,-1
 473 369 l 1,12,-1
 -10 369 l 1,13,-1
 -10 514 l 1,14,-1
 618 514 l 1,15,-1
 618 -621 l 1,10,-1
EndSplineSet
Validated: 1
EndChar

StartChar: uni2564
Encoding: 9572 9572 356
Width: 1451
GlyphClass: 2
Flags: W
LayerCount: 2
Fore
SplineSet
-10 369 m 1,0,-1
 -10 514 l 1,1,-1
 1461 514 l 1,2,-1
 1461 369 l 1,3,-1
 798 369 l 1,4,-1
 798 -621 l 1,5,-1
 653 -621 l 1,6,-1
 653 369 l 1,7,-1
 -10 369 l 1,0,-1
-10 729 m 1,8,-1
 -10 874 l 1,9,-1
 1461 874 l 1,10,-1
 1461 729 l 1,11,-1
 -10 729 l 1,8,-1
EndSplineSet
Validated: 1
EndChar

StartChar: uni2565
Encoding: 9573 9573 357
Width: 1451
GlyphClass: 2
Flags: W
LayerCount: 2
Fore
SplineSet
-10 549 m 1,0,-1
 -10 694 l 1,1,-1
 1461 694 l 1,2,-1
 1461 549 l 1,3,-1
 978 549 l 1,4,-1
 978 -621 l 1,5,-1
 833 -621 l 1,6,-1
 833 549 l 1,7,-1
 618 549 l 1,8,-1
 618 -621 l 1,9,-1
 473 -621 l 1,10,-1
 473 549 l 1,11,-1
 -10 549 l 1,0,-1
EndSplineSet
Validated: 1
EndChar

StartChar: uni2566
Encoding: 9574 9574 358
Width: 1451
GlyphClass: 2
Flags: W
LayerCount: 2
Fore
SplineSet
618 -621 m 1,0,-1
 473 -621 l 1,1,-1
 473 369 l 1,2,-1
 -10 369 l 1,3,-1
 -10 514 l 1,4,-1
 618 514 l 1,5,-1
 618 -621 l 1,0,-1
833 514 m 1,6,-1
 1461 514 l 1,7,-1
 1461 369 l 1,8,-1
 978 369 l 1,9,-1
 978 -621 l 1,10,-1
 833 -621 l 1,11,-1
 833 514 l 1,6,-1
1461 874 m 1,12,-1
 1461 729 l 1,13,-1
 -10 729 l 1,14,-1
 -10 874 l 1,15,-1
 1461 874 l 1,12,-1
EndSplineSet
Validated: 1
EndChar

StartChar: uni2567
Encoding: 9575 9575 359
Width: 1451
GlyphClass: 2
Flags: W
LayerCount: 2
Fore
SplineSet
-10 729 m 1,0,-1
 -10 874 l 1,1,-1
 653 874 l 1,2,-1
 653 1864 l 1,3,-1
 798 1864 l 1,4,-1
 798 874 l 1,5,-1
 1461 874 l 1,6,-1
 1461 729 l 1,7,-1
 -10 729 l 1,0,-1
-10 369 m 1,8,-1
 -10 514 l 1,9,-1
 1461 514 l 1,10,-1
 1461 369 l 1,11,-1
 -10 369 l 1,8,-1
EndSplineSet
Validated: 1
EndChar

StartChar: uni2568
Encoding: 9576 9576 360
Width: 1451
GlyphClass: 2
Flags: W
LayerCount: 2
Fore
SplineSet
-10 549 m 1,0,-1
 -10 694 l 1,1,-1
 473 694 l 1,2,-1
 473 1864 l 1,3,-1
 618 1864 l 1,4,-1
 618 694 l 1,5,-1
 833 694 l 1,6,-1
 833 1864 l 1,7,-1
 978 1864 l 1,8,-1
 978 694 l 1,9,-1
 1461 694 l 1,10,-1
 1461 549 l 1,11,-1
 -10 549 l 1,0,-1
EndSplineSet
Validated: 1
EndChar

StartChar: uni2569
Encoding: 9577 9577 361
Width: 1451
GlyphClass: 2
Flags: W
LayerCount: 2
Fore
SplineSet
833 1864 m 1,0,-1
 978 1864 l 1,1,-1
 978 874 l 1,2,-1
 1461 874 l 1,3,-1
 1461 729 l 1,4,-1
 833 729 l 1,5,-1
 833 1864 l 1,0,-1
473 1864 m 1,6,-1
 618 1864 l 1,7,-1
 618 729 l 1,8,-1
 -10 729 l 1,9,-1
 -10 874 l 1,10,-1
 473 874 l 1,11,-1
 473 1864 l 1,6,-1
-10 369 m 1,12,-1
 -10 514 l 1,13,-1
 1461 514 l 1,14,-1
 1461 369 l 1,15,-1
 -10 369 l 1,12,-1
EndSplineSet
Validated: 1
EndChar

StartChar: uni256A
Encoding: 9578 9578 362
Width: 1451
GlyphClass: 2
Flags: W
LayerCount: 2
Fore
SplineSet
-10 369 m 1,0,-1
 -10 514 l 1,1,-1
 653 514 l 1,2,-1
 653 729 l 1,3,-1
 -10 729 l 1,4,-1
 -10 874 l 1,5,-1
 653 874 l 1,6,-1
 653 1864 l 1,7,-1
 798 1864 l 1,8,-1
 798 874 l 1,9,-1
 1461 874 l 1,10,-1
 1461 729 l 1,11,-1
 798 729 l 1,12,-1
 798 514 l 1,13,-1
 1461 514 l 1,14,-1
 1461 369 l 1,15,-1
 798 369 l 1,16,-1
 798 -621 l 1,17,-1
 653 -621 l 1,18,-1
 653 369 l 1,19,-1
 -10 369 l 1,0,-1
EndSplineSet
Validated: 1
EndChar

StartChar: uni256B
Encoding: 9579 9579 363
Width: 1451
GlyphClass: 2
Flags: W
LayerCount: 2
Fore
SplineSet
833 1864 m 1,0,-1
 978 1864 l 1,1,-1
 978 694 l 1,2,-1
 1461 694 l 1,3,-1
 1461 549 l 1,4,-1
 978 549 l 1,5,-1
 978 -621 l 1,6,-1
 833 -621 l 1,7,-1
 833 549 l 1,8,-1
 618 549 l 1,9,-1
 618 -621 l 1,10,-1
 473 -621 l 1,11,-1
 473 549 l 1,12,-1
 -10 549 l 1,13,-1
 -10 694 l 1,14,-1
 473 694 l 1,15,-1
 473 1864 l 1,16,-1
 618 1864 l 1,17,-1
 618 694 l 1,18,-1
 833 694 l 1,19,-1
 833 1864 l 1,0,-1
EndSplineSet
Validated: 1
EndChar

StartChar: uni256C
Encoding: 9580 9580 364
Width: 1451
GlyphClass: 2
Flags: W
LayerCount: 2
Fore
SplineSet
833 1864 m 1,0,-1
 978 1864 l 1,1,-1
 978 874 l 1,2,-1
 1461 874 l 1,3,-1
 1461 729 l 1,4,-1
 833 729 l 1,5,-1
 833 1864 l 1,0,-1
618 -621 m 1,6,-1
 473 -621 l 1,7,-1
 473 369 l 1,8,-1
 -10 369 l 1,9,-1
 -10 514 l 1,10,-1
 618 514 l 1,11,-1
 618 -621 l 1,6,-1
833 514 m 1,12,-1
 1461 514 l 1,13,-1
 1461 369 l 1,14,-1
 978 369 l 1,15,-1
 978 -621 l 1,16,-1
 833 -621 l 1,17,-1
 833 514 l 1,12,-1
473 1864 m 1,18,-1
 618 1864 l 1,19,-1
 618 729 l 1,20,-1
 -10 729 l 1,21,-1
 -10 874 l 1,22,-1
 473 874 l 1,23,-1
 473 1864 l 1,18,-1
EndSplineSet
Validated: 1
EndChar

StartChar: upblock
Encoding: 9600 9600 365
Width: 1451
GlyphClass: 2
Flags: W
LayerCount: 2
Fore
SplineSet
1451 621 m 1,0,-1
 0 621 l 1,1,-1
 0 1864 l 1,2,-1
 1451 1864 l 1,3,-1
 1451 621 l 1,0,-1
EndSplineSet
Validated: 1
EndChar

StartChar: dnblock
Encoding: 9604 9604 366
Width: 1451
GlyphClass: 2
Flags: W
LayerCount: 2
Fore
SplineSet
1451 -621 m 1,0,-1
 0 -621 l 1,1,-1
 0 621 l 1,2,-1
 1451 621 l 1,3,-1
 1451 -621 l 1,0,-1
EndSplineSet
Validated: 1
EndChar

StartChar: block
Encoding: 9608 9608 367
Width: 1451
GlyphClass: 2
Flags: W
LayerCount: 2
Fore
SplineSet
1451 -621 m 1,0,-1
 0 -621 l 1,1,-1
 0 1864 l 1,2,-1
 1451 1864 l 1,3,-1
 1451 -621 l 1,0,-1
EndSplineSet
Validated: 1
EndChar

StartChar: lfblock
Encoding: 9612 9612 368
Width: 1451
GlyphClass: 2
Flags: W
LayerCount: 2
Fore
SplineSet
726 -621 m 1,0,-1
 0 -621 l 1,1,-1
 0 1864 l 1,2,-1
 726 1864 l 1,3,-1
 726 -621 l 1,0,-1
EndSplineSet
Validated: 1
EndChar

StartChar: rtblock
Encoding: 9616 9616 369
Width: 1451
GlyphClass: 2
Flags: W
LayerCount: 2
Fore
SplineSet
1451 -621 m 1,0,-1
 725 -621 l 1,1,-1
 725 1864 l 1,2,-1
 1451 1864 l 1,3,-1
 1451 -621 l 1,0,-1
EndSplineSet
Validated: 1
EndChar

StartChar: ltshade
Encoding: 9617 9617 370
Width: 1451
GlyphClass: 2
Flags: W
LayerCount: 2
Fore
SplineSet
103 1314 m 1,0,-1
 207 1314 l 1,1,-1
 207 1216 l 1,2,-1
 103 1216 l 1,3,-1
 103 1314 l 1,0,-1
517 1314 m 1,4,-1
 621 1314 l 1,5,-1
 621 1216 l 1,6,-1
 517 1216 l 1,7,-1
 517 1314 l 1,4,-1
933 1314 m 1,8,-1
 1036 1314 l 1,9,-1
 1036 1216 l 1,10,-1
 933 1216 l 1,11,-1
 933 1314 l 1,8,-1
310 1119 m 1,12,-1
 414 1119 l 1,13,-1
 414 1023 l 1,14,-1
 310 1023 l 1,15,-1
 310 1119 l 1,12,-1
725 1119 m 1,16,-1
 829 1119 l 1,17,-1
 829 1023 l 1,18,-1
 725 1023 l 1,19,-1
 725 1119 l 1,16,-1
1140 1119 m 1,20,-1
 1244 1119 l 1,21,-1
 1244 1023 l 1,22,-1
 1140 1023 l 1,23,-1
 1140 1119 l 1,20,-1
933 927 m 1,24,-1
 1036 927 l 1,25,-1
 1036 831 l 1,26,-1
 933 831 l 1,27,-1
 933 927 l 1,24,-1
517 927 m 1,28,-1
 621 927 l 1,29,-1
 621 831 l 1,30,-1
 517 831 l 1,31,-1
 517 927 l 1,28,-1
103 927 m 1,32,-1
 207 927 l 1,33,-1
 207 831 l 1,34,-1
 103 831 l 1,35,-1
 103 927 l 1,32,-1
1140 732 m 1,36,-1
 1244 732 l 1,37,-1
 1244 636 l 1,38,-1
 1140 636 l 1,39,-1
 1140 732 l 1,36,-1
725 732 m 1,40,-1
 829 732 l 1,41,-1
 829 636 l 1,42,-1
 725 636 l 1,43,-1
 725 732 l 1,40,-1
310 732 m 1,44,-1
 414 732 l 1,45,-1
 414 636 l 1,46,-1
 310 636 l 1,47,-1
 310 732 l 1,44,-1
103 540 m 1,48,-1
 207 540 l 1,49,-1
 207 444 l 1,50,-1
 103 444 l 1,51,-1
 103 540 l 1,48,-1
517 540 m 1,52,-1
 621 540 l 1,53,-1
 621 444 l 1,54,-1
 517 444 l 1,55,-1
 517 540 l 1,52,-1
933 540 m 1,56,-1
 1036 540 l 1,57,-1
 1036 444 l 1,58,-1
 933 444 l 1,59,-1
 933 540 l 1,56,-1
1140 345 m 1,60,-1
 1244 345 l 1,61,-1
 1244 249 l 1,62,-1
 1140 249 l 1,63,-1
 1140 345 l 1,60,-1
725 345 m 1,64,-1
 829 345 l 1,65,-1
 829 249 l 1,66,-1
 725 249 l 1,67,-1
 725 345 l 1,64,-1
310 345 m 1,68,-1
 414 345 l 1,69,-1
 414 249 l 1,70,-1
 310 249 l 1,71,-1
 310 345 l 1,68,-1
103 153 m 1,72,-1
 207 153 l 1,73,-1
 207 56 l 1,74,-1
 103 56 l 1,75,-1
 103 153 l 1,72,-1
517 153 m 1,76,-1
 621 153 l 1,77,-1
 621 56 l 1,78,-1
 517 56 l 1,79,-1
 517 153 l 1,76,-1
933 153 m 1,80,-1
 1036 153 l 1,81,-1
 1036 56 l 1,82,-1
 933 56 l 1,83,-1
 933 153 l 1,80,-1
310 -42 m 1,84,-1
 414 -42 l 1,85,-1
 414 -136 l 1,86,-1
 310 -136 l 1,87,-1
 310 -42 l 1,84,-1
725 -42 m 1,88,-1
 829 -42 l 1,89,-1
 829 -136 l 1,90,-1
 725 -136 l 1,91,-1
 725 -42 l 1,88,-1
1140 -42 m 1,92,-1
 1244 -42 l 1,93,-1
 1244 -136 l 1,94,-1
 1140 -136 l 1,95,-1
 1140 -42 l 1,92,-1
933 -234 m 1,96,-1
 1036 -234 l 1,97,-1
 1036 -331 l 1,98,-1
 933 -331 l 1,99,-1
 933 -234 l 1,96,-1
517 -234 m 1,100,-1
 621 -234 l 1,101,-1
 621 -331 l 1,102,-1
 517 -331 l 1,103,-1
 517 -234 l 1,100,-1
103 -234 m 1,104,-1
 207 -234 l 1,105,-1
 207 -331 l 1,106,-1
 103 -331 l 1,107,-1
 103 -234 l 1,104,-1
310 -427 m 1,108,-1
 414 -427 l 1,109,-1
 414 -523 l 1,110,-1
 310 -523 l 1,111,-1
 310 -427 l 1,108,-1
725 -427 m 1,112,-1
 829 -427 l 1,113,-1
 829 -523 l 1,114,-1
 725 -523 l 1,115,-1
 725 -427 l 1,112,-1
1140 -427 m 1,116,-1
 1244 -427 l 1,117,-1
 1244 -523 l 1,118,-1
 1140 -523 l 1,119,-1
 1140 -427 l 1,116,-1
310 1506 m 1,120,-1
 414 1506 l 1,121,-1
 414 1408 l 1,122,-1
 310 1408 l 1,123,-1
 310 1506 l 1,120,-1
725 1506 m 1,124,-1
 829 1506 l 1,125,-1
 829 1408 l 1,126,-1
 725 1408 l 1,127,-1
 725 1506 l 1,124,-1
1140 1506 m 1,128,-1
 1244 1506 l 1,129,-1
 1244 1408 l 1,130,-1
 1140 1408 l 1,131,-1
 1140 1506 l 1,128,-1
103 1699 m 1,132,-1
 207 1699 l 1,133,-1
 207 1603 l 1,134,-1
 103 1603 l 1,135,-1
 103 1699 l 1,132,-1
517 1699 m 1,136,-1
 621 1699 l 1,137,-1
 621 1603 l 1,138,-1
 517 1603 l 1,139,-1
 517 1699 l 1,136,-1
933 1699 m 1,140,-1
 1036 1699 l 1,141,-1
 1036 1603 l 1,142,-1
 933 1603 l 1,143,-1
 933 1699 l 1,140,-1
1347 1314 m 1,144,-1
 1451 1314 l 1,145,-1
 1451 1216 l 1,146,-1
 1347 1216 l 1,147,-1
 1347 1314 l 1,144,-1
1347 927 m 1,148,-1
 1451 927 l 1,149,-1
 1451 831 l 1,150,-1
 1347 831 l 1,151,-1
 1347 927 l 1,148,-1
1347 540 m 1,152,-1
 1451 540 l 1,153,-1
 1451 444 l 1,154,-1
 1347 444 l 1,155,-1
 1347 540 l 1,152,-1
1347 153 m 1,156,-1
 1451 153 l 1,157,-1
 1451 56 l 1,158,-1
 1347 56 l 1,159,-1
 1347 153 l 1,156,-1
1347 -234 m 1,160,-1
 1451 -234 l 1,161,-1
 1451 -331 l 1,162,-1
 1347 -331 l 1,163,-1
 1347 -234 l 1,160,-1
1347 1699 m 1,164,-1
 1451 1699 l 1,165,-1
 1451 1603 l 1,166,-1
 1347 1603 l 1,167,-1
 1347 1699 l 1,164,-1
EndSplineSet
Validated: 1
EndChar

StartChar: shade
Encoding: 9618 9618 371
Width: 1451
GlyphClass: 2
Flags: W
LayerCount: 2
Fore
SplineSet
103 1314 m 1,0,-1
 207 1314 l 1,1,-1
 207 1216 l 1,2,-1
 103 1216 l 1,3,-1
 103 1314 l 1,0,-1
310 1314 m 1,4,-1
 414 1314 l 1,5,-1
 414 1216 l 1,6,-1
 310 1216 l 1,7,-1
 310 1314 l 1,4,-1
517 1314 m 1,8,-1
 621 1314 l 1,9,-1
 621 1216 l 1,10,-1
 517 1216 l 1,11,-1
 517 1314 l 1,8,-1
725 1314 m 1,12,-1
 829 1314 l 1,13,-1
 829 1216 l 1,14,-1
 725 1216 l 1,15,-1
 725 1314 l 1,12,-1
933 1314 m 1,16,-1
 1037 1314 l 1,17,-1
 1037 1216 l 1,18,-1
 933 1216 l 1,19,-1
 933 1314 l 1,16,-1
1140 1314 m 1,20,-1
 1244 1314 l 1,21,-1
 1244 1216 l 1,22,-1
 1140 1216 l 1,23,-1
 1140 1314 l 1,20,-1
0 1119 m 1,24,-1
 103 1119 l 1,25,-1
 103 1023 l 1,26,-1
 0 1023 l 1,27,-1
 0 1119 l 1,24,-1
207 1119 m 1,28,-1
 310 1119 l 1,29,-1
 310 1023 l 1,30,-1
 207 1023 l 1,31,-1
 207 1119 l 1,28,-1
414 1119 m 1,32,-1
 517 1119 l 1,33,-1
 517 1023 l 1,34,-1
 414 1023 l 1,35,-1
 414 1119 l 1,32,-1
621 1119 m 1,36,-1
 725 1119 l 1,37,-1
 725 1023 l 1,38,-1
 621 1023 l 1,39,-1
 621 1119 l 1,36,-1
829 1119 m 1,40,-1
 933 1119 l 1,41,-1
 933 1023 l 1,42,-1
 829 1023 l 1,43,-1
 829 1119 l 1,40,-1
1037 1119 m 1,44,-1
 1140 1119 l 1,45,-1
 1140 1023 l 1,46,-1
 1037 1023 l 1,47,-1
 1037 1119 l 1,44,-1
103 927 m 1,48,-1
 207 927 l 1,49,-1
 207 831 l 1,50,-1
 103 831 l 1,51,-1
 103 927 l 1,48,-1
310 927 m 1,52,-1
 414 927 l 1,53,-1
 414 831 l 1,54,-1
 310 831 l 1,55,-1
 310 927 l 1,52,-1
517 927 m 1,56,-1
 621 927 l 1,57,-1
 621 831 l 1,58,-1
 517 831 l 1,59,-1
 517 927 l 1,56,-1
725 927 m 1,60,-1
 829 927 l 1,61,-1
 829 831 l 1,62,-1
 725 831 l 1,63,-1
 725 927 l 1,60,-1
933 927 m 1,64,-1
 1037 927 l 1,65,-1
 1037 831 l 1,66,-1
 933 831 l 1,67,-1
 933 927 l 1,64,-1
1140 927 m 1,68,-1
 1244 927 l 1,69,-1
 1244 831 l 1,70,-1
 1140 831 l 1,71,-1
 1140 927 l 1,68,-1
0 732 m 1,72,-1
 103 732 l 1,73,-1
 103 636 l 1,74,-1
 0 636 l 1,75,-1
 0 732 l 1,72,-1
207 732 m 1,76,-1
 310 732 l 1,77,-1
 310 636 l 1,78,-1
 207 636 l 1,79,-1
 207 732 l 1,76,-1
414 732 m 1,80,-1
 517 732 l 1,81,-1
 517 636 l 1,82,-1
 414 636 l 1,83,-1
 414 732 l 1,80,-1
621 732 m 1,84,-1
 725 732 l 1,85,-1
 725 636 l 1,86,-1
 621 636 l 1,87,-1
 621 732 l 1,84,-1
829 732 m 1,88,-1
 933 732 l 1,89,-1
 933 636 l 1,90,-1
 829 636 l 1,91,-1
 829 732 l 1,88,-1
1037 732 m 1,92,-1
 1140 732 l 1,93,-1
 1140 636 l 1,94,-1
 1037 636 l 1,95,-1
 1037 732 l 1,92,-1
103 540 m 1,96,-1
 207 540 l 1,97,-1
 207 444 l 1,98,-1
 103 444 l 1,99,-1
 103 540 l 1,96,-1
310 540 m 1,100,-1
 414 540 l 1,101,-1
 414 444 l 1,102,-1
 310 444 l 1,103,-1
 310 540 l 1,100,-1
517 540 m 1,104,-1
 621 540 l 1,105,-1
 621 444 l 1,106,-1
 517 444 l 1,107,-1
 517 540 l 1,104,-1
725 540 m 1,108,-1
 829 540 l 1,109,-1
 829 444 l 1,110,-1
 725 444 l 1,111,-1
 725 540 l 1,108,-1
933 540 m 1,112,-1
 1037 540 l 1,113,-1
 1037 444 l 1,114,-1
 933 444 l 1,115,-1
 933 540 l 1,112,-1
1140 540 m 1,116,-1
 1244 540 l 1,117,-1
 1244 444 l 1,118,-1
 1140 444 l 1,119,-1
 1140 540 l 1,116,-1
0 345 m 1,120,-1
 103 345 l 1,121,-1
 103 249 l 1,122,-1
 0 249 l 1,123,-1
 0 345 l 1,120,-1
414 345 m 1,124,-1
 517 345 l 1,125,-1
 517 249 l 1,126,-1
 414 249 l 1,127,-1
 414 345 l 1,124,-1
621 345 m 1,128,-1
 725 345 l 1,129,-1
 725 249 l 1,130,-1
 621 249 l 1,131,-1
 621 345 l 1,128,-1
829 345 m 1,132,-1
 933 345 l 1,133,-1
 933 249 l 1,134,-1
 829 249 l 1,135,-1
 829 345 l 1,132,-1
1037 345 m 1,136,-1
 1140 345 l 1,137,-1
 1140 249 l 1,138,-1
 1037 249 l 1,139,-1
 1037 345 l 1,136,-1
207 345 m 1,140,-1
 310 345 l 1,141,-1
 310 249 l 1,142,-1
 207 249 l 1,143,-1
 207 345 l 1,140,-1
1140 153 m 1,144,-1
 1244 153 l 1,145,-1
 1244 56 l 1,146,-1
 1140 56 l 1,147,-1
 1140 153 l 1,144,-1
933 153 m 1,148,-1
 1037 153 l 1,149,-1
 1037 56 l 1,150,-1
 933 56 l 1,151,-1
 933 153 l 1,148,-1
725 153 m 1,152,-1
 829 153 l 1,153,-1
 829 56 l 1,154,-1
 725 56 l 1,155,-1
 725 153 l 1,152,-1
517 153 m 1,156,-1
 621 153 l 1,157,-1
 621 56 l 1,158,-1
 517 56 l 1,159,-1
 517 153 l 1,156,-1
310 153 m 1,160,-1
 414 153 l 1,161,-1
 414 56 l 1,162,-1
 310 56 l 1,163,-1
 310 153 l 1,160,-1
103 153 m 1,164,-1
 207 153 l 1,165,-1
 207 56 l 1,166,-1
 103 56 l 1,167,-1
 103 153 l 1,164,-1
0 -42 m 1,168,-1
 103 -42 l 1,169,-1
 103 -136 l 1,170,-1
 0 -136 l 1,171,-1
 0 -42 l 1,168,-1
207 -42 m 1,172,-1
 310 -42 l 1,173,-1
 310 -136 l 1,174,-1
 207 -136 l 1,175,-1
 207 -42 l 1,172,-1
414 -42 m 1,176,-1
 517 -42 l 1,177,-1
 517 -136 l 1,178,-1
 414 -136 l 1,179,-1
 414 -42 l 1,176,-1
621 -42 m 1,180,-1
 725 -42 l 1,181,-1
 725 -136 l 1,182,-1
 621 -136 l 1,183,-1
 621 -42 l 1,180,-1
829 -42 m 1,184,-1
 933 -42 l 1,185,-1
 933 -136 l 1,186,-1
 829 -136 l 1,187,-1
 829 -42 l 1,184,-1
1037 -42 m 1,188,-1
 1140 -42 l 1,189,-1
 1140 -136 l 1,190,-1
 1037 -136 l 1,191,-1
 1037 -42 l 1,188,-1
1140 -234 m 1,192,-1
 1244 -234 l 1,193,-1
 1244 -331 l 1,194,-1
 1140 -331 l 1,195,-1
 1140 -234 l 1,192,-1
933 -234 m 1,196,-1
 1037 -234 l 1,197,-1
 1037 -331 l 1,198,-1
 933 -331 l 1,199,-1
 933 -234 l 1,196,-1
725 -234 m 1,200,-1
 829 -234 l 1,201,-1
 829 -331 l 1,202,-1
 725 -331 l 1,203,-1
 725 -234 l 1,200,-1
517 -234 m 1,204,-1
 621 -234 l 1,205,-1
 621 -331 l 1,206,-1
 517 -331 l 1,207,-1
 517 -234 l 1,204,-1
310 -234 m 1,208,-1
 414 -234 l 1,209,-1
 414 -331 l 1,210,-1
 310 -331 l 1,211,-1
 310 -234 l 1,208,-1
103 -234 m 1,212,-1
 207 -234 l 1,213,-1
 207 -331 l 1,214,-1
 103 -331 l 1,215,-1
 103 -234 l 1,212,-1
0 -427 m 1,216,-1
 103 -427 l 1,217,-1
 103 -523 l 1,218,-1
 0 -523 l 1,219,-1
 0 -427 l 1,216,-1
207 -427 m 1,220,-1
 310 -427 l 1,221,-1
 310 -523 l 1,222,-1
 207 -523 l 1,223,-1
 207 -427 l 1,220,-1
414 -427 m 1,224,-1
 517 -427 l 1,225,-1
 517 -523 l 1,226,-1
 414 -523 l 1,227,-1
 414 -427 l 1,224,-1
621 -427 m 1,228,-1
 725 -427 l 1,229,-1
 725 -523 l 1,230,-1
 621 -523 l 1,231,-1
 621 -427 l 1,228,-1
829 -427 m 1,232,-1
 933 -427 l 1,233,-1
 933 -523 l 1,234,-1
 829 -523 l 1,235,-1
 829 -427 l 1,232,-1
1037 -427 m 1,236,-1
 1140 -427 l 1,237,-1
 1140 -523 l 1,238,-1
 1037 -523 l 1,239,-1
 1037 -427 l 1,236,-1
0 1506 m 1,240,-1
 103 1506 l 1,241,-1
 103 1408 l 1,242,-1
 0 1408 l 1,243,-1
 0 1506 l 1,240,-1
207 1506 m 1,244,-1
 310 1506 l 1,245,-1
 310 1408 l 1,246,-1
 207 1408 l 1,247,-1
 207 1506 l 1,244,-1
414 1506 m 1,248,-1
 517 1506 l 1,249,-1
 517 1408 l 1,250,-1
 414 1408 l 1,251,-1
 414 1506 l 1,248,-1
621 1506 m 1,252,-1
 725 1506 l 1,253,-1
 725 1408 l 1,254,-1
 621 1408 l 1,255,-1
 621 1506 l 1,252,-1
829 1506 m 1,256,-1
 933 1506 l 1,257,-1
 933 1408 l 1,258,-1
 829 1408 l 1,259,-1
 829 1506 l 1,256,-1
1037 1506 m 1,260,-1
 1140 1506 l 1,261,-1
 1140 1408 l 1,262,-1
 1037 1408 l 1,263,-1
 1037 1506 l 1,260,-1
103 1699 m 1,264,-1
 207 1699 l 1,265,-1
 207 1603 l 1,266,-1
 103 1603 l 1,267,-1
 103 1699 l 1,264,-1
310 1699 m 1,268,-1
 414 1699 l 1,269,-1
 414 1603 l 1,270,-1
 310 1603 l 1,271,-1
 310 1699 l 1,268,-1
517 1699 m 1,272,-1
 621 1699 l 1,273,-1
 621 1603 l 1,274,-1
 517 1603 l 1,275,-1
 517 1699 l 1,272,-1
725 1699 m 1,276,-1
 829 1699 l 1,277,-1
 829 1603 l 1,278,-1
 725 1603 l 1,279,-1
 725 1699 l 1,276,-1
933 1699 m 1,280,-1
 1037 1699 l 1,281,-1
 1037 1603 l 1,282,-1
 933 1603 l 1,283,-1
 933 1699 l 1,280,-1
1140 1699 m 1,284,-1
 1244 1699 l 1,285,-1
 1244 1603 l 1,286,-1
 1140 1603 l 1,287,-1
 1140 1699 l 1,284,-1
1347 1314 m 1,288,-1
 1451 1314 l 1,289,-1
 1451 1216 l 1,290,-1
 1347 1216 l 1,291,-1
 1347 1314 l 1,288,-1
1244 1119 m 1,292,-1
 1347 1119 l 1,293,-1
 1347 1023 l 1,294,-1
 1244 1023 l 1,295,-1
 1244 1119 l 1,292,-1
1347 927 m 1,296,-1
 1451 927 l 1,297,-1
 1451 831 l 1,298,-1
 1347 831 l 1,299,-1
 1347 927 l 1,296,-1
1244 732 m 1,300,-1
 1347 732 l 1,301,-1
 1347 636 l 1,302,-1
 1244 636 l 1,303,-1
 1244 732 l 1,300,-1
1347 540 m 1,304,-1
 1451 540 l 1,305,-1
 1451 444 l 1,306,-1
 1347 444 l 1,307,-1
 1347 540 l 1,304,-1
1244 345 m 1,308,-1
 1347 345 l 1,309,-1
 1347 249 l 1,310,-1
 1244 249 l 1,311,-1
 1244 345 l 1,308,-1
1347 153 m 1,312,-1
 1451 153 l 1,313,-1
 1451 56 l 1,314,-1
 1347 56 l 1,315,-1
 1347 153 l 1,312,-1
1244 -42 m 1,316,-1
 1347 -42 l 1,317,-1
 1347 -136 l 1,318,-1
 1244 -136 l 1,319,-1
 1244 -42 l 1,316,-1
1347 -234 m 1,320,-1
 1451 -234 l 1,321,-1
 1451 -331 l 1,322,-1
 1347 -331 l 1,323,-1
 1347 -234 l 1,320,-1
1244 -427 m 1,324,-1
 1347 -427 l 1,325,-1
 1347 -523 l 1,326,-1
 1244 -523 l 1,327,-1
 1244 -427 l 1,324,-1
1244 1506 m 1,328,-1
 1347 1506 l 1,329,-1
 1347 1408 l 1,330,-1
 1244 1408 l 1,331,-1
 1244 1506 l 1,328,-1
1347 1699 m 1,332,-1
 1451 1699 l 1,333,-1
 1451 1603 l 1,334,-1
 1347 1603 l 1,335,-1
 1347 1699 l 1,332,-1
EndSplineSet
Validated: 1
EndChar

StartChar: dkshade
Encoding: 9619 9619 372
Width: 1493
GlyphClass: 2
Flags: W
LayerCount: 2
Fore
SplineSet
1493 -621 m 1,0,-1
 0 -621 l 1,1,-1
 0 -331 l 1,2,-1
 106 -331 l 1,3,-1
 106 -234 l 1,4,-1
 0 -234 l 1,5,-1
 0 56 l 1,6,-1
 106 56 l 1,7,-1
 106 153 l 1,8,-1
 0 153 l 1,9,-1
 0 444 l 1,10,-1
 106 444 l 1,11,-1
 106 540 l 1,12,-1
 0 540 l 1,13,-1
 0 829 l 1,14,-1
 106 829 l 1,15,-1
 106 927 l 1,16,-1
 0 927 l 1,17,-1
 0 1216 l 1,18,-1
 106 1216 l 1,19,-1
 106 1314 l 1,20,-1
 0 1314 l 1,21,-1
 0 1603 l 1,22,-1
 106 1603 l 1,23,-1
 106 1699 l 1,24,-1
 213 1699 l 1,25,-1
 213 1603 l 1,26,-1
 319 1603 l 1,27,-1
 319 1699 l 1,28,-1
 426 1699 l 1,29,-1
 426 1603 l 1,30,-1
 532 1603 l 1,31,-1
 532 1699 l 1,32,-1
 639 1699 l 1,33,-1
 639 1603 l 1,34,-1
 746 1603 l 1,35,-1
 746 1699 l 1,36,-1
 853 1699 l 1,37,-1
 853 1603 l 1,38,-1
 960 1603 l 1,39,-1
 960 1699 l 1,40,-1
 1067 1699 l 1,41,-1
 1067 1603 l 1,42,-1
 1173 1603 l 1,43,-1
 1173 1699 l 1,44,-1
 1280 1699 l 1,45,-1
 1280 1603 l 1,46,-1
 1386 1603 l 1,47,-1
 1386 1699 l 1,48,-1
 1493 1699 l 1,49,-1
 1493 1506 l 1,50,-1
 1386 1506 l 1,51,-1
 1386 1408 l 1,52,-1
 1493 1408 l 1,53,-1
 1493 1119 l 1,54,-1
 1386 1119 l 1,55,-1
 1386 1023 l 1,56,-1
 1493 1023 l 1,57,-1
 1493 732 l 1,58,-1
 1386 732 l 1,59,-1
 1386 636 l 1,60,-1
 1493 636 l 1,61,-1
 1493 345 l 1,62,-1
 1386 345 l 1,63,-1
 1386 249 l 1,64,-1
 1493 249 l 1,65,-1
 1493 -42 l 1,66,-1
 1386 -42 l 1,67,-1
 1386 -136 l 1,68,-1
 1493 -136 l 1,69,-1
 1493 -427 l 1,70,-1
 1386 -427 l 1,71,-1
 1386 -523 l 1,72,-1
 1493 -523 l 1,73,-1
 1493 -621 l 1,0,-1
106 1119 m 1,74,-1
 106 1023 l 1,75,-1
 213 1023 l 1,76,-1
 213 1119 l 1,77,-1
 106 1119 l 1,74,-1
319 1119 m 1,78,-1
 319 1023 l 1,79,-1
 426 1023 l 1,80,-1
 426 1119 l 1,81,-1
 319 1119 l 1,78,-1
532 1119 m 1,82,-1
 532 1023 l 1,83,-1
 639 1023 l 1,84,-1
 639 1119 l 1,85,-1
 532 1119 l 1,82,-1
746 1119 m 1,86,-1
 746 1023 l 1,87,-1
 853 1023 l 1,88,-1
 853 1119 l 1,89,-1
 746 1119 l 1,86,-1
960 927 m 1,90,-1
 853 927 l 1,91,-1
 853 829 l 1,92,-1
 960 829 l 1,93,-1
 960 927 l 1,90,-1
746 927 m 1,94,-1
 639 927 l 1,95,-1
 639 829 l 1,96,-1
 746 829 l 1,97,-1
 746 927 l 1,94,-1
532 927 m 1,98,-1
 426 927 l 1,99,-1
 426 829 l 1,100,-1
 532 829 l 1,101,-1
 532 927 l 1,98,-1
319 927 m 1,102,-1
 213 927 l 1,103,-1
 213 829 l 1,104,-1
 319 829 l 1,105,-1
 319 927 l 1,102,-1
106 732 m 1,106,-1
 106 636 l 1,107,-1
 213 636 l 1,108,-1
 213 732 l 1,109,-1
 106 732 l 1,106,-1
319 732 m 1,110,-1
 319 636 l 1,111,-1
 426 636 l 1,112,-1
 426 732 l 1,113,-1
 319 732 l 1,110,-1
532 732 m 1,114,-1
 532 636 l 1,115,-1
 639 636 l 1,116,-1
 639 732 l 1,117,-1
 532 732 l 1,114,-1
746 732 m 1,118,-1
 746 636 l 1,119,-1
 853 636 l 1,120,-1
 853 732 l 1,121,-1
 746 732 l 1,118,-1
319 540 m 1,122,-1
 213 540 l 1,123,-1
 213 444 l 1,124,-1
 319 444 l 1,125,-1
 319 540 l 1,122,-1
426 540 m 1,126,-1
 426 444 l 1,127,-1
 532 444 l 1,128,-1
 532 540 l 1,129,-1
 426 540 l 1,126,-1
639 540 m 1,130,-1
 639 444 l 1,131,-1
 746 444 l 1,132,-1
 746 540 l 1,133,-1
 639 540 l 1,130,-1
853 540 m 1,134,-1
 853 444 l 1,135,-1
 960 444 l 1,136,-1
 960 540 l 1,137,-1
 853 540 l 1,134,-1
106 345 m 1,138,-1
 106 249 l 1,139,-1
 213 249 l 1,140,-1
 213 345 l 1,141,-1
 106 345 l 1,138,-1
532 345 m 1,142,-1
 532 249 l 1,143,-1
 639 249 l 1,144,-1
 639 345 l 1,145,-1
 532 345 l 1,142,-1
426 249 m 1,146,-1
 426 345 l 1,147,-1
 319 345 l 1,148,-1
 319 249 l 1,149,-1
 426 249 l 1,146,-1
746 345 m 1,150,-1
 746 249 l 1,151,-1
 853 249 l 1,152,-1
 853 345 l 1,153,-1
 746 345 l 1,150,-1
960 56 m 1,154,-1
 960 153 l 1,155,-1
 853 153 l 1,156,-1
 853 56 l 1,157,-1
 960 56 l 1,154,-1
746 56 m 1,158,-1
 746 153 l 1,159,-1
 639 153 l 1,160,-1
 639 56 l 1,161,-1
 746 56 l 1,158,-1
532 56 m 1,162,-1
 532 153 l 1,163,-1
 426 153 l 1,164,-1
 426 56 l 1,165,-1
 532 56 l 1,162,-1
319 56 m 1,166,-1
 319 153 l 1,167,-1
 213 153 l 1,168,-1
 213 56 l 1,169,-1
 319 56 l 1,166,-1
106 -42 m 1,170,-1
 106 -136 l 1,171,-1
 213 -136 l 1,172,-1
 213 -42 l 1,173,-1
 106 -42 l 1,170,-1
319 -42 m 1,174,-1
 319 -136 l 1,175,-1
 426 -136 l 1,176,-1
 426 -42 l 1,177,-1
 319 -42 l 1,174,-1
532 -42 m 1,178,-1
 532 -136 l 1,179,-1
 639 -136 l 1,180,-1
 639 -42 l 1,181,-1
 532 -42 l 1,178,-1
746 -42 m 1,182,-1
 746 -136 l 1,183,-1
 853 -136 l 1,184,-1
 853 -42 l 1,185,-1
 746 -42 l 1,182,-1
960 -331 m 1,186,-1
 960 -234 l 1,187,-1
 853 -234 l 1,188,-1
 853 -331 l 1,189,-1
 960 -331 l 1,186,-1
746 -331 m 1,190,-1
 746 -234 l 1,191,-1
 639 -234 l 1,192,-1
 639 -331 l 1,193,-1
 746 -331 l 1,190,-1
532 -331 m 1,194,-1
 532 -234 l 1,195,-1
 426 -234 l 1,196,-1
 426 -331 l 1,197,-1
 532 -331 l 1,194,-1
319 -331 m 1,198,-1
 319 -234 l 1,199,-1
 213 -234 l 1,200,-1
 213 -331 l 1,201,-1
 319 -331 l 1,198,-1
106 -427 m 1,202,-1
 106 -523 l 1,203,-1
 213 -523 l 1,204,-1
 213 -427 l 1,205,-1
 106 -427 l 1,202,-1
319 -427 m 1,206,-1
 319 -523 l 1,207,-1
 426 -523 l 1,208,-1
 426 -427 l 1,209,-1
 319 -427 l 1,206,-1
532 -427 m 1,210,-1
 532 -523 l 1,211,-1
 639 -523 l 1,212,-1
 639 -427 l 1,213,-1
 532 -427 l 1,210,-1
746 -427 m 1,214,-1
 746 -523 l 1,215,-1
 853 -523 l 1,216,-1
 853 -427 l 1,217,-1
 746 -427 l 1,214,-1
960 1314 m 1,218,-1
 853 1314 l 1,219,-1
 853 1216 l 1,220,-1
 960 1216 l 1,221,-1
 960 1314 l 1,218,-1
746 1314 m 1,222,-1
 639 1314 l 1,223,-1
 639 1216 l 1,224,-1
 746 1216 l 1,225,-1
 746 1314 l 1,222,-1
532 1314 m 1,226,-1
 426 1314 l 1,227,-1
 426 1216 l 1,228,-1
 532 1216 l 1,229,-1
 532 1314 l 1,226,-1
319 1314 m 1,230,-1
 213 1314 l 1,231,-1
 213 1216 l 1,232,-1
 319 1216 l 1,233,-1
 319 1314 l 1,230,-1
853 1506 m 1,234,-1
 746 1506 l 1,235,-1
 746 1408 l 1,236,-1
 853 1408 l 1,237,-1
 853 1506 l 1,234,-1
639 1506 m 1,238,-1
 532 1506 l 1,239,-1
 532 1408 l 1,240,-1
 639 1408 l 1,241,-1
 639 1506 l 1,238,-1
426 1506 m 1,242,-1
 319 1506 l 1,243,-1
 319 1408 l 1,244,-1
 426 1408 l 1,245,-1
 426 1506 l 1,242,-1
213 1506 m 1,246,-1
 106 1506 l 1,247,-1
 106 1408 l 1,248,-1
 213 1408 l 1,249,-1
 213 1506 l 1,246,-1
960 1119 m 1,250,-1
 960 1023 l 1,251,-1
 1067 1023 l 1,252,-1
 1067 1119 l 1,253,-1
 960 1119 l 1,250,-1
1173 1119 m 1,254,-1
 1173 1023 l 1,255,-1
 1280 1023 l 1,256,-1
 1280 1119 l 1,257,-1
 1173 1119 l 1,254,-1
1386 927 m 1,258,-1
 1280 927 l 1,259,-1
 1280 829 l 1,260,-1
 1386 829 l 1,261,-1
 1386 927 l 1,258,-1
1173 927 m 1,262,-1
 1067 927 l 1,263,-1
 1067 829 l 1,264,-1
 1173 829 l 1,265,-1
 1173 927 l 1,262,-1
960 732 m 1,266,-1
 960 636 l 1,267,-1
 1067 636 l 1,268,-1
 1067 732 l 1,269,-1
 960 732 l 1,266,-1
1173 732 m 1,270,-1
 1173 636 l 1,271,-1
 1280 636 l 1,272,-1
 1280 732 l 1,273,-1
 1173 732 l 1,270,-1
1173 540 m 1,274,-1
 1067 540 l 1,275,-1
 1067 444 l 1,276,-1
 1173 444 l 1,277,-1
 1173 540 l 1,274,-1
1280 540 m 1,278,-1
 1280 444 l 1,279,-1
 1386 444 l 1,280,-1
 1386 540 l 1,281,-1
 1280 540 l 1,278,-1
960 345 m 1,282,-1
 960 249 l 1,283,-1
 1067 249 l 1,284,-1
 1067 345 l 1,285,-1
 960 345 l 1,282,-1
1280 249 m 1,286,-1
 1280 345 l 1,287,-1
 1173 345 l 1,288,-1
 1173 249 l 1,289,-1
 1280 249 l 1,286,-1
1386 56 m 1,290,-1
 1386 153 l 1,291,-1
 1280 153 l 1,292,-1
 1280 56 l 1,293,-1
 1386 56 l 1,290,-1
1173 56 m 1,294,-1
 1173 153 l 1,295,-1
 1067 153 l 1,296,-1
 1067 56 l 1,297,-1
 1173 56 l 1,294,-1
960 -42 m 1,298,-1
 960 -136 l 1,299,-1
 1067 -136 l 1,300,-1
 1067 -42 l 1,301,-1
 960 -42 l 1,298,-1
1173 -42 m 1,302,-1
 1173 -136 l 1,303,-1
 1280 -136 l 1,304,-1
 1280 -42 l 1,305,-1
 1173 -42 l 1,302,-1
1386 -331 m 1,306,-1
 1386 -234 l 1,307,-1
 1280 -234 l 1,308,-1
 1280 -331 l 1,309,-1
 1386 -331 l 1,306,-1
1173 -331 m 1,310,-1
 1173 -234 l 1,311,-1
 1067 -234 l 1,312,-1
 1067 -331 l 1,313,-1
 1173 -331 l 1,310,-1
960 -427 m 1,314,-1
 960 -523 l 1,315,-1
 1067 -523 l 1,316,-1
 1067 -427 l 1,317,-1
 960 -427 l 1,314,-1
1173 -427 m 1,318,-1
 1173 -523 l 1,319,-1
 1280 -523 l 1,320,-1
 1280 -427 l 1,321,-1
 1173 -427 l 1,318,-1
1386 1314 m 1,322,-1
 1280 1314 l 1,323,-1
 1280 1216 l 1,324,-1
 1386 1216 l 1,325,-1
 1386 1314 l 1,322,-1
1173 1314 m 1,326,-1
 1067 1314 l 1,327,-1
 1067 1216 l 1,328,-1
 1173 1216 l 1,329,-1
 1173 1314 l 1,326,-1
1280 1506 m 1,330,-1
 1173 1506 l 1,331,-1
 1173 1408 l 1,332,-1
 1280 1408 l 1,333,-1
 1280 1506 l 1,330,-1
1067 1506 m 1,334,-1
 960 1506 l 1,335,-1
 960 1408 l 1,336,-1
 1067 1408 l 1,337,-1
 1067 1506 l 1,334,-1
EndSplineSet
Validated: 1
EndChar

StartChar: filledbox
Encoding: 9632 9632 373
Width: 1237
GlyphClass: 2
Flags: W
LayerCount: 2
Fore
SplineSet
123 1108 m 1,0,-1
 1114 1108 l 1,1,-1
 1114 117 l 1,2,-1
 123 117 l 1,3,-1
 123 1108 l 1,0,-1
EndSplineSet
Validated: 1
EndChar

StartChar: filledrect
Encoding: 9644 9644 374
Width: 2048
GlyphClass: 2
Flags: W
LayerCount: 2
Fore
SplineSet
0 616 m 1,0,-1
 2048 616 l 1,1,-1
 2048 0 l 1,2,-1
 0 0 l 1,3,-1
 0 616 l 1,0,-1
EndSplineSet
Validated: 1
EndChar

StartChar: triagup
Encoding: 9650 9650 375
Width: 2027
GlyphClass: 2
Flags: W
LayerCount: 2
Fore
SplineSet
414 0 m 1,0,-1
 1014 1198 l 1,1,-1
 1612 0 l 1,2,-1
 414 0 l 1,0,-1
EndSplineSet
Validated: 1
EndChar

StartChar: triagrt
Encoding: 9658 9658 376
Width: 2027
GlyphClass: 2
Flags: W
LayerCount: 2
Fore
SplineSet
401 1196 m 1,0,-1
 1626 586 l 1,1,-1
 401 -27 l 1,2,-1
 401 1196 l 1,0,-1
EndSplineSet
Validated: 1
EndChar

StartChar: triagdn
Encoding: 9660 9660 377
Width: 2027
GlyphClass: 2
Flags: W
LayerCount: 2
Fore
SplineSet
1612 1171 m 1,0,-1
 1014 -27 l 1,1,-1
 414 1171 l 1,2,-1
 1612 1171 l 1,0,-1
EndSplineSet
Validated: 1
EndChar

StartChar: triaglf
Encoding: 9668 9668 378
Width: 2027
GlyphClass: 2
Flags: W
LayerCount: 2
Fore
SplineSet
1626 1196 m 1,0,-1
 1626 -27 l 1,1,-1
 401 586 l 1,2,-1
 1626 1196 l 1,0,-1
EndSplineSet
Validated: 1
EndChar

